     1      2      3  1      1
     1      3      4  1      1
     1      4      5  1      1
     1      5      6  1      1
     1      6      7  1      1
     1      7      2  1      1
     3      2      9  1      1
     3      9     10  1      1
     3     10     11  1      1
     4      3     11  1      1
     4     11     12  1      1
     4     12     13  1      1
     5      4     13  1      1
     5     13     14  1      1
     5     14     15  1      1
     6      5     15  1      1
     6     15     16  1      1
     6     16     17  1      1
     7      6     17  1      1
     7     17     18  1      1
     7     18     19  1      1
     2      7     19  1      1
     2     19      8  1      1
     2      8      9  1      1
     9      8     21  1      1
     9     21     22  1      1
    10      9     22  1      1
    10     22     23  1      1
    10     23     24  1      1
    11     10     24  1      1
    11     24     25  1      1
    12     11     25  1      1
    12     25     26  1      1
    12     26     27  1      1
    13     12     27  1      1
    13     27     28  1      1
    14     13     28  1      1
    14     28     29  1      1
    14     29     30  1      1
    15     14     30  1      1
    15     30     31  1      1
    16     15     31  1      1
    16     31     32  1      1
    16     32     33  1      1
    17     16     33  1      1
    17     33     34  1      1
    18     17     34  1      1
    18     34     35  1      1
    18     35     36  1      1
    19     18     36  1      1
    19     36     37  1      1
     8     19     37  1      1
     8     37     20  1      1
     8     20     21  1      1
    21     20     39  1      1
    21     39     40  1      1
    22     21     40  1      1
    22     40     41  1      1
    23     22     41  1      1
    23     41     42  1      1
    23     42     43  1      1
    24     23     43  1      1
    24     43     44  1      1
    25     24     44  1      1
    25     44     45  1      1
    26     25     45  1      1
    26     45     46  1      1
    26     46     47  1      1
    27     26     47  1      1
    27     47     48  1      1
    28     27     48  1      1
    28     48     49  1      1
    29     28     49  1      1
    29     49     50  1      1
    29     50     51  1      1
    30     29     51  1      1
    30     51     52  1      1
    31     30     52  1      1
    31     52     53  1      1
    32     31     53  1      1
    32     53     54  1      1
    32     54     55  1      1
    33     32     55  1      1
    33     55     56  1      1
    34     33     56  1      1
    34     56     57  1      1
    35     34     57  1      1
    35     57     58  1      1
    35     58     59  1      1
    36     35     59  1      1
    36     59     60  1      1
    37     36     60  1      1
    37     60     61  1      1
    20     37     61  1      1
    20     61     38  1      1
    20     38     39  1      1
    39     38     63  1      1
    39     63     64  1      1
    40     39     64  1      1
    40     64     65  1      1
    41     40     65  1      1
    41     65     66  1      1
    42     41     66  1      1
    42     66     67  1      1
    43     42     67  1      1
    43     67     68  1      1
    43     68     69  1      1
    44     43     69  1      1
    44     69     70  1      1
    45     44     70  1      1
    45     70     71  1      1
    46     45     71  1      1
    46     71     72  1      1
    47     46     72  1      1
    47     72     73  1      1
    48     47     73  1      1
    48     73     74  1      1
    48     74     75  1      1
    49     48     75  1      1
    49     75     76  1      1
    50     49     76  1      1
    50     76     77  1      1
    51     50     77  1      1
    51     77     78  1      1
    52     51     78  1      1
    52     78     79  1      1
    52     79     80  1      1
    53     52     80  1      1
    53     80     81  1      1
    54     53     81  1      1
    54     81     82  1      1
    55     54     82  1      1
    55     82     83  1      1
    56     55     83  1      1
    56     83     84  1      1
    57     56     84  1      1
    57     84     85  1      1
    57     85     86  1      1
    58     57     86  1      1
    58     86     87  1      1
    59     58     87  1      1
    59     87     88  1      1
    60     59     88  1      1
    60     88     89  1      1
    61     60     89  1      1
    61     89     90  1      1
    38     61     90  1      1
    38     90     62  1      1
    38     62     63  1      1
    63     62     92  1      1
    63     92     93  1      1
    64     63     93  1      1
    64     93     94  1      1
    65     64     94  1      1
    65     94     95  1      1
    66     65     95  1      1
    66     95     96  1      1
    67     66     96  1      1
    67     96     97  1      1
    68     67     97  1      1
    68     97     98  1      1
    69     68     98  1      1
    69     98     99  1      1
    69     99    100  1      1
    70     69    100  1      1
    70    100    101  1      1
    71     70    101  1      1
    71    101    102  1      1
    72     71    102  1      1
    72    102    103  1      1
    73     72    103  1      1
    73    103    104  1      1
    74     73    104  1      1
    74    104    105  1      1
    75     74    105  1      1
    75    105    106  1      1
    76     75    106  1      1
    76    106    107  1      1
    77     76    107  1      1
    77    107    108  1      1
    77    108    109  1      1
    78     77    109  1      1
    78    109    110  1      1
    79     78    110  1      1
    79    110    111  1      1
    80     79    111  1      1
    80    111    112  1      1
    81     80    112  1      1
    81    112    113  1      1
    82     81    113  1      1
    82    113    114  1      1
    83     82    114  1      1
    83    114    115  1      1
    84     83    115  1      1
    84    115    116  1      1
    84    116    117  1      1
    85     84    117  1      1
    85    117    118  1      1
    86     85    118  1      1
    86    118    119  1      1
    87     86    119  1      1
    87    119    120  1      1
    88     87    120  1      1
    88    120    121  1      1
    89     88    121  1      1
    89    121    122  1      1
    90     89    122  1      1
    90    122    123  1      1
    62     90    123  1      1
    62    123     91  1      1
    62     91     92  1      1
    92     91    125  1      1
    92    125    126  1      1
    93     92    126  1      1
    93    126    127  1      1
    94     93    127  1      1
    94    127    128  1      1
    95     94    128  1      1
    95    128    129  1      1
    96     95    129  1      1
    96    129    130  1      1
    97     96    130  1      1
    97    130    131  1      1
    98     97    131  1      1
    98    131    132  1      1
    99     98    132  1      1
    99    132    133  1      1
    99    133    134  1      1
   100     99    134  1      1
   100    134    135  1      1
   101    100    135  1      1
   101    135    136  1      1
   102    101    136  1      1
   102    136    137  1      1
   103    102    137  1      1
   103    137    138  1      1
   104    103    138  1      1
   104    138    139  1      1
   105    104    139  1      1
   105    139    140  1      1
   106    105    140  1      1
   106    140    141  1      1
   107    106    141  1      1
   107    141    142  1      1
   107    142    143  1      1
   108    107    143  1      1
   108    143    144  1      1
   109    108    144  1      1
   109    144    145  1      1
   110    109    145  1      1
   110    145    146  1      1
   111    110    146  1      1
   111    146    147  1      1
   112    111    147  1      1
   112    147    148  1      1
   113    112    148  1      1
   113    148    149  1      1
   114    113    149  1      1
   114    149    150  1      1
   115    114    150  1      1
   115    150    151  1      1
   116    115    151  1      1
   116    151    152  1      1
   116    152    153  1      1
   117    116    153  1      1
   117    153    154  1      1
   118    117    154  1      1
   118    154    155  1      1
   119    118    155  1      1
   119    155    156  1      1
   120    119    156  1      1
   120    156    157  1      1
   121    120    157  1      1
   121    157    158  1      1
   122    121    158  1      1
   122    158    159  1      1
   123    122    159  1      1
   123    159    160  1      1
    91    123    160  1      1
    91    160    124  1      1
    91    124    125  1      1
   125    124    162  1      1
   125    162    163  1      1
   126    125    163  1      1
   126    163    164  1      1
   127    126    164  1      1
   127    164    165  1      1
   128    127    165  1      1
   128    165    166  1      1
   129    128    166  1      1
   129    166    167  1      1
   130    129    167  1      1
   130    167    168  1      1
   131    130    168  1      1
   131    168    169  1      1
   132    131    169  1      1
   132    169    170  1      1
   133    132    170  1      1
   133    170    171  1      1
   134    133    171  1      1
   134    171    172  1      1
   135    134    172  1      1
   135    172    173  1      1
   136    135    173  1      1
   136    173    174  1      1
   136    174    175  1      1
   137    136    175  1      1
   137    175    176  1      1
   138    137    176  1      1
   138    176    177  1      1
   139    138    177  1      1
   139    177    178  1      1
   140    139    178  1      1
   140    178    179  1      1
   141    140    179  1      1
   141    179    180  1      1
   142    141    180  1      1
   142    180    181  1      1
   143    142    181  1      1
   143    181    182  1      1
   144    143    182  1      1
   144    182    183  1      1
   145    144    183  1      1
   145    183    184  1      1
   146    145    184  1      1
   146    184    185  1      1
   147    146    185  1      1
   147    185    186  1      1
   148    147    186  1      1
   148    186    187  1      1
   149    148    187  1      1
   149    187    188  1      1
   149    188    189  1      1
   150    149    189  1      1
   150    189    190  1      1
   151    150    190  1      1
   151    190    191  1      1
   152    151    191  1      1
   152    191    192  1      1
   153    152    192  1      1
   153    192    193  1      1
   154    153    193  1      1
   154    193    194  1      1
   155    154    194  1      1
   155    194    195  1      1
   156    155    195  1      1
   156    195    196  1      1
   157    156    196  1      1
   157    196    197  1      1
   158    157    197  1      1
   158    197    198  1      1
   159    158    198  1      1
   159    198    199  1      1
   160    159    199  1      1
   160    199    200  1      1
   124    160    200  1      1
   124    200    161  1      1
   124    161    162  1      1
   162    161    202  1      1
   162    202    203  1      1
   163    162    203  1      1
   163    203    204  1      1
   164    163    204  1      1
   164    204    205  1      1
   165    164    205  1      1
   165    205    206  1      1
   166    165    206  1      1
   166    206    207  1      1
   167    166    207  1      1
   167    207    208  1      1
   168    167    208  1      1
   168    208    209  1      1
   169    168    209  1      1
   169    209    210  1      1
   170    169    210  1      1
   170    210    211  1      1
   171    170    211  1      1
   171    211    212  1      1
   172    171    212  1      1
   172    212    213  1      1
   173    172    213  1      1
   173    213    214  1      1
   174    173    214  1      1
   174    214    215  1      1
   175    174    215  1      1
   175    215    216  1      1
   176    175    216  1      1
   176    216    217  1      1
   177    176    217  1      1
   177    217    218  1      1
   178    177    218  1      1
   178    218    219  1      1
   179    178    219  1      1
   179    219    220  1      1
   180    179    220  1      1
   180    220    221  1      1
   181    180    221  1      1
   181    221    222  1      1
   182    181    222  1      1
   182    222    223  1      1
   183    182    223  1      1
   183    223    224  1      1
   184    183    224  1      1
   184    224    225  1      1
   185    184    225  1      1
   185    225    226  1      1
   186    185    226  1      1
   186    226    227  1      1
   187    186    227  1      1
   187    227    228  1      1
   188    187    228  1      1
   188    228    229  1      1
   189    188    229  1      1
   189    229    230  1      1
   190    189    230  1      1
   190    230    231  1      1
   191    190    231  1      1
   191    231    232  1      1
   192    191    232  1      1
   192    232    233  1      1
   193    192    233  1      1
   193    233    234  1      1
   194    193    234  1      1
   194    234    235  1      1
   195    194    235  1      1
   195    235    236  1      1
   196    195    236  1      1
   196    236    237  1      1
   197    196    237  1      1
   197    237    238  1      1
   198    197    238  1      1
   198    238    239  1      1
   199    198    239  1      1
   199    239    240  1      1
   200    199    240  1      1
   200    240    241  1      1
   161    200    241  1      1
   161    241    201  1      1
   161    201    202  1      1
   202    201    243  1      1
   202    243    244  1      1
   203    202    244  1      1
   203    244    245  1      1
   204    203    245  1      1
   204    245    246  1      1
   205    204    246  1      1
   205    246    247  1      1
   206    205    247  1      1
   206    247    248  1      1
   207    206    248  1      1
   207    248    249  1      1
   208    207    249  1      1
   208    249    250  1      1
   209    208    250  1      1
   209    250    251  1      1
   210    209    251  1      1
   210    251    252  1      1
   211    210    252  1      1
   211    252    253  1      1
   212    211    253  1      1
   212    253    254  1      1
   213    212    254  1      1
   213    254    255  1      1
   214    213    255  1      1
   214    255    256  1      1
   215    214    256  1      1
   215    256    257  1      1
   216    215    257  1      1
   216    257    258  1      1
   217    216    258  1      1
   217    258    259  1      1
   218    217    259  1      1
   218    259    260  1      1
   219    218    260  1      1
   219    260    261  1      1
   220    219    261  1      1
   220    261    262  1      1
   221    220    262  1      1
   221    262    263  1      1
   222    221    263  1      1
   222    263    264  1      1
   223    222    264  1      1
   223    264    265  1      1
   224    223    265  1      1
   224    265    266  1      1
   225    224    266  1      1
   225    266    267  1      1
   226    225    267  1      1
   226    267    268  1      1
   227    226    268  1      1
   227    268    269  1      1
   228    227    269  1      1
   228    269    270  1      1
   229    228    270  1      1
   229    270    271  1      1
   230    229    271  1      1
   230    271    272  1      1
   231    230    272  1      1
   231    272    273  1      1
   232    231    273  1      1
   232    273    274  1      1
   233    232    274  1      1
   233    274    275  1      1
   234    233    275  1      1
   234    275    276  1      1
   235    234    276  1      1
   235    276    277  1      1
   236    235    277  1      1
   236    277    278  1      1
   237    236    278  1      1
   237    278    279  1      1
   238    237    279  1      1
   238    279    280  1      1
   239    238    280  1      1
   239    280    281  1      1
   240    239    281  1      1
   240    281    282  1      1
   241    240    282  1      1
   241    282    283  1      1
   201    241    283  1      1
   201    283    242  1      1
   201    242    243  1      1
   243    242    285  1      1
   243    285    286  1      1
   244    243    286  1      1
   244    286    287  1      1
   245    244    287  1      1
   245    287    288  1      1
   246    245    288  1      1
   246    288    289  1      1
   247    246    289  1      1
   247    289    290  1      1
   248    247    290  1      1
   248    290    291  1      1
   249    248    291  1      1
   249    291    292  1      1
   250    249    292  1      1
   250    292    293  1      1
   251    250    293  1      1
   251    293    294  1      1
   252    251    294  1      1
   252    294    295  1      1
   253    252    295  1      1
   253    295    296  1      1
   254    253    296  1      1
   254    296    297  1      1
   255    254    297  1      1
   255    297    298  1      1
   256    255    298  1      1
   257    256    298  1      1
   257    298    299  1      1
   257    299    300  1      1
   258    257    300  1      1
   258    300    301  1      1
   259    258    301  1      1
   259    301    302  1      1
   260    259    302  1      1
   260    302    303  1      1
   261    260    303  1      1
   261    303    304  1      1
   262    261    304  1      1
   262    304    305  1      1
   263    262    305  1      1
   263    305    306  1      1
   264    263    306  1      1
   264    306    307  1      1
   265    264    307  1      1
   265    307    308  1      1
   266    265    308  1      1
   266    308    309  1      1
   267    266    309  1      1
   267    309    310  1      1
   268    267    310  1      1
   268    310    311  1      1
   269    268    311  1      1
   269    311    312  1      1
   270    269    312  1      1
   270    312    313  1      1
   271    270    313  1      1
   271    313    314  1      1
   272    271    314  1      1
   272    314    315  1      1
   273    272    315  1      1
   274    273    315  1      1
   274    315    316  1      1
   274    316    317  1      1
   275    274    317  1      1
   275    317    318  1      1
   276    275    318  1      1
   276    318    319  1      1
   277    276    319  1      1
   277    319    320  1      1
   278    277    320  1      1
   278    320    321  1      1
   279    278    321  1      1
   279    321    322  1      1
   280    279    322  1      1
   280    322    323  1      1
   281    280    323  1      1
   281    323    324  1      1
   282    281    324  1      1
   282    324    325  1      1
   283    282    325  1      1
   242    283    325  1      1
   242    325    284  1      1
   242    284    285  1      1
   285    284    326  1      1
   285    326    327  1      1
   286    285    327  1      1
   286    327    328  1      1
   287    286    328  1      1
   287    328    329  1      1
   288    287    329  1      1
   288    329    330  1      1
   289    288    330  1      1
   289    330    331  1      1
   290    289    331  1      1
   290    331    332  1      1
   291    290    332  1      1
   291    332    333  1      1
   292    291    333  1      1
   292    333    334  1      1
   293    292    334  1      1
   293    334    335  1      1
   294    293    335  1      1
   294    335    336  1      1
   295    294    336  1      1
   295    336    337  1      1
   296    295    337  1      1
   296    337    338  1      1
   297    296    338  1      1
   297    338    339  1      1
   298    297    339  1      1
   298    339    340  1      1
   299    298    340  1      1
   299    340    341  1      1
   300    299    341  1      1
   300    341    342  1      1
   301    300    342  1      1
   301    342    343  1      1
   302    301    343  1      1
   302    343    344  1      1
   303    302    344  1      1
   303    344    345  1      1
   304    303    345  1      1
   304    345    346  1      1
   305    304    346  1      1
   305    346    347  1      1
   306    305    347  1      1
   306    347    348  1      1
   307    306    348  1      1
   307    348    349  1      1
   308    307    349  1      1
   308    349    350  1      1
   309    308    350  1      1
   309    350    351  1      1
   310    309    351  1      1
   310    351    352  1      1
   311    310    352  1      1
   311    352    353  1      1
   312    311    353  1      1
   312    353    354  1      1
   313    312    354  1      1
   313    354    355  1      1
   314    313    355  1      1
   314    355    356  1      1
   315    314    356  1      1
   315    356    357  1      1
   316    315    357  1      1
   316    357    358  1      1
   317    316    358  1      1
   317    358    359  1      1
   318    317    359  1      1
   318    359    360  1      1
   319    318    360  1      1
   319    360    361  1      1
   320    319    361  1      1
   320    361    362  1      1
   321    320    362  1      1
   321    362    363  1      1
   322    321    363  1      1
   322    363    364  1      1
   323    322    364  1      1
   323    364    365  1      1
   324    323    365  1      1
   324    365    366  1      1
   325    324    366  1      1
   326    325    366  1      1
   284    325    326  1      1
   327    326    367  1      1
   327    367    368  1      1
   328    327    368  1      1
   328    368    369  1      1
   329    328    369  1      1
   329    369    370  1      1
   330    329    370  1      1
   330    370    371  1      1
   331    330    371  1      1
   331    371    372  1      1
   332    331    372  1      1
   332    372    373  1      1
   333    332    373  1      1
   333    373    374  1      1
   334    333    374  1      1
   334    374    375  1      1
   335    334    375  1      1
   335    375    376  1      1
   336    335    376  1      1
   336    376    377  1      1
   337    336    377  1      1
   337    377    378  1      1
   338    337    378  1      1
   338    378    379  1      1
   339    338    379  1      1
   339    379    380  1      1
   340    339    380  1      1
   340    380    381  1      1
   341    340    381  1      1
   341    381    382  1      1
   342    341    382  1      1
   342    382    383  1      1
   343    342    383  1      1
   343    383    384  1      1
   344    343    384  1      1
   344    384    385  1      1
   345    344    385  1      1
   345    385    386  1      1
   346    345    386  1      1
   346    386    387  1      1
   347    346    387  1      1
   347    387    388  1      1
   348    347    388  1      1
   348    388    389  1      1
   349    348    389  1      1
   349    389    390  1      1
   350    349    390  1      1
   350    390    391  1      1
   351    350    391  1      1
   351    391    392  1      1
   352    351    392  1      1
   352    392    393  1      1
   353    352    393  1      1
   353    393    394  1      1
   354    353    394  1      1
   354    394    395  1      1
   355    354    395  1      1
   355    395    396  1      1
   356    355    396  1      1
   356    396    397  1      1
   357    356    397  1      1
   357    397    398  1      1
   358    357    398  1      1
   358    398    399  1      1
   359    358    399  1      1
   359    399    400  1      1
   360    359    400  1      1
   360    400    401  1      1
   361    360    401  1      1
   361    401    402  1      1
   362    361    402  1      1
   362    402    403  1      1
   363    362    403  1      1
   363    403    404  1      1
   364    363    404  1      1
   364    404    405  1      1
   365    364    405  1      1
   365    405    406  1      1
   366    365    406  1      1
   367    366    406  1      1
   326    366    367  1      1
   368    367    407  1      1
   368    407    408  1      1
   369    368    408  1      1
   369    408    409  1      1
   370    369    409  1      1
   370    409    410  1      1
   371    370    410  1      1
   371    410    411  1      1
   372    371    411  1      1
   372    411    412  1      1
   373    372    412  1      1
   373    412    413  1      1
   374    373    413  1      1
   374    413    414  1      1
   375    374    414  1      1
   375    414    415  1      1
   376    375    415  1      1
   376    415    416  1      1
   377    376    416  1      1
   377    416    417  1      1
   378    377    417  1      1
   378    417    418  1      1
   379    378    418  1      1
   379    418    419  1      1
   380    379    419  1      1
   381    380    419  1      1
   381    419    420  1      1
   382    381    420  1      1
   382    420    421  1      1
   383    382    421  1      1
   383    421    422  1      1
   384    383    422  1      1
   384    422    423  1      1
   385    384    423  1      1
   385    423    424  1      1
   386    385    424  1      1
   386    424    425  1      1
   387    386    425  1      1
   387    425    426  1      1
   388    387    426  1      1
   388    426    427  1      1
   389    388    427  1      1
   389    427    428  1      1
   390    389    428  1      1
   390    428    429  1      1
   391    390    429  1      1
   391    429    430  1      1
   392    391    430  1      1
   392    430    431  1      1
   393    392    431  1      1
   393    431    432  1      1
   394    393    432  1      1
   395    394    432  1      1
   395    432    433  1      1
   396    395    433  1      1
   396    433    434  1      1
   397    396    434  1      1
   397    434    435  1      1
   398    397    435  1      1
   398    435    436  1      1
   399    398    436  1      1
   399    436    437  1      1
   400    399    437  1      1
   400    437    438  1      1
   401    400    438  1      1
   401    438    439  1      1
   402    401    439  1      1
   402    439    440  1      1
   403    402    440  1      1
   403    440    441  1      1
   404    403    441  1      1
   404    441    442  1      1
   405    404    442  1      1
   405    442    443  1      1
   406    405    443  1      1
   407    406    443  1      1
   367    406    407  1      1
   408    407    444  1      1
   408    444    445  1      1
   409    408    445  1      1
   409    445    446  1      1
   410    409    446  1      1
   410    446    447  1      1
   411    410    447  1      1
   411    447    448  1      1
   412    411    448  1      1
   412    448    449  1      1
   413    412    449  1      1
   413    449    450  1      1
   414    413    450  1      1
   414    450    451  1      1
   415    414    451  1      1
   415    451    452  1      1
   416    415    452  1      1
   417    416    452  1      1
   417    452    453  1      1
   418    417    453  1      1
   418    453    454  1      1
   419    418    454  1      1
   419    454    455  1      1
   420    419    455  1      1
   420    455    456  1      1
   421    420    456  1      1
   421    456    457  1      1
   422    421    457  1      1
   422    457    458  1      1
   423    422    458  1      1
   423    458    459  1      1
   424    423    459  1      1
   424    459    460  1      1
   425    424    460  1      1
   425    460    461  1      1
   426    425    461  1      1
   427    426    461  1      1
   427    461    462  1      1
   428    427    462  1      1
   428    462    463  1      1
   429    428    463  1      1
   429    463    464  1      1
   430    429    464  1      1
   430    464    465  1      1
   431    430    465  1      1
   431    465    466  1      1
   432    431    466  1      1
   432    466    467  1      1
   433    432    467  1      1
   433    467    468  1      1
   434    433    468  1      1
   434    468    469  1      1
   435    434    469  1      1
   436    435    469  1      1
   436    469    470  1      1
   437    436    470  1      1
   437    470    471  1      1
   438    437    471  1      1
   438    471    472  1      1
   439    438    472  1      1
   439    472    473  1      1
   440    439    473  1      1
   440    473    474  1      1
   441    440    474  1      1
   441    474    475  1      1
   442    441    475  1      1
   442    475    476  1      1
   443    442    476  1      1
   444    443    476  1      1
   407    443    444  1      1
   445    444    477  1      1
   445    477    478  1      1
   446    445    478  1      1
   446    478    479  1      1
   447    446    479  1      1
   447    479    480  1      1
   448    447    480  1      1
   448    480    481  1      1
   449    448    481  1      1
   449    481    482  1      1
   450    449    482  1      1
   450    482    483  1      1
   451    450    483  1      1
   451    483    484  1      1
   452    451    484  1      1
   453    452    484  1      1
   453    484    485  1      1
   454    453    485  1      1
   454    485    486  1      1
   455    454    486  1      1
   455    486    487  1      1
   456    455    487  1      1
   456    487    488  1      1
   457    456    488  1      1
   457    488    489  1      1
   458    457    489  1      1
   458    489    490  1      1
   459    458    490  1      1
   459    490    491  1      1
   460    459    491  1      1
   460    491    492  1      1
   461    460    492  1      1
   462    461    492  1      1
   462    492    493  1      1
   463    462    493  1      1
   463    493    494  1      1
   464    463    494  1      1
   464    494    495  1      1
   465    464    495  1      1
   465    495    496  1      1
   466    465    496  1      1
   466    496    497  1      1
   467    466    497  1      1
   467    497    498  1      1
   468    467    498  1      1
   468    498    499  1      1
   469    468    499  1      1
   470    469    499  1      1
   470    499    500  1      1
   471    470    500  1      1
   471    500    501  1      1
   472    471    501  1      1
   472    501    502  1      1
   473    472    502  1      1
   473    502    503  1      1
   474    473    503  1      1
   474    503    504  1      1
   475    474    504  1      1
   475    504    505  1      1
   476    475    505  1      1
   477    476    505  1      1
   444    476    477  1      1
   478    477    506  1      1
   478    506    507  1      1
   479    478    507  1      1
   479    507    508  1      1
   480    479    508  1      1
   480    508    509  1      1
   481    480    509  1      1
   481    509    510  1      1
   482    481    510  1      1
   482    510    511  1      1
   483    482    511  1      1
   484    483    511  1      1
   484    511    512  1      1
   485    484    512  1      1
   485    512    513  1      1
   486    485    513  1      1
   486    513    514  1      1
   487    486    514  1      1
   487    514    515  1      1
   488    487    515  1      1
   488    515    516  1      1
   489    488    516  1      1
   490    489    516  1      1
   490    516    517  1      1
   491    490    517  1      1
   491    517    518  1      1
   492    491    518  1      1
   492    518    519  1      1
   493    492    519  1      1
   493    519    520  1      1
   494    493    520  1      1
   495    494    520  1      1
   495    520    521  1      1
   496    495    521  1      1
   496    521    522  1      1
   497    496    522  1      1
   497    522    523  1      1
   498    497    523  1      1
   498    523    524  1      1
   499    498    524  1      1
   499    524    525  1      1
   500    499    525  1      1
   501    500    525  1      1
   501    525    526  1      1
   502    501    526  1      1
   502    526    527  1      1
   503    502    527  1      1
   503    527    528  1      1
   504    503    528  1      1
   504    528    529  1      1
   505    504    529  1      1
   506    505    529  1      1
   477    505    506  1      1
   507    506    530  1      1
   507    530    531  1      1
   508    507    531  1      1
   508    531    532  1      1
   509    508    532  1      1
   509    532    533  1      1
   510    509    533  1      1
   511    510    533  1      1
   511    533    534  1      1
   512    511    534  1      1
   512    534    535  1      1
   513    512    535  1      1
   513    535    536  1      1
   514    513    536  1      1
   515    514    536  1      1
   515    536    537  1      1
   516    515    537  1      1
   516    537    538  1      1
   517    516    538  1      1
   517    538    539  1      1
   518    517    539  1      1
   519    518    539  1      1
   519    539    540  1      1
   520    519    540  1      1
   520    540    541  1      1
   521    520    541  1      1
   521    541    542  1      1
   522    521    542  1      1
   523    522    542  1      1
   523    542    543  1      1
   524    523    543  1      1
   524    543    544  1      1
   525    524    544  1      1
   525    544    545  1      1
   526    525    545  1      1
   527    526    545  1      1
   527    545    546  1      1
   528    527    546  1      1
   528    546    547  1      1
   529    528    547  1      1
   530    529    547  1      1
   506    529    530  1      1
   531    530    548  1      1
   531    548    549  1      1
   532    531    549  1      1
   532    549    550  1      1
   533    532    550  1      1
   534    533    550  1      1
   534    550    551  1      1
   535    534    551  1      1
   535    551    552  1      1
   536    535    552  1      1
   537    536    552  1      1
   537    552    553  1      1
   538    537    553  1      1
   538    553    554  1      1
   539    538    554  1      1
   540    539    554  1      1
   540    554    555  1      1
   541    540    555  1      1
   541    555    556  1      1
   542    541    556  1      1
   543    542    556  1      1
   543    556    557  1      1
   544    543    557  1      1
   544    557    558  1      1
   545    544    558  1      1
   546    545    558  1      1
   546    558    559  1      1
   547    546    559  1      1
   548    547    559  1      1
   530    547    548  1      1
   549    548    560  1      1
   549    560    561  1      1
   550    549    561  1      1
   551    550    561  1      1
   551    561    562  1      1
   552    551    562  1      1
   553    552    562  1      1
   553    562    563  1      1
   554    553    563  1      1
   555    554    563  1      1
   555    563    564  1      1
   556    555    564  1      1
   557    556    564  1      1
   557    564    565  1      1
   558    557    565  1      1
   559    558    565  1      1
   560    559    565  1      1
   548    559    560  1      1
   561    560    566  1      1
   562    561    566  1      1
   563    562    566  1      1
   564    563    566  1      1
   565    564    566  1      1
   560    565    566  1      1
