$MeshFormat
4.1 0 8
$EndMeshFormat
$PhysicalNames
4
2 1 "SES"
2 2 "Stern Surface"
3 1 "Solute"
3 2 "Stern"
$EndPhysicalNames
$Entities
0 0 2 2
1 -3 -2.904000043869019 -2.941999912261963 3 2.953999996185303 2.941999912261963 1 1 0 
2 -3.5 -3.460999965667725 -3.490000009536743 3.5 3.5 3.490000009536743 1 2 0 
1 -3 -2.904000043869019 -2.941999912261963 3 2.953999996185303 2.941999912261963 1 1 1 1 
2 -3.5 -3.460999965667725 -3.490000009536743 3.5 3.5 3.490000009536743 1 2 2 2 -1 
$EndEntities
$Nodes
4 248 1 248
2 1 0 100
1
2
3
4
5
6
7
8
9
10
11
12
13
14
15
16
17
18
19
20
21
22
23
24
25
26
27
28
29
30
31
32
33
34
35
36
37
38
39
40
41
42
43
44
45
46
47
48
49
50
51
52
53
54
55
56
57
58
59
60
61
62
63
64
65
66
67
68
69
70
71
72
73
74
75
76
77
78
79
80
81
82
83
84
85
86
87
88
89
90
91
92
93
94
95
96
97
98
99
100
3 0 0
2.819000005722046 1.026000022888184 0
2.819000005722046 0.5130000114440918 0.8889999985694885
2.819000005722046 -0.5130000114440918 0.8889999985694885
2.819000005722046 -1.026000022888184 -0
2.819000005722046 -0.5130000114440918 -0.8889999985694885
2.819000005722046 0.5130000114440918 -0.8889999985694885
2.29800009727478 1.621999979019165 1.042999982833862
2.29800009727478 0.8009999990463257 1.753999948501587
2.29800009727478 -0.2739999890327454 1.909000039100647
2.29800009727478 -1.263000011444092 1.457000017166138
2.29800009727478 -1.850000023841858 0.5429999828338623
2.29800009727478 -1.850000023841858 -0.5429999828338623
2.29800009727478 -1.263000011444092 -1.457000017166138
2.29800009727478 -0.2739999890327454 -1.909000039100647
2.29800009727478 0.8009999990463257 -1.753999948501587
2.29800009727478 1.621999979019165 -1.042999982833862
2.29800009727478 1.927999973297119 0
1.5 2.372999906539917 1.057000041007996
1.5 1.73800003528595 1.930999994277954
1.5 0.8029999732971191 2.470999956130981
1.5 -0.2720000147819519 2.584000110626221
1.5 -1.299000024795532 2.25
1.5 -2.101999998092651 1.526999950408936
1.5 -2.540999889373779 0.5400000214576721
1.5 -2.540999889373779 -0.5400000214576721
1.5 -2.101999998092651 -1.526999950408936
1.5 -1.299000024795532 -2.25
1.5 -0.2720000147819519 -2.584000110626221
1.5 0.8029999732971191 -2.470999956130981
1.5 1.73800003528595 -1.930999994277954
1.5 2.372999906539917 -1.057000041007996
1.5 2.598000049591064 0
0.5210000276565552 2.755000114440918 1.067000031471252
0.5210000276565552 2.183000087738037 1.990000009536743
0.5210000276565552 1.317000031471252 2.644999980926514
0.5210000276565552 0.2730000019073486 2.941999912261963
0.5210000276565552 -0.8090000152587891 2.842000007629395
0.5210000276565552 -1.779999971389771 2.358000040054321
0.5210000276565552 -2.51200008392334 1.554999947547913
0.5210000276565552 -2.904000043869019 0.5429999828338623
0.5210000276565552 -2.904000043869019 -0.5429999828338623
0.5210000276565552 -2.51200008392334 -1.554999947547913
0.5210000276565552 -1.779999971389771 -2.358000040054321
0.5210000276565552 -0.8090000152587891 -2.842000007629395
0.5210000276565552 0.2730000019073486 -2.941999912261963
0.5210000276565552 1.317000031471252 -2.644999980926514
0.5210000276565552 2.183000087738037 -1.990000009536743
0.5210000276565552 2.755000114440918 -1.067000031471252
0.5210000276565552 2.953999996185303 0
-0.5210000276565552 2.755000114440918 1.067000031471252
-0.5210000276565552 2.183000087738037 1.990000009536743
-0.5210000276565552 1.317000031471252 2.644999980926514
-0.5210000276565552 0.2730000019073486 2.941999912261963
-0.5210000276565552 -0.8090000152587891 2.842000007629395
-0.5210000276565552 -1.779999971389771 2.358000040054321
-0.5210000276565552 -2.51200008392334 1.554999947547913
-0.5210000276565552 -2.904000043869019 0.5429999828338623
-0.5210000276565552 -2.904000043869019 -0.5429999828338623
-0.5210000276565552 -2.51200008392334 -1.554999947547913
-0.5210000276565552 -1.779999971389771 -2.358000040054321
-0.5210000276565552 -0.8090000152587891 -2.842000007629395
-0.5210000276565552 0.2730000019073486 -2.941999912261963
-0.5210000276565552 1.317000031471252 -2.644999980926514
-0.5210000276565552 2.183000087738037 -1.990000009536743
-0.5210000276565552 2.755000114440918 -1.067000031471252
-0.5210000276565552 2.953999996185303 0
-1.5 2.598000049591064 0
-1.5 2.372999906539917 1.057000041007996
-1.5 1.73800003528595 1.930999994277954
-1.5 0.8029999732971191 2.470999956130981
-1.5 -0.2720000147819519 2.584000110626221
-1.5 -1.299000024795532 2.25
-1.5 -2.101999998092651 1.526999950408936
-1.5 -2.540999889373779 0.5400000214576721
-1.5 -2.540999889373779 -0.5400000214576721
-1.5 -2.101999998092651 -1.526999950408936
-1.5 -1.299000024795532 -2.25
-1.5 -0.2720000147819519 -2.584000110626221
-1.5 0.8029999732971191 -2.470999956130981
-1.5 1.73800003528595 -1.930999994277954
-1.5 2.372999906539917 -1.057000041007996
-2.29800009727478 1.927999973297119 0
-2.29800009727478 1.621999979019165 1.042999982833862
-2.29800009727478 0.8009999990463257 1.753999948501587
-2.29800009727478 -0.2739999890327454 1.909000039100647
-2.29800009727478 -1.263000011444092 1.457000017166138
-2.29800009727478 -1.850000023841858 0.5429999828338623
-2.29800009727478 -1.850000023841858 -0.5429999828338623
-2.29800009727478 -1.263000011444092 -1.457000017166138
-2.29800009727478 -0.2739999890327454 -1.909000039100647
-2.29800009727478 0.8009999990463257 -1.753999948501587
-2.29800009727478 1.621999979019165 -1.042999982833862
-2.819000005722046 1.026000022888184 0
-2.819000005722046 0.5130000114440918 0.8889999985694885
-2.819000005722046 -0.5130000114440918 0.8889999985694885
-2.819000005722046 -1.026000022888184 -0
-2.819000005722046 -0.5130000114440918 -0.8889999985694885
-2.819000005722046 0.5130000114440918 -0.8889999985694885
-3 0 0
2 2 0 129
101
102
103
104
105
106
107
108
109
110
111
112
113
114
115
116
117
118
119
120
121
122
123
124
125
126
127
128
129
130
131
132
133
134
135
136
137
138
139
140
141
142
143
144
145
146
147
148
149
150
151
152
153
154
155
156
157
158
159
160
161
162
163
164
165
166
167
168
169
170
171
172
173
174
175
176
177
178
179
180
181
182
183
184
185
186
187
188
189
190
191
192
193
194
195
196
197
198
199
200
201
202
203
204
205
206
207
208
209
210
211
212
213
214
215
216
217
218
219
220
221
222
223
224
225
226
227
228
229
3.5 0 0
3.328999996185303 1.082000017166138 0
3.328999996185303 0.5410000085830688 0.9369999766349792
3.328999996185303 -0.5410000085830688 0.9369999766349792
3.328999996185303 -1.082000017166138 -0
3.328999996185303 -0.5410000085830688 -0.9369999766349792
3.328999996185303 0.5410000085830688 -0.9369999766349792
2.832000017166138 1.781999945640564 1.029000043869019
2.832000017166138 1.029000043869019 1.781999945640564
2.832000017166138 -0 2.056999921798706
2.832000017166138 -1.029000043869019 1.781999945640564
2.832000017166138 -1.781999945640564 1.029000043869019
2.832000017166138 -2.056999921798706 0
2.832000017166138 -1.781999945640564 -1.029000043869019
2.832000017166138 -1.029000043869019 -1.781999945640564
2.832000017166138 -0 -2.056999921798706
2.832000017166138 1.029000043869019 -1.781999945640564
2.832000017166138 1.781999945640564 -1.029000043869019
2.832000017166138 2.056999921798706 0
2.056999921798706 2.615999937057495 1.083999991416931
2.056999921798706 2.002000093460083 2.002000093460083
2.056999921798706 1.083999991416931 2.615999937057495
2.056999921798706 -0 2.832000017166138
2.056999921798706 -1.083999991416931 2.615999937057495
2.056999921798706 -2.002000093460083 2.002000093460083
2.056999921798706 -2.615999937057495 1.083999991416931
2.056999921798706 -2.832000017166138 0
2.056999921798706 -2.615999937057495 -1.083999991416931
2.056999921798706 -2.002000093460083 -2.002000093460083
2.056999921798706 -1.083999991416931 -2.615999937057495
2.056999921798706 0 -2.832000017166138
2.056999921798706 1.083999991416931 -2.615999937057495
2.056999921798706 2.002000093460083 -2.002000093460083
2.056999921798706 2.615999937057495 -1.083999991416931
2.056999921798706 2.832000017166138 0
1.082000017166138 3.148000001907349 1.080999970436096
1.082000017166138 2.627000093460083 2.045000076293945
1.082000017166138 1.820999979972839 2.786999940872192
1.082000017166138 0.8169999718666077 3.226999998092651
1.082000017166138 -0.2750000059604645 3.316999912261963
1.082000017166138 -1.337000012397766 3.04800009727478
1.082000017166138 -2.253999948501587 2.448999881744385
1.082000017166138 -2.927999973297119 1.583999991416931
1.082000017166138 -3.282999992370605 0.5479999780654907
1.082000017166138 -3.282999992370605 -0.5479999780654907
1.082000017166138 -2.927999973297119 -1.583999991416931
1.082000017166138 -2.253999948501587 -2.448999881744385
1.082000017166138 -1.337000012397766 -3.04800009727478
1.082000017166138 -0.2750000059604645 -3.316999912261963
1.082000017166138 0.8169999718666077 -3.226999998092651
1.082000017166138 1.820999979972839 -2.786999940872192
1.082000017166138 2.627000093460083 -2.045000076293945
1.082000017166138 3.148000001907349 -1.080999970436096
1.082000017166138 3.328999996185303 0
-0 3.345000028610229 1.031999945640564
-0 2.891999959945679 1.972000002861023
-0 2.181999921798706 2.736000061035156
-0 1.279000043869019 3.257999897003174
-0 0.2619999945163727 3.490000009536743
-0 -0.7789999842643738 3.411999940872192
-0 -1.75 3.030999898910522
-0 -2.565999984741211 2.38100004196167
-0 -3.153000116348267 1.519000053405762
-0 -3.460999965667725 0.5220000147819519
-0 -3.460999965667725 -0.5220000147819519
-0 -3.153000116348267 -1.519000053405762
-0 -2.565999984741211 -2.38100004196167
-0 -1.75 -3.030999898910522
-0 -0.7789999842643738 -3.411999940872192
-0 0.2619999945163727 -3.490000009536743
-0 1.279000043869019 -3.257999897003174
-0 2.181999921798706 -2.736000061035156
-0 2.891999959945679 -1.972000002861023
-0 3.345000028610229 -1.031999945640564
-0 3.5 0
-1.082000017166138 3.328999996185303 0
-1.082000017166138 3.148000001907349 1.080999970436096
-1.082000017166138 2.627000093460083 2.045000076293945
-1.082000017166138 1.820999979972839 2.786999940872192
-1.082000017166138 0.8169999718666077 3.226999998092651
-1.082000017166138 -0.2750000059604645 3.316999912261963
-1.082000017166138 -1.337000012397766 3.04800009727478
-1.082000017166138 -2.253999948501587 2.448999881744385
-1.082000017166138 -2.927999973297119 1.583999991416931
-1.082000017166138 -3.282999992370605 0.5479999780654907
-1.082000017166138 -3.282999992370605 -0.5479999780654907
-1.082000017166138 -2.927999973297119 -1.583999991416931
-1.082000017166138 -2.253999948501587 -2.448999881744385
-1.082000017166138 -1.337000012397766 -3.04800009727478
-1.082000017166138 -0.2750000059604645 -3.316999912261963
-1.082000017166138 0.8169999718666077 -3.226999998092651
-1.082000017166138 1.820999979972839 -2.786999940872192
-1.082000017166138 2.627000093460083 -2.045000076293945
-1.082000017166138 3.148000001907349 -1.080999970436096
-2.056999921798706 2.832000017166138 0
-2.056999921798706 2.615999937057495 1.083999991416931
-2.056999921798706 2.002000093460083 2.002000093460083
-2.056999921798706 1.083999991416931 2.615999937057495
-2.056999921798706 -0 2.832000017166138
-2.056999921798706 -1.083999991416931 2.615999937057495
-2.056999921798706 -2.002000093460083 2.002000093460083
-2.056999921798706 -2.615999937057495 1.083999991416931
-2.056999921798706 -2.832000017166138 0
-2.056999921798706 -2.615999937057495 -1.083999991416931
-2.056999921798706 -2.002000093460083 -2.002000093460083
-2.056999921798706 -1.083999991416931 -2.615999937057495
-2.056999921798706 0 -2.832000017166138
-2.056999921798706 1.083999991416931 -2.615999937057495
-2.056999921798706 2.002000093460083 -2.002000093460083
-2.056999921798706 2.615999937057495 -1.083999991416931
-2.832000017166138 2.056999921798706 0
-2.832000017166138 1.781999945640564 1.029000043869019
-2.832000017166138 1.029000043869019 1.781999945640564
-2.832000017166138 -0 2.056999921798706
-2.832000017166138 -1.029000043869019 1.781999945640564
-2.832000017166138 -1.781999945640564 1.029000043869019
-2.832000017166138 -2.056999921798706 0
-2.832000017166138 -1.781999945640564 -1.029000043869019
-2.832000017166138 -1.029000043869019 -1.781999945640564
-2.832000017166138 -0 -2.056999921798706
-2.832000017166138 1.029000043869019 -1.781999945640564
-2.832000017166138 1.781999945640564 -1.029000043869019
-3.328999996185303 1.082000017166138 0
-3.328999996185303 0.5410000085830688 0.9369999766349792
-3.328999996185303 -0.5410000085830688 0.9369999766349792
-3.328999996185303 -1.082000017166138 -0
-3.328999996185303 -0.5410000085830688 -0.9369999766349792
-3.328999996185303 0.5410000085830688 -0.9369999766349792
-3.5 -0 0
3 1 0 19
230
231
232
233
234
235
236
237
238
239
240
241
242
243
244
245
246
247
248
-0.08043956839054681 -1.724738572089623 -0.1975965664060765
-0.3100812416439974 -0.7863252227399972 0.8851364262797226
-1.163151605950352 -0.1757466767488034 -1.36857254832653
-1.372152423740898 -0.2408256594767919 0.9531697450721313
0.3720051841770214 0.9473233375358749 1.214275769244566
1.787654317026011 -0.2483096309714354 -0.4074437319706156
-0.2866605064521964 -0.3550298276645834 -0.2610520383524864
0.9860050578101425 -0.1816212423449329 1.260447619133026
1.012676138082838 0.6152181764201925 0.1558693704736723
-0.8793464610356261 0.9194582948890417 1.27489004400168
1.20284885032534 -1.03625402348923 0.2923593736442154
0.2833088194400604 0.9102370743354679 -0.8190658066067402
0.7594108303127537 -0.2203743604409251 -0.9748050854664986
0.002252865332681764 1.790921245171987 0.00123888365881944
-1.003664676752111 0.640466811897149 -0.1509138358383946
-0.2177144311719539 -0.9110736421558331 -1.357024062288573
-1.043299622322174 -1.37834828453412 -0.6773118823088464
-1.723333897418167 -0.4278522246809076 -0.3248735640721447
1.388043772310364 0.8747733806780056 -1.114675427473353
3 2 0 0
$EndNodes
$Elements
4 1475 1 1475
2 1 2 196
1 1 2 3 
2 1 3 4 
3 1 4 5 
4 1 5 6 
5 1 6 7 
6 1 7 2 
7 3 2 8 
8 3 8 9 
9 3 9 10 
10 4 3 10 
11 4 10 11 
12 4 11 12 
13 5 4 12 
14 5 12 13 
15 6 5 13 
16 6 13 14 
17 6 14 15 
18 7 6 15 
19 7 15 16 
20 7 16 17 
21 2 7 17 
22 2 17 18 
23 2 18 8 
24 8 18 19 
25 8 19 20 
26 9 8 20 
27 9 20 21 
28 10 9 21 
29 10 21 22 
30 10 22 23 
31 11 10 23 
32 11 23 24 
33 12 11 24 
34 12 24 25 
35 13 12 25 
36 13 25 26 
37 13 26 27 
38 14 13 27 
39 14 27 28 
40 15 14 28 
41 15 28 29 
42 15 29 30 
43 16 15 30 
44 16 30 31 
45 17 16 31 
46 17 31 32 
47 18 17 32 
48 18 32 33 
49 18 33 19 
50 19 33 34 
51 19 34 35 
52 20 19 35 
53 20 35 36 
54 21 20 36 
55 21 36 37 
56 22 21 37 
57 22 37 38 
58 23 22 38 
59 23 38 39 
60 24 23 39 
61 24 39 40 
62 25 24 40 
63 25 40 41 
64 25 41 42 
65 26 25 42 
66 26 42 43 
67 27 26 43 
68 27 43 44 
69 28 27 44 
70 28 44 45 
71 29 28 45 
72 29 45 46 
73 30 29 46 
74 30 46 47 
75 31 30 47 
76 31 47 48 
77 32 31 48 
78 32 48 49 
79 33 32 49 
80 33 49 50 
81 33 50 34 
82 34 50 51 
83 34 51 52 
84 35 34 52 
85 35 52 53 
86 36 35 53 
87 36 53 54 
88 37 36 54 
89 37 54 55 
90 38 37 55 
91 38 55 56 
92 39 38 56 
93 39 56 57 
94 40 39 57 
95 41 40 57 
96 41 57 58 
97 41 58 59 
98 42 41 59 
99 42 59 60 
100 43 42 60 
101 43 60 61 
102 44 43 61 
103 44 61 62 
104 45 44 62 
105 45 62 63 
106 46 45 63 
107 46 63 64 
108 47 46 64 
109 47 64 65 
110 48 47 65 
111 48 65 66 
112 49 48 66 
113 50 49 66 
114 50 66 67 
115 50 67 51 
116 51 67 68 
117 51 68 69 
118 52 51 69 
119 52 69 70 
120 53 52 70 
121 53 70 71 
122 54 53 71 
123 54 71 72 
124 55 54 72 
125 55 72 73 
126 56 55 73 
127 56 73 74 
128 57 56 74 
129 57 74 75 
130 58 57 75 
131 58 75 76 
132 59 58 76 
133 60 59 76 
134 60 76 77 
135 61 60 77 
136 61 77 78 
137 62 61 78 
138 62 78 79 
139 63 62 79 
140 63 79 80 
141 64 63 80 
142 64 80 81 
143 65 64 81 
144 65 81 82 
145 66 65 82 
146 68 66 82 
147 67 66 68 
148 69 68 83 
149 69 83 84 
150 70 69 84 
151 70 84 85 
152 71 70 85 
153 71 85 86 
154 72 71 86 
155 73 72 86 
156 73 86 87 
157 74 73 87 
158 74 87 88 
159 75 74 88 
160 75 88 89 
161 76 75 89 
162 77 76 89 
163 77 89 90 
164 78 77 90 
165 78 90 91 
166 79 78 91 
167 80 79 91 
168 80 91 92 
169 81 80 92 
170 81 92 93 
171 82 81 93 
172 83 82 93 
173 68 82 83 
174 84 83 94 
175 84 94 95 
176 85 84 95 
177 86 85 95 
178 86 95 96 
179 87 86 96 
180 88 87 96 
181 88 96 97 
182 89 88 97 
183 89 97 98 
184 90 89 98 
185 91 90 98 
186 91 98 99 
187 92 91 99 
188 93 92 99 
189 94 93 99 
190 83 93 94 
191 95 94 100 
192 96 95 100 
193 97 96 100 
194 98 97 100 
195 99 98 100 
196 94 99 100 
2 2 2 254
197 101 102 103 
198 101 103 104 
199 101 104 105 
200 101 105 106 
201 101 106 107 
202 101 107 102 
203 103 102 108 
204 103 108 109 
205 103 109 110 
206 104 103 110 
207 104 110 111 
208 104 111 112 
209 105 104 112 
210 105 112 113 
211 105 113 114 
212 106 105 114 
213 106 114 115 
214 106 115 116 
215 107 106 116 
216 107 116 117 
217 107 117 118 
218 102 107 118 
219 102 118 119 
220 102 119 108 
221 108 119 120 
222 108 120 121 
223 109 108 121 
224 109 121 122 
225 110 109 122 
226 110 122 123 
227 110 123 124 
228 111 110 124 
229 111 124 125 
230 112 111 125 
231 112 125 126 
232 113 112 126 
233 113 126 127 
234 113 127 128 
235 114 113 128 
236 114 128 129 
237 115 114 129 
238 115 129 130 
239 116 115 130 
240 116 130 131 
241 116 131 132 
242 117 116 132 
243 117 132 133 
244 118 117 133 
245 118 133 134 
246 119 118 134 
247 119 134 135 
248 119 135 120 
249 120 135 136 
250 120 136 137 
251 121 120 137 
252 121 137 138 
253 122 121 138 
254 122 138 139 
255 123 122 139 
256 123 139 140 
257 124 123 140 
258 124 140 141 
259 124 141 142 
260 125 124 142 
261 125 142 143 
262 126 125 143 
263 126 143 144 
264 127 126 144 
265 127 144 145 
266 128 127 145 
267 128 145 146 
268 129 128 146 
269 129 146 147 
270 130 129 147 
271 130 147 148 
272 130 148 149 
273 131 130 149 
274 131 149 150 
275 132 131 150 
276 132 150 151 
277 133 132 151 
278 133 151 152 
279 134 133 152 
280 134 152 153 
281 135 134 153 
282 135 153 154 
283 135 154 136 
284 136 154 155 
285 136 155 156 
286 137 136 156 
287 137 156 157 
288 138 137 157 
289 138 157 158 
290 139 138 158 
291 139 158 159 
292 140 139 159 
293 140 159 160 
294 141 140 160 
295 141 160 161 
296 142 141 161 
297 142 161 162 
298 143 142 162 
299 143 162 163 
300 144 143 163 
301 144 163 164 
302 145 144 164 
303 145 164 165 
304 145 165 166 
305 146 145 166 
306 146 166 167 
307 147 146 167 
308 147 167 168 
309 148 147 168 
310 148 168 169 
311 149 148 169 
312 149 169 170 
313 150 149 170 
314 150 170 171 
315 151 150 171 
316 151 171 172 
317 152 151 172 
318 152 172 173 
319 153 152 173 
320 153 173 174 
321 154 153 174 
322 154 174 175 
323 154 175 155 
324 155 175 176 
325 155 176 177 
326 156 155 177 
327 156 177 178 
328 157 156 178 
329 157 178 179 
330 158 157 179 
331 158 179 180 
332 159 158 180 
333 159 180 181 
334 160 159 181 
335 160 181 182 
336 161 160 182 
337 161 182 183 
338 162 161 183 
339 162 183 184 
340 163 162 184 
341 163 184 185 
342 164 163 185 
343 164 185 186 
344 165 164 186 
345 166 165 186 
346 166 186 187 
347 167 166 187 
348 167 187 188 
349 168 167 188 
350 168 188 189 
351 169 168 189 
352 169 189 190 
353 170 169 190 
354 170 190 191 
355 171 170 191 
356 171 191 192 
357 172 171 192 
358 172 192 193 
359 173 172 193 
360 173 193 194 
361 174 173 194 
362 176 174 194 
363 175 174 176 
364 177 176 195 
365 177 195 196 
366 178 177 196 
367 178 196 197 
368 179 178 197 
369 179 197 198 
370 180 179 198 
371 180 198 199 
372 181 180 199 
373 181 199 200 
374 182 181 200 
375 183 182 200 
376 183 200 201 
377 184 183 201 
378 184 201 202 
379 185 184 202 
380 185 202 203 
381 186 185 203 
382 186 203 204 
383 187 186 204 
384 187 204 205 
385 188 187 205 
386 188 205 206 
387 189 188 206 
388 190 189 206 
389 190 206 207 
390 191 190 207 
391 191 207 208 
392 192 191 208 
393 192 208 209 
394 193 192 209 
395 193 209 210 
396 194 193 210 
397 195 194 210 
398 176 194 195 
399 196 195 211 
400 196 211 212 
401 197 196 212 
402 197 212 213 
403 198 197 213 
404 198 213 214 
405 199 198 214 
406 200 199 214 
407 200 214 215 
408 201 200 215 
409 201 215 216 
410 202 201 216 
411 202 216 217 
412 203 202 217 
413 204 203 217 
414 204 217 218 
415 205 204 218 
416 205 218 219 
417 206 205 219 
418 206 219 220 
419 207 206 220 
420 208 207 220 
421 208 220 221 
422 209 208 221 
423 209 221 222 
424 210 209 222 
425 211 210 222 
426 195 210 211 
427 212 211 223 
428 212 223 224 
429 213 212 224 
430 214 213 224 
431 214 224 225 
432 215 214 225 
433 216 215 225 
434 216 225 226 
435 217 216 226 
436 218 217 226 
437 218 226 227 
438 219 218 227 
439 220 219 227 
440 220 227 228 
441 221 220 228 
442 222 221 228 
443 223 222 228 
444 211 222 223 
445 224 223 229 
446 225 224 229 
447 226 225 229 
448 227 226 229 
449 228 227 229 
450 223 228 229 
3 1 4 350
451 230 75 58 57 
452 231 56 74 57 
453 231 39 57 40 
454 232 79 62 78 
455 233 85 86 71 
456 232 91 80 79 
457 234 19 20 8 
458 231 56 73 74 
459 235 2 3 1 
460 236 237 238 234 
461 239 70 84 85 
462 240 14 235 13 
463 241 242 63 46 
464 231 72 73 55 
465 241 63 64 46 
466 39 240 40 231 
467 240 27 14 13 
468 234 243 34 19 
469 234 21 20 36 
470 232 79 78 91 
471 243 241 66 49 
472 234 236 244 238 
473 235 2 238 3 
474 240 39 237 231 
475 230 41 58 59 
476 239 69 243 244 
477 245 63 46 45 
478 241 46 64 47 
479 245 61 60 77 
480 241 63 232 64 
481 23 240 24 39 
482 246 89 247 90 
483 245 43 60 61 
484 234 34 52 35 
485 241 245 242 236 
486 243 68 66 82 
487 245 78 61 77 
488 232 62 245 78 
489 233 96 87 86 
490 232 64 63 80 
491 243 51 68 69 
492 234 52 53 35 
493 241 32 48 49 
494 234 52 239 53 
495 230 59 58 76 
496 234 237 9 21 
497 95 247 96 100 
498 233 85 95 86 
499 235 7 2 1 
500 242 245 63 46 
501 243 67 66 68 
502 237 3 9 10 
503 241 232 63 245 
504 232 99 247 244 
505 238 8 3 2 
506 231 74 75 57 
507 234 21 36 37 
508 234 52 34 51 
509 248 29 30 15 
510 248 242 29 15 
511 241 244 232 236 
512 230 59 246 60 
513 246 78 232 245 
514 241 242 238 236 
515 245 62 63 45 
516 234 53 239 54 
517 241 65 81 82 
518 242 28 245 45 
519 234 237 21 37 
520 239 72 54 71 
521 232 99 244 92 
522 234 20 19 35 
523 246 88 231 233 
524 241 238 244 236 
525 248 30 242 46 
526 239 233 85 95 
527 242 14 27 28 
528 234 53 54 36 
529 241 64 65 47 
530 230 58 75 76 
531 242 28 29 15 
532 240 231 230 40 
533 239 233 231 54 
534 243 238 248 33 
535 246 75 89 76 
536 231 55 73 56 
537 241 65 64 81 
538 230 246 245 60 
539 39 240 24 40 
540 232 91 99 92 
541 25 230 41 40 
542 232 80 91 92 
543 232 63 245 62 
544 239 233 72 71 
545 246 247 232 90 
546 246 89 90 77 
547 241 46 248 242 
548 232 81 80 92 
549 234 36 54 37 
550 230 42 59 60 
551 245 78 62 61 
552 248 238 2 18 
553 233 95 96 86 
554 232 244 81 92 
555 231 55 56 38 
556 243 66 241 82 
557 234 239 52 51 
558 243 51 67 68 
559 233 73 72 86 
560 232 91 78 90 
561 230 43 42 60 
562 234 36 20 35 
563 241 81 232 244 
564 245 61 62 44 
565 233 86 72 71 
566 230 75 246 76 
567 25 230 40 240 
568 248 7 16 17 
569 231 73 233 74 
570 241 232 81 64 
571 232 79 63 62 
572 243 238 33 19 
573 230 236 242 245 
574 241 32 248 48 
575 14 240 235 242 
576 233 87 96 88 
577 237 235 3 4 
578 238 33 19 18 
579 234 236 239 244 
580 239 51 243 69 
581 23 240 39 237 
582 240 26 27 13 
583 247 91 98 99 
584 248 15 235 242 
585 230 245 242 27 
586 230 231 246 75 
587 233 74 73 87 
588 247 244 99 94 
589 240 230 242 27 
590 234 34 35 19 
591 241 248 46 47 
592 242 28 45 29 
593 243 241 49 32 
594 233 87 73 86 
595 248 2 17 18 
596 240 26 230 27 
597 238 8 2 18 
598 231 233 88 74 
599 248 7 235 16 
600 245 28 44 45 
601 245 43 61 44 
602 247 99 100 94 
603 245 44 62 45 
604 247 244 94 95 
605 230 231 75 57 
606 235 15 16 7 
607 246 88 89 75 
608 230 246 59 76 
609 239 54 53 71 
610 54 231 234 37 
611 231 54 233 72 
612 242 14 28 15 
613 248 235 15 16 
614 235 14 242 15 
615 236 237 234 231 
616 248 30 46 47 
617 235 3 4 1 
618 234 243 239 51 
619 241 63 242 245 
620 14 240 242 27 
621 231 56 39 38 
622 240 238 237 235 
623 230 41 57 58 
624 231 57 39 56 
625 237 11 4 10 
626 234 35 53 36 
627 245 27 43 44 
628 247 94 100 95 
629 234 9 237 238 
630 231 54 72 55 
631 243 33 34 19 
632 234 238 243 19 
633 243 49 33 32 
634 240 238 235 242 
635 234 239 231 54 
636 237 3 238 9 
637 243 241 244 82 
638 239 84 70 69 
639 232 247 91 90 
640 243 68 244 69 
641 246 90 232 78 
642 232 81 64 80 
643 246 231 88 75 
644 230 245 43 60 
645 238 19 8 18 
646 241 232 245 236 
647 239 69 70 52 
648 240 236 237 238 
649 233 87 88 74 
650 230 57 41 40 
651 246 76 89 77 
652 240 236 238 242 
653 232 91 247 99 
654 231 88 75 74 
655 246 90 78 77 
656 230 43 245 27 
657 242 45 46 29 
658 247 90 98 91 
659 237 3 235 238 
660 247 99 98 100 
661 244 99 93 92 
662 239 72 233 54 
663 247 233 244 95 
664 244 92 93 81 
665 234 20 9 8 
666 38 55 37 231 
667 37 231 237 38 
668 240 24 40 25 
669 234 243 238 244 
670 234 239 243 244 
671 240 11 237 23 
672 248 32 33 18 
673 239 85 84 95 
674 242 46 30 29 
675 236 239 233 231 
676 238 8 9 3 
677 243 244 68 82 
678 243 238 241 248 
679 237 4 3 10 
680 239 244 84 69 
681 239 52 51 69 
682 233 88 96 97 
683 231 234 37 237 
684 240 24 11 23 
685 95 239 244 84 
686 240 5 235 4 
687 244 95 84 94 
688 248 2 235 7 
689 234 238 19 8 
690 240 25 13 12 
691 246 78 245 77 
692 243 49 50 33 
693 234 239 236 231 
694 248 33 238 18 
695 230 26 43 27 
696 246 247 88 233 
697 233 246 236 231 
698 240 5 4 12 
699 244 94 93 99 
700 248 29 242 30 
701 248 2 7 17 
702 243 248 32 33 
703 235 14 15 6 
704 241 81 244 82 
705 240 25 230 26 
706 240 13 5 12 
707 244 81 93 82 
708 242 45 245 46 
709 246 88 247 89 
710 231 72 233 73 
711 242 27 245 28 
712 234 9 238 8 
713 230 231 57 40 
714 244 84 69 83 
715 240 13 25 26 
716 240 13 235 5 
717 245 27 44 28 
718 244 84 83 94 
719 244 93 94 83 
720 234 9 20 21 
721 244 93 83 82 
722 244 69 68 83 
723 244 68 82 83 
724 95 247 233 96 
725 247 233 96 97 
726 247 96 100 97 
727 247 233 97 88 
728 247 97 89 88 
729 247 89 98 90 
730 247 236 244 233 
731 247 100 98 97 
732 247 98 89 97 
733 232 80 63 79 
734 230 42 43 26 
735 232 244 247 236 
736 246 77 245 60 
737 246 77 60 76 
738 240 231 237 236 
739 246 60 59 76 
740 233 246 247 236 
741 246 232 247 236 
742 246 245 232 236 
743 230 41 59 42 
744 230 41 42 25 
745 230 26 25 42 
746 230 245 246 236 
747 230 236 246 231 
748 240 230 231 236 
749 240 242 230 236 
750 240 24 25 12 
751 235 4 5 1 
752 235 6 7 1 
753 248 238 235 2 
754 235 15 7 6 
755 235 6 13 14 
756 240 237 11 4 
757 235 5 6 1 
758 235 6 5 13 
759 237 38 231 39 
760 237 38 39 23 
761 237 38 22 37 
762 237 37 22 21 
763 237 9 21 10 
764 237 23 11 10 
765 237 23 22 38 
766 237 21 22 10 
767 237 22 23 10 
768 241 248 238 242 
769 248 47 31 30 
770 248 30 16 15 
771 248 242 235 238 
772 248 17 32 18 
773 55 37 231 54 
774 248 48 32 31 
775 248 47 48 31 
776 248 31 16 30 
777 248 17 31 32 
778 248 17 16 31 
779 243 248 241 32 
780 241 66 65 82 
781 241 66 49 48 
782 241 48 248 47 
783 241 65 48 47 
784 241 65 66 48 
785 243 66 50 49 
786 243 33 50 34 
787 243 244 241 238 
788 234 34 243 51 
789 243 67 50 66 
790 243 51 50 67 
791 243 34 50 51 
792 239 85 233 71 
793 239 70 85 71 
794 95 239 233 244 
795 236 239 244 233 
796 239 71 53 70 
797 239 70 53 52 
798 240 235 237 4 
799 240 11 24 12 
800 240 4 11 12 
3 2 4 675
801 7 15 116 6 
802 66 173 193 194 
803 133 151 31 152 
804 179 52 70 178 
805 89 217 88 97 
806 58 185 184 75 
807 58 75 184 57 
808 103 3 2 1 
809 200 73 87 86 
810 64 65 192 81 
811 202 87 88 216 
812 58 184 185 163 
813 157 52 156 35 
814 16 117 116 132 
815 131 15 130 116 
816 9 3 110 10 
817 64 81 192 80 
818 16 133 31 17 
819 69 196 197 178 
820 59 187 186 76 
821 127 113 13 12 
822 222 94 211 223 
823 130 14 15 28 
824 155 50 51 67 
825 101 106 105 1 
826 43 147 27 146 
827 67 176 68 177 
828 16 116 117 7 
829 212 213 224 95 
830 43 167 146 166 
831 7 116 107 6 
832 51 177 69 178 
833 202 201 87 216 
834 214 224 213 95 
835 135 120 33 18 
836 67 176 175 174 
837 75 203 186 185 
838 20 21 9 122 
839 51 69 52 178 
840 5 113 114 105 
841 21 122 138 139 
842 58 57 184 163 
843 161 39 56 38 
844 140 160 159 37 
845 108 3 8 2 
846 72 200 199 86 
847 120 8 19 18 
848 16 15 131 116 
849 133 117 118 17 
850 163 57 41 58 
851 188 205 187 77 
852 161 160 38 55 
853 184 74 202 201 
854 108 120 18 8 
855 114 14 13 6 
856 207 220 91 92 
857 130 115 14 129 
858 131 150 30 132 
859 98 228 227 100 
860 66 174 50 49 
861 145 164 41 165 
862 69 178 177 196 
863 226 217 218 97 
864 130 15 14 115 
865 5 6 114 13 
866 98 218 219 90 
867 222 228 94 223 
868 54 37 36 158 
869 21 139 123 122 
870 156 34 51 155 
871 202 216 88 217 
872 142 124 23 141 
873 50 175 155 154 
874 161 38 56 55 
875 33 153 32 49 
876 72 199 200 181 
877 102 107 101 1 
878 140 38 160 37 
879 142 39 40 162 
880 222 211 94 83 
881 179 198 70 71 
882 98 91 219 220 
883 143 162 142 40 
884 124 111 10 110 
885 115 106 116 6 
886 109 9 8 3 
887 125 11 24 23 
888 184 57 75 74 
889 73 183 56 182 
890 4 11 111 10 
891 64 172 47 171 
892 22 124 140 141 
893 179 52 157 53 
894 137 19 20 35 
895 73 74 183 201 
896 124 111 11 10 
897 36 21 138 139 
898 50 136 155 34 
899 227 229 100 228 
900 131 149 130 29 
901 64 192 172 171 
902 206 207 91 79 
903 16 116 7 15 
904 221 99 220 92 
905 93 99 221 92 
906 202 217 88 203 
907 58 75 76 186 
908 48 65 66 173 
909 222 210 211 83 
910 100 94 228 223 
911 68 210 194 82 
912 66 193 65 82 
913 207 191 79 190 
914 98 90 89 218 
915 46 169 149 45 
916 179 53 180 71 
917 156 155 51 177 
918 212 211 196 83 
919 68 196 69 177 
920 96 225 214 95 
921 212 94 84 95 
922 213 84 197 85 
923 200 73 183 201 
924 213 95 84 85 
925 62 169 168 189 
926 98 218 227 219 
927 87 201 215 216 
928 206 91 78 79 
929 134 119 135 18 
930 69 196 84 197 
931 63 170 190 191 
932 131 29 30 150 
933 114 115 14 6 
934 133 152 31 32 
935 133 17 134 32 
936 46 45 149 29 
937 72 200 182 181 
938 143 40 24 25 
939 4 111 104 110 
940 143 41 144 163 
941 104 3 103 1 
942 89 76 75 203 
943 107 6 106 1 
944 17 2 118 18 
945 134 32 33 153 
946 134 135 33 18 
947 109 9 110 122 
948 107 6 116 106 
949 9 110 123 10 
950 102 101 103 1 
951 157 36 53 35 
952 130 29 148 28 
953 207 208 80 191 
954 100 228 229 223 
955 161 56 182 55 
956 22 140 37 38 
957 108 120 119 18 
958 124 11 23 10 
959 161 56 162 183 
960 70 69 197 178 
961 206 91 207 220 
962 100 94 223 224 
963 100 99 228 94 
964 58 163 164 41 
965 70 85 198 197 
966 64 171 63 191 
967 67 194 176 174 
968 117 17 7 118 
969 134 17 118 18 
970 211 210 195 83 
971 148 45 28 29 
972 63 169 62 190 
973 147 148 44 28 
974 142 40 39 24 
975 115 6 116 15 
976 70 198 85 71 
977 126 24 11 12 
978 199 85 214 198 
979 156 51 178 177 
980 117 107 7 116 
981 46 149 150 29 
982 63 46 169 170 
983 136 154 135 33 
984 50 154 136 33 
985 142 24 39 23 
986 127 126 113 12 
987 125 112 11 111 
988 22 123 140 124 
989 102 2 107 1 
990 140 160 38 141 
991 121 120 8 19 
992 50 33 136 34 
993 50 175 67 155 
994 66 173 194 174 
995 48 31 152 32 
996 134 33 32 18 
997 108 119 102 2 
998 119 18 118 2 
999 39 40 162 57 
1000 9 122 123 110 
1001 22 139 21 37 
1002 160 37 38 55 
1003 143 25 41 40 
1004 199 86 85 71 
1005 39 162 56 57 
1006 200 215 214 86 
1007 22 123 21 139 
1008 161 141 39 38 
1009 161 56 39 162 
1010 22 123 124 10 
1011 63 46 170 171 
1012 206 190 207 79 
1013 146 145 26 42 
1014 166 187 59 60 
1015 167 166 60 187 
1016 43 167 166 60 
1017 27 129 14 128 
1018 60 187 76 77 
1019 72 73 200 86 
1020 81 208 80 92 
1021 179 52 53 70 
1022 214 85 213 198 
1023 75 186 203 76 
1024 57 163 41 40 
1025 72 199 180 71 
1026 204 205 90 77 
1027 73 74 56 183 
1028 93 222 94 83 
1029 212 84 94 83 
1030 58 164 186 165 
1031 226 100 225 97 
1032 204 90 205 218 
1033 212 94 95 224 
1034 72 180 199 181 
1035 184 183 57 74 
1036 162 163 57 40 
1037 143 142 24 40 
1038 125 11 124 111 
1039 184 57 162 163 
1040 200 87 73 201 
1041 214 95 85 86 
1042 96 216 215 225 
1043 100 224 229 225 
1044 100 95 224 225 
1045 214 224 95 225 
1046 5 13 113 12 
1047 126 11 112 12 
1048 22 124 141 23 
1049 127 145 26 128 
1050 89 88 217 203 
1051 89 218 217 97 
1052 188 187 60 77 
1053 206 90 78 91 
1054 226 216 217 97 
1055 227 229 226 100 
1056 202 87 201 74 
1057 72 54 181 55 
1058 96 216 88 87 
1059 212 94 211 83 
1060 212 223 94 224 
1061 140 159 139 37 
1062 50 174 175 154 
1063 214 95 213 85 
1064 152 173 49 153 
1065 136 34 33 19 
1066 136 19 33 120 
1067 108 103 3 2 
1068 50 174 67 175 
1069 157 178 156 52 
1070 48 152 49 32 
1071 206 219 90 91 
1072 89 217 204 203 
1073 226 216 97 225 
1074 93 210 209 222 
1075 64 46 63 171 
1076 206 219 205 90 
1077 93 94 222 99 
1078 98 228 100 99 
1079 93 209 81 92 
1080 50 174 154 153 
1081 221 99 222 228 
1082 98 90 219 91 
1083 222 94 228 99 
1084 93 221 209 92 
1085 100 223 229 224 
1086 127 25 126 12 
1087 143 25 144 41 
1088 127 128 13 113 
1089 4 5 112 12 
1090 96 88 216 97 
1091 75 202 88 203 
1092 96 215 214 225 
1093 98 220 228 99 
1094 58 59 41 165 
1095 202 88 87 74 
1096 62 45 44 168 
1097 147 44 148 168 
1098 27 147 44 28 
1099 148 44 28 45 
1100 148 168 44 45 
1101 4 111 110 10 
1102 104 103 3 110 
1103 20 36 138 35 
1104 126 112 113 12 
1105 126 25 24 12 
1106 143 41 163 40 
1107 193 172 173 65 
1108 212 197 84 196 
1109 64 47 46 171 
1110 200 183 73 182 
1111 96 86 214 215 
1112 54 36 53 158 
1113 192 172 193 65 
1114 46 47 30 150 
1115 63 46 45 169 
1116 125 112 126 11 
1117 114 128 14 129 
1118 127 25 144 126 
1119 58 76 59 186 
1120 4 112 11 12 
1121 109 8 108 3 
1122 119 120 135 18 
1123 109 3 103 110 
1124 102 103 2 1 
1125 102 2 119 118 
1126 56 74 57 183 
1127 56 57 162 183 
1128 96 215 87 86 
1129 88 217 216 97 
1130 58 164 163 185 
1131 89 204 76 203 
1132 130 147 129 28 
1133 130 129 14 28 
1134 9 122 21 123 
1135 4 112 104 111 
1136 4 110 3 10 
1137 109 9 3 110 
1138 166 42 59 165 
1139 188 78 61 189 
1140 43 167 44 147 
1141 188 61 78 77 
1142 204 187 205 77 
1143 43 146 167 147 
1144 43 27 147 44 
1145 167 168 61 44 
1146 166 145 42 165 
1147 166 186 59 187 
1148 54 37 160 55 
1149 212 211 94 223 
1150 54 158 159 37 
1151 107 106 101 1 
1152 137 138 20 121 
1153 117 7 107 118 
1154 108 2 102 103 
1155 227 226 218 97 
1156 226 225 100 229 
1157 98 219 227 220 
1158 58 186 59 165 
1159 204 203 186 76 
1160 59 60 187 76 
1161 166 59 186 165 
1162 137 35 34 19 
1163 22 124 23 10 
1164 157 137 138 35 
1165 179 70 53 71 
1166 43 61 167 60 
1167 108 121 120 8 
1168 91 220 99 92 
1169 192 209 81 193 
1170 207 91 80 92 
1171 62 169 45 168 
1172 66 65 193 173 
1173 63 169 190 170 
1174 63 170 191 171 
1175 93 209 210 82 
1176 62 44 61 168 
1177 48 173 66 49 
1178 200 87 215 86 
1179 69 84 196 83 
1180 156 155 136 34 
1181 68 194 210 195 
1182 50 155 136 154 
1183 143 126 144 25 
1184 144 164 163 41 
1185 123 110 124 10 
1186 114 106 115 6 
1187 4 110 104 3 
1188 14 6 115 15 
1189 130 15 29 28 
1190 114 14 115 129 
1191 130 29 149 148 
1192 134 32 17 18 
1193 33 120 19 18 
1194 50 155 51 34 
1195 67 155 175 176 
1196 156 178 51 52 
1197 72 180 54 71 
1198 179 157 52 178 
1199 70 197 84 85 
1200 70 52 69 178 
1201 54 159 160 37 
1202 212 84 213 95 
1203 213 197 198 85 
1204 212 197 213 84 
1205 181 55 160 182 
1206 199 85 198 71 
1207 67 155 176 177 
1208 68 196 177 195 
1209 174 66 50 67 
1210 161 182 56 183 
1211 142 124 125 23 
1212 22 140 123 139 
1213 72 73 55 182 
1214 207 80 79 191 
1215 221 99 228 220 
1216 206 78 188 189 
1217 206 219 91 220 
1218 81 209 208 92 
1219 67 68 176 194 
1220 64 192 171 191 
1221 63 45 62 169 
1222 193 194 210 82 
1223 199 214 85 86 
1224 72 182 200 73 
1225 200 214 199 86 
1226 130 15 115 116 
1227 149 45 148 29 
1228 169 148 149 45 
1229 137 20 138 35 
1230 135 33 154 153 
1231 134 33 135 153 
1232 136 33 135 120 
1233 46 149 169 170 
1234 131 150 149 29 
1235 169 168 148 45 
1236 5 13 114 113 
1237 5 112 113 105 
1238 5 113 112 12 
1239 114 128 13 14 
1240 114 113 13 128 
1241 127 25 13 26 
1242 27 14 13 128 
1243 137 120 121 19 
1244 22 140 139 37 
1245 9 123 21 10 
1246 4 11 112 111 
1247 108 18 119 2 
1248 20 138 21 122 
1249 211 196 83 195 
1250 212 196 84 83 
1251 204 76 186 187 
1252 204 76 187 77 
1253 227 100 226 97 
1254 188 61 167 168 
1255 93 222 221 99 
1256 221 208 92 220 
1257 192 80 81 208 
1258 209 193 210 82 
1259 184 183 162 57 
1260 184 183 74 201 
1261 104 101 105 1 
1262 104 103 101 1 
1263 73 201 87 74 
1264 200 215 87 201 
1265 73 182 56 55 
1266 70 197 69 84 
1267 109 9 121 8 
1268 108 18 2 8 
1269 20 138 36 21 
1270 20 9 121 122 
1271 72 181 54 180 
1272 179 180 53 158 
1273 179 197 70 198 
1274 102 107 2 118 
1275 109 121 108 8 
1276 134 118 119 18 
1277 20 121 9 8 
1278 96 95 214 86 
1279 100 224 95 94 
1280 96 216 87 215 
1281 46 30 29 150 
1282 137 34 156 136 
1283 36 37 21 139 
1284 158 139 159 37 
1285 179 180 198 71 
1286 157 36 35 138 
1287 207 208 220 92 
1288 207 80 208 92 
1289 192 80 208 191 
1290 207 80 91 79 
1291 16 116 131 132 
1292 125 11 126 24 
1293 144 25 145 41 
1294 192 193 81 65 
1295 47 172 151 171 
1296 30 150 47 151 
1297 133 31 151 132 
1298 47 150 171 151 
1299 16 117 133 17 
1300 48 152 173 49 
1301 143 24 125 126 
1302 125 124 11 23 
1303 161 160 141 38 
1304 161 182 160 55 
1305 39 23 38 141 
1306 72 55 181 182 
1307 36 138 158 139 
1308 36 139 158 37 
1309 20 121 138 122 
1310 179 53 157 158 
1311 166 59 42 60 
1312 42 41 145 25 
1313 42 145 41 165 
1314 89 75 88 203 
1315 27 13 26 128 
1316 59 42 41 165 
1317 142 39 161 141 
1318 173 153 174 49 
1319 66 49 173 174 
1320 152 49 32 153 
1321 78 205 77 90 
1322 206 205 78 90 
1323 206 190 79 189 
1324 188 60 61 77 
1325 188 78 205 77 
1326 209 221 208 92 
1327 62 168 61 189 
1328 62 78 79 189 
1329 62 61 78 189 
1330 62 190 169 189 
1331 62 79 190 189 
1332 93 222 209 221 
1333 219 218 205 90 
1334 206 79 78 189 
1335 98 220 227 228 
1336 26 42 145 25 
1337 127 128 26 13 
1338 25 127 13 12 
1339 127 26 145 25 
1340 167 44 147 168 
1341 188 60 167 61 
1342 68 83 69 196 
1343 68 83 196 195 
1344 68 210 82 83 
1345 68 195 210 83 
1346 68 69 51 177 
1347 67 51 155 177 
1348 67 68 51 177 
1349 7 107 118 2 
1350 7 118 17 2 
1351 7 107 2 1 
1352 7 6 107 1 
1353 75 88 202 74 
1354 75 185 202 203 
1355 184 202 75 185 
1356 184 74 75 202 
1357 152 32 134 153 
1358 16 133 117 132 
1359 133 31 17 32 
1360 146 26 145 128 
1361 188 167 60 187 
1362 188 189 61 168 
1363 146 42 166 145 
1364 130 148 147 28 
1365 176 68 177 195 
1366 176 194 68 195 
1367 89 204 90 77 
1368 89 76 204 77 
1369 89 218 204 217 
1370 98 99 91 220 
1371 89 90 204 218 
1372 16 30 131 15 
1373 133 118 134 17 
1374 5 106 114 6 
1375 5 114 106 105 
1376 5 105 104 112 
1377 5 106 6 1 
1378 5 105 106 1 
1379 5 1 104 105 
1380 137 156 34 35 
1381 137 136 120 19 
1382 109 108 103 3 
1383 206 205 188 78 
1384 98 218 89 97 
1385 98 100 227 97 
1386 98 97 227 218 
1387 20 19 121 8 
1388 137 34 136 19 
1389 137 121 20 19 
1390 142 23 39 141 
1391 143 24 142 125 
1392 142 161 39 162 
1393 143 24 126 25 
1394 192 81 209 208 
1395 81 193 209 82 
1396 81 193 82 65 
1397 109 122 121 9 
1398 30 150 151 132 
1399 16 131 30 132 
1400 131 130 15 29 
1401 131 15 30 29 
1402 157 158 53 36 
1403 157 53 52 35 
1404 199 198 180 71 
1405 4 112 5 104 
1406 4 104 5 1 
1407 4 3 104 1 
1408 145 164 144 41 
1409 142 125 24 23 
1410 127 144 25 145 
1411 96 97 216 225 
1412 96 95 100 225 
1413 96 225 100 97 
1414 16 31 133 132 
1415 31 30 47 151 
1416 133 134 152 32 
1417 31 30 151 132 
1418 54 160 181 55 
1419 54 181 160 159 
1420 54 158 53 180 
1421 54 159 158 180 
1422 54 180 53 71 
1423 54 159 180 181 
1424 157 158 36 138 
1425 46 47 150 171 
1426 46 150 170 171 
1427 46 150 149 170 
1428 143 163 162 40 
1429 63 190 62 79 
1430 63 190 79 191 
1431 63 79 80 191 
1432 157 156 137 35 
1433 27 26 146 128 
1434 27 128 146 129 
1435 43 44 167 61 
1436 27 129 146 147 
1437 27 129 147 28 
1438 27 14 129 28 
1439 16 30 31 132 
1440 16 7 117 17 
1441 93 81 209 82 
1442 93 210 222 83 
1443 93 210 83 82 
1444 66 194 193 82 
1445 66 68 67 194 
1446 66 194 67 174 
1447 43 146 27 26 
1448 43 42 146 26 
1449 43 166 146 42 
1450 43 166 42 60 
1451 66 68 194 82 
1452 48 152 151 172 
1453 48 151 47 172 
1454 48 173 152 172 
1455 48 173 172 65 
1456 48 31 47 151 
1457 48 152 31 151 
1458 48 172 47 65 
1459 64 192 65 172 
1460 64 65 47 172 
1461 64 63 80 191 
1462 64 80 192 191 
1463 22 141 140 38 
1464 22 141 38 23 
1465 22 21 123 10 
1466 72 199 71 86 
1467 50 49 174 153 
1468 50 154 33 153 
1469 50 153 33 49 
1470 58 41 164 165 
1471 58 186 164 185 
1472 58 75 186 185 
1473 179 70 197 178 
1474 52 34 156 35 
1475 34 156 51 52 
$EndElements
