1964 1796 1966
1966 1796 1798
1796 1626 1798
1798 1626 1628
3189 1628 1626
3191 1628 3189
3190 2124 2126
3188 2124 3190
2124 1962 2126
2126 1962 1964
1962 1794 1964
1964 1794 1796
1794 1624 1796
1796 1624 1626
3187 1626 1624
3189 1626 3187
1531 4 1607
1607 1433 1431
1607 1431 2
1531 1607 2
1263 1431 1433
1263 1433 1265
1099 1263 1265
1099 1265 1101
1099 3 1
1101 3 1099
1359 2 1431
1431 1195 1359
1263 1195 1431
1263 1033 1195
1099 1033 1263
2128 1964 1966
1105 1269 1271
1105 1271 1107
949 1105 1107
949 1107 9
878 949 9
949 878 7
1703 8 1781
1781 1611 1609
1781 1609 6
1703 1781 6
1435 1609 1611
1435 1611 1437
1267 1435 1437
1267 1437 1269
1103 1267 1269
1103 1269 1105
1613 10 1532
1532 1439 1613
1360 1439 1532
1360 1271 1439
1196 1271 1360
1196 1107 1271
1034 1107 1196
1107 1034 9
1781 8 1704
1613 1611 1781
1613 1781 1704
10 1613 1704
1437 1611 1613
1437 1613 1439
1269 1437 1439
1269 1439 1271
1429 1359 1195
1261 1033 1097
1261 1195 1033
1033 1 943
1097 1033 943
879 1097 943
11 1097 879
13 879 943
1533 12 1603
1603 1361 1533
1429 1361 1603
1429 1197 1361
1261 1197 1429
1261 1035 1197
1097 1035 1261
11 1035 1097
943 3 945
943 1 3
943 945 791
943 791 725
13 943 725
15 725 791
1873 14 1943
1943 1705 1873
1775 1705 1943
1775 1605 1603
1775 1603 12
1705 1775 12
1603 1605 1429
1429 1605 1359
1605 2 1359
1429 1195 1261
1779 4 1777
1779 6 4
945 3 877
791 945 793
793 945 5
945 877 5
791 17 15
793 17 791
1945 14 16
1943 14 1945
1775 1943 1945
1775 1945 1777
1775 1777 1605
1605 1777 1531
1777 4 1531
1605 1531 2
1947 2109 2111
1947 2111 1949
1947 1949 1779
1779 1949 1703
1949 8 1703
1779 1703 6
793 7 795
793 5 7
793 19 17
795 19 793
2037 18 2109
2109 1947 1945
2109 1945 16
2037 2109 16
1777 1945 1947
1777 1947 1779
2273 2111 20
2199 2273 20
1949 2111 2113
1949 2113 1951
1951 1783 1949
1949 1783 8
1783 1704 8
1704 1783 10
9 951 878
797 795 951
951 795 878
795 7 878
795 21 19
797 21 795
2111 18 20
2109 18 2111
1532 1615 1441
1360 1273 1196
1360 1441 1273
1196 1109 1034
1196 1273 1109
953 951 1109
1109 951 1034
951 9 1034
797 951 953
797 953 23
726 797 23
797 726 21
2359 22 2433
2433 2199 2359
2273 2199 2433
2273 2113 2111
880 953 1036
953 880 23
2435 22 24
2433 22 2435
2273 2433 2435
2273 2435 2275
2113 2273 2275
2113 2275 2115
1951 2113 2115
1951 2115 1953
1783 1951 1953
1783 1953 1785
1785 1615 1783
1783 1615 10
1615 1532 10
1532 1441 1360
2115 2275 2277
2115 2277 2117
1953 2115 2117
1953 2117 1955
1785 1953 1955
1785 1955 1787
1615 1785 1787
1615 1787 1617
1441 1615 1617
1441 1617 1443
1273 1441 1443
1273 1443 25
1198 1273 25
1198 1109 1273
1036 1109 1198
1036 953 1109
2117 2277 2279
2117 2279 2119
1955 2117 2119
1955 2119 1957
1787 1955 1957
1787 1957 1789
1617 1787 1789
1617 1789 1619
1443 1617 1619
1443 1619 27
1362 1443 27
1443 1362 25
2435 24 2360
2277 2275 2435
2277 2435 2360
26 2277 2360
1706 1791 31
1791 1706 29
2281 28 30
2279 28 2281
2119 2279 2281
2119 2281 2121
1957 2119 2121
1957 2121 1959
1789 1957 1959
1789 1959 1791
1619 1789 1791
1619 1791 29
1534 1619 29
1619 1534 27
2279 26 28
2277 26 2279
1259 1199 1427
1259 1037 1199
1095 1037 1259
33 1037 1095
2123 32 2038
2038 1961 2123
1874 1961 2038
1961 1874 31
2281 30 2200
2123 2121 2281
2123 2281 2200
32 2123 2200
1959 2121 2123
1959 2123 1961
1791 1959 1961
1791 1961 31
1533 1361 1535
1535 1361 34
1361 1427 34
1427 1197 1259
1427 1361 1197
1259 1035 1095
1259 1197 1035
1035 11 941
1095 1035 941
881 1095 941
33 1095 881
37 881 941
1707 36 1771
35 1707 1771
1363 34 1427
1427 1199 1363
941 11 879
879 13 789
941 879 789
727 941 789
37 941 727
39 727 789
2039 38 2103
2103 1875 2039
1941 1875 2103
1941 1773 1771
1941 1771 36
1875 1941 36
1771 1535 35
1533 1535 12
1535 1771 12
1771 1773 12
789 13 725
725 15 647
789 725 647
585 789 647
39 789 585
41 585 647
2201 40 2265
2265 2105 2103
2265 2103 38
2201 2265 38
2103 2105 1941
1941 2105 1873
2105 14 1873
1941 1705 1773
1941 1873 1705
1773 1705 12
2429 2267 42
2361 2429 42
2267 2269 2107
2107 2269 2037
2269 18 2037
2107 2037 16
647 17 651
647 15 17
647 43 41
651 43 647
2267 40 42
2265 40 2267
2105 2265 2267
2105 2267 2107
2107 14 2105
2107 16 14
2583 44 46
2581 44 2583
2429 2581 2583
2429 2583 2431
2269 2429 2431
2269 2431 2271
2271 18 2269
2271 20 18
651 19 655
651 17 19
651 45 43
655 45 651
2515 44 2581
2581 2361 2515
2429 2361 2581
2429 2269 2267
47 21 726
659 47 726
799 659 726
49 587 659
2585 46 48
2583 46 2585
2583 2585 2431
2431 2585 2359
2585 22 2359
2431 2199 2271
2431 2359 2199
2271 2199 20
21 47 19
19 47 655
47 586 655
655 586 45
1198 1275 1111
1036 955 880
1036 1111 955
801 799 955
955 799 880
799 23 880
659 799 801
659 801 661
659 51 49
661 51 659
2587 48 50
2585 48 2587
2587 22 2585
2587 24 22
23 799 726
659 587 47
955 1111 1113
955 1113 957
801 955 957
801 957 803
661 801 803
661 803 53
588 661 53
661 588 51
2589 50 52
2587 50 2589
2589 2437 2587
2587 2437 24
2437 2360 24
2360 2437 26
25 1275 1198
1198 1111 1036
803 957 959
803 959 55
728 803 55
803 728 53
2591 52 54
2589 52 2591
2437 2589 2591
2437 2591 2439
2439 26 2437
2439 28 26
27 1445 1362
1277 1275 1445
1445 1275 1362
1275 25 1362
1111 1275 1277
1111 1277 1113
2441 2591 2516
58 2441 2516
2441 28 2439
2441 30 28
29 1621 1534
1364 1445 27
57 1364 27
1534 57 27
1621 57 1534
1279 1277 1445
1279 1445 1364
56 1279 1364
1113 1277 1279
1113 1279 1115
957 1113 1115
957 1115 959
31 1793 1706
1623 1621 1793
1793 1621 1706
1621 29 1706
1621 1623 1449
1621 1449 1365
57 1621 1365
1279 56 1200
1365 1449 59
1200 1115 1279
1038 1115 1200
1038 959 1115
882 959 1038
959 882 55
2591 54 2516
2441 2439 2591
2038 2125 1963
1708 1793 31
61 1708 31
1874 61 31
1963 61 1874
1708 1623 1793
1536 1623 1708
1536 1449 1623
1366 1449 1536
1449 1366 59
2441 58 2362
60 2283 2200
2362 60 2200
30 2362 2200
2441 2362 30
2200 2283 32
2125 62 2040
2040 1963 2125
1876 1963 2040
1963 1876 61
2791 64 2857
2857 2661 2791
2735 2661 2857
2735 2517 2661
2597 2517 2735
63 2517 2597
2283 60 2202
62 2125 2038
2202 62 2038
32 2202 2038
2283 2202 32
2038 1963 1874
2599 2737 2739
2599 2739 2601
2447 2599 2601
2447 2601 2449
2447 67 65
2449 67 2447
2859 64 66
2857 64 2859
2735 2857 2859
2735 2859 2737
2597 2735 2737
2597 2737 2599
2597 2599 2447
2597 2447 2363
63 2597 2363
65 2363 2447
2518 2603 2662
2603 2518 69
2863 68 70
2861 68 2863
2739 2861 2863
2739 2863 2741
2601 2739 2741
2601 2741 2603
2449 2601 2603
2449 2603 69
2364 2449 69
2449 2364 67
2861 66 68
2859 66 2861
2737 2859 2861
2737 2861 2739
1537 1709 1707
1537 1707 35
1601 1537 35
1363 1367 1537
1363 1537 1601
34 1363 1601
1367 1363 1201
1201 1363 1199
1201 1199 1039
1039 1199 1037
33 1039 1037
71 1039 33
2863 70 2792
2792 2741 2863
2662 2741 2792
2662 2603 2741
2101 2039 1875
1939 1875 36
1601 35 1535
1601 1535 34
33 883 71
33 881 883
729 883 881
729 881 37
785 729 37
73 729 785
2041 72 2101
2101 1877 2041
1939 1877 2101
1707 1709 1877
1707 1877 1939
36 1707 1939
2263 74 40
74 2425 40
74 2365 2425
2263 2201 38
785 37 727
727 39 645
785 727 645
589 785 645
73 785 589
75 589 645
2203 74 2263
2039 2101 38
2101 72 38
72 2263 38
72 2203 2263
2101 1875 1939
2515 2361 2519
2519 2361 78
2361 2427 78
2427 2361 42
79 77 41
79 41 43
2427 76 78
2425 76 2427
2427 40 2425
2427 42 40
645 39 585
41 77 75
41 75 645
585 41 645
2365 76 2425
2201 2263 40
2723 82 84
2721 82 2723
2723 46 2721
2723 48 46
47 657 586
83 81 45
83 45 586
657 83 586
2663 82 2721
44 80 46
46 80 2721
80 2663 2721
81 79 43
81 43 45
2515 80 44
2519 80 2515
86 88 50
50 88 52
519 51 521
519 49 51
519 87 85
521 87 519
2723 84 2664
50 48 86
86 48 2664
48 2723 2664
657 47 587
587 49 519
657 587 519
461 657 519
83 657 461
85 461 519
57 1447 1364
1364 1447 56
55 805 728
665 663 805
805 663 728
663 53 728
663 91 89
665 91 663
88 90 52
52 90 54
53 663 588
462 521 51
89 462 51
588 89 51
663 89 588
521 462 87
1281 1200 56
1200 1117 1038
1200 1281 1117
1038 961 882
1038 1117 961
730 805 55
93 730 55
882 93 55
961 93 882
730 665 805
590 665 730
665 590 91
54 90 92
54 92 2593
2516 54 2593
2516 2593 58
884 961 95
961 884 93
2793 94 2855
2855 2665 2793
2733 2665 2855
2733 2595 2593
2733 2593 92
2665 2733 92
2595 2443 2593
2593 2443 58
2443 2362 58
2362 2443 60
1447 57 1365
1281 1447 1365
1281 1365 59
1447 1281 56
2445 2285 2443
2443 2285 60
2285 2202 60
2202 2285 62
61 1795 1708
1708 1625 1536
1708 1795 1625
1536 1451 1366
1536 1625 1451
1283 1281 1451
1451 1281 1366
1281 59 1366
1117 1281 1283
1117 1283 1119
961 1117 1119
961 1119 95
1202 1283 97
1202 1119 1283
1040 1119 1202
1119 1040 95
2911 96 2973
2791 2855 64
2855 94 64
94 2973 64
94 2911 2973
2855 2661 2733
2855 2791 2661
2733 2517 2595
2733 2661 2517
2443 2595 2445
2445 2595 63
2595 2517 63
2040 62 2285
2285 2287 99
2040 2285 99
2042 2040 99
2040 2042 1878
2040 1878 1876
1876 1878 1710
1876 1710 1795
61 1876 1795
1710 1625 1795
1538 1625 1710
1453 1451 1625
1453 1625 1538
98 1453 1538
1283 1451 1453
1283 1453 97
2981 66 2977
2981 68 66
2287 67 2289
2287 65 67
2287 101 99
2289 101 2287
1453 98 1368
1453 1368 97
2977 96 100
2973 96 2977
2977 64 2973
2977 66 64
2445 63 2363
2285 2445 2287
2287 2445 65
2445 2363 65
105 2366 69
2518 105 69
2605 105 2518
2451 2366 103
2987 102 104
2981 102 2987
2987 68 2981
2987 70 68
69 2451 2364
2204 2289 67
103 2204 67
2364 103 67
2451 103 2364
2289 2204 101
2981 100 102
2977 100 2981
2869 106 2794
2794 2743 2869
2666 2743 2794
2666 2605 2743
2520 2605 2666
2605 2520 105
2987 104 2912
106 2869 2792
2912 106 2792
70 2912 2792
2987 2912 70
2792 2743 2662
2792 2869 2743
2662 2605 2518
2662 2743 2605
2366 2451 69
2041 2205 2261
72 2041 2261
2043 2041 1879
1879 2041 1877
1879 1877 1711
1711 1877 1709
1711 1709 1539
1539 1709 1537
1539 1537 1369
1369 1537 1367
1369 1367 1203
1203 1367 1201
1203 1201 1041
1041 1201 1039
71 1041 1039
121 1041 71
75 591 589
125 591 75
2367 124 2421
2203 2261 74
2261 122 74
122 2421 74
122 2367 2421
2261 2203 72
71 885 121
71 883 885
885 883 731
731 883 729
73 731 729
123 731 73
2205 122 2261
2041 2043 2205
128 2667 2717
2579 2519 78
129 127 77
129 77 79
2521 128 2579
76 126 78
78 126 2579
126 2521 2579
127 125 75
127 75 77
124 126 76
124 76 2365
2421 124 2365
2421 2365 74
73 591 123
73 589 591
132 134 82
82 134 84
81 83 131
131 83 463
83 517 463
133 463 517
130 132 82
130 82 2663
2717 130 2663
2717 2663 80
131 129 79
131 79 81
2667 130 2717
2519 2579 80
2579 128 80
128 2717 80
139 87 462
523 139 462
2727 136 138
2725 136 2727
2727 86 2725
2727 88 86
137 135 85
137 85 87
84 134 136
84 136 2725
2664 84 2725
2664 2725 86
517 83 461
85 135 133
85 133 517
461 85 517
141 590 592
91 590 141
2669 142 2731
90 140 92
92 140 2731
140 2669 2731
91 141 89
89 141 523
141 464 523
523 464 139
2727 138 2668
90 88 140
140 88 2668
88 2727 2668
89 523 462
139 137 87
95 963 884
809 807 963
963 807 884
807 93 884
807 145 143
809 145 807
2793 144 94
2795 144 2793
2793 2665 2795
2795 2665 142
2665 2731 142
2731 2665 92
93 807 730
590 730 592
592 730 143
730 807 143
1710 1797 1627
1538 1627 98
97 1285 1202
1202 1121 1040
1202 1285 1121
965 963 1121
1121 963 1040
963 95 1040
809 963 965
809 965 147
732 809 147
809 732 145
2911 146 96
2913 146 2911
2911 144 2913
2911 94 144
1368 1370 1204
1368 1204 1285
97 1368 1285
1204 1121 1285
1042 1121 1204
1042 965 1121
886 965 1042
965 886 147
146 148 96
96 148 100
99 2127 2042
2042 1965 1878
2042 2127 1965
1878 1797 1710
1878 1965 1797
1710 1627 1538
151 101 2204
2291 151 2204
148 150 100
100 150 102
101 149 99
99 149 2127
149 2044 2127
2044 1965 2127
1880 1965 2044
1880 1797 1965
1712 1797 1880
1712 1627 1797
1540 1627 1712
1540 1370 1368
1540 1368 98
1627 1540 98
105 2520 2453
2453 2368 153
104 152 154
104 154 2991
2912 104 2991
2912 2991 106
105 2453 2366
2206 2291 103
153 2206 103
2366 153 103
2453 153 2366
2291 2206 151
150 152 102
102 152 104
103 2291 2204
151 149 101
2045 184 2099
2099 1881 2045
1937 1881 2099
1937 1713 1881
1769 1713 1937
183 1713 1769
2991 154 2914
2914 2796 2794
2914 2794 106
2991 2914 106
2794 2796 2670
2794 2670 2666
2666 2670 2522
2666 2522 2520
2520 2522 2368
2520 2368 2453
2043 2099 184
2099 1879 1937
2099 2043 1879
1937 1711 1769
1937 1879 1711
1539 1541 1711
1711 1541 1769
1541 183 1769
1541 1539 1371
1371 1539 1369
1371 1369 1205
1205 1369 1203
1205 1203 1043
1043 1203 1041
121 1043 1041
185 1043 121
125 593 591
189 593 125
2367 188 124
2369 188 2367
2367 186 2369
2367 122 186
121 887 185
121 885 887
887 885 731
887 731 786
187 887 786
786 731 123
2205 186 122
2207 186 2205
2205 2043 2207
2207 2043 184
190 192 128
190 128 2521
2575 190 2521
2575 2521 126
125 127 189
189 127 465
127 511 465
191 465 511
2523 190 2575
124 188 126
126 188 2575
188 2523 2575
187 786 733
593 733 591
591 733 123
733 786 123
196 132 130
196 130 2718
2671 196 2718
2671 2718 194
513 131 515
513 129 131
513 195 193
515 195 513
2718 130 2667
192 194 128
128 194 2667
194 2718 2667
511 129 513
511 127 129
511 193 191
513 193 511
135 137 199
199 137 341
137 397 341
397 225 341
277 225 397
201 225 277
198 200 134
134 200 136
199 197 133
199 133 135
196 198 132
132 198 134
515 131 463
133 197 195
133 195 515
463 133 515
175 205 203
177 205 175
138 202 204
138 204 2729
2668 138 2729
2668 2729 140
397 139 399
397 137 139
277 397 399
277 399 279
277 279 175
277 175 155
201 277 155
203 155 175
200 202 136
136 202 138
177 283 285
177 285 179
177 207 205
179 207 177
204 206 142
204 142 2669
2729 204 2669
2729 2669 140
141 525 464
401 399 525
525 399 464
399 139 464
279 399 401
279 401 283
175 279 283
175 283 177
156 179 226
179 156 207
2915 208 2969
2795 2797 2915
2795 2915 2969
144 2795 2969
2795 206 2797
2795 142 206
143 667 592
527 525 667
667 525 592
525 141 592
401 525 527
401 527 403
283 401 403
283 403 285
342 407 466
407 342 209
208 210 146
208 146 2913
2969 208 2913
2969 2913 144
667 145 669
667 143 145
527 667 669
527 669 529
403 527 529
403 529 407
285 403 407
285 407 209
226 285 209
226 179 285
967 811 886
811 147 886
811 213 211
813 213 811
3031 212 3067
146 210 148
148 210 3067
210 3031 3067
147 811 732
594 669 145
211 594 145
732 211 145
811 211 732
594 529 669
466 529 594
466 407 529
2044 2046 1882
2044 1882 1880
1880 1882 1714
1880 1714 1712
1712 1714 1540
1540 1714 1629
1714 214 1629
1540 1455 1370
1540 1629 1455
1370 1287 1204
1370 1455 1287
1204 1123 1042
1204 1287 1123
1042 967 886
1042 1123 967
813 811 967
1287 1455 1457
1287 1457 1289
1123 1287 1289
1123 1289 1125
967 1123 1125
967 1125 969
813 967 969
813 969 217
734 813 217
813 734 213
3067 212 3032
150 148 216
216 148 3032
148 3067 3032
215 2044 149
215 2046 2044
1291 1457 1372
222 1291 1372
1125 1289 1291
1125 1291 1127
969 1125 1127
969 1127 971
969 221 217
971 221 969
216 220 150
150 220 152
219 215 149
219 149 151
1629 214 1542
1457 1455 1629
1457 1629 1542
218 1457 1542
1291 222 1206
1206 1127 1291
1044 1127 1206
1044 971 1127
888 971 1044
971 888 221
154 152 220
154 220 2916
2992 154 2916
2916 224 2992
223 2206 153
223 2208 2206
219 2206 2208
151 2206 219
1457 218 1372
1291 1289 1457
1715 296 1767
1767 1543 1715
1597 1543 1767
295 1543 1597
154 2992 2914
2798 2796 2914
2798 2914 2992
224 2798 2992
2796 2798 2672
2796 2672 2670
2670 2672 2524
2670 2524 2522
2522 2524 2370
2522 2370 2368
223 2368 2370
153 2368 223
1207 1205 1045
1045 1205 1043
185 1045 1043
299 1045 185
2045 298 184
2047 298 2045
2047 2045 1883
1883 2045 1881
1881 1713 1883
1883 1713 296
1713 1767 296
1597 1767 1599
1599 1767 183
1767 1713 183
1597 297 295
1599 297 1597
2369 300 2371
2369 186 300
185 889 299
185 887 889
187 889 887
301 889 187
2207 300 186
2209 300 2207
2207 298 2209
2207 184 298
1599 183 1541
1371 1373 1541
1541 1373 1599
1373 297 1599
1373 1371 1207
1207 1371 1205
2576 190 2523
302 304 188
188 304 2523
304 2576 2523
187 735 301
187 733 735
735 733 595
595 733 593
467 595 593
467 593 189
509 467 189
509 343 467
381 343 509
303 343 381
2369 302 188
2371 302 2369
306 308 192
192 308 194
383 193 385
383 191 193
383 307 305
385 307 383
306 192 190
306 190 2576
2525 306 2576
2525 2576 304
509 189 465
381 509 383
383 509 191
509 465 191
381 305 303
383 305 381
273 227 395
313 227 273
310 312 196
196 312 198
197 311 195
195 311 387
311 344 387
387 344 309
2671 310 196
2673 310 2671
2671 308 2673
2671 194 308
385 195 387
385 193 195
385 309 307
387 309 385
395 199 341
395 225 273
395 341 225
225 201 173
273 225 173
157 273 173
313 273 157
315 157 173
2799 314 2847
198 312 200
200 312 2847
312 2799 2847
197 199 311
311 199 345
199 395 345
395 227 345
318 320 204
204 320 206
203 205 317
317 205 107
205 117 107
319 107 117
316 318 202
202 318 204
173 201 155
203 317 315
203 315 173
155 203 173
2847 314 2800
202 200 316
316 200 2800
200 2847 2800
209 287 226
226 181 156
226 287 181
323 321 207
323 207 156
181 323 156
2970 208 2915
2915 2797 2801
2915 2801 322
2970 2915 322
2797 320 2801
2797 206 320
207 321 205
205 321 117
321 108 117
117 108 319
211 671 594
594 531 466
594 671 531
466 409 342
466 531 409
228 287 209
325 228 209
342 325 209
409 325 342
228 181 287
158 181 228
181 158 323
324 210 208
324 208 2970
2917 324 2970
2917 2970 322
1882 1884 1714
1714 1884 1799
1884 328 1799
1714 1799 214
671 213 673
671 211 213
531 671 673
531 673 327
468 531 327
468 409 531
346 409 468
409 346 325
3068 212 3031
324 326 210
210 326 3031
326 3068 3031
1799 1716 214
1542 1631 218
217 815 734
596 673 213
331 596 213
734 331 213
815 331 734
673 596 327
212 3068 3032
330 216 326
326 216 3068
216 3032 3068
215 2129 2046
1882 2046 1884
1884 2046 329
2046 2129 329
815 221 817
815 217 221
815 335 331
817 335 815
330 334 216
216 334 220
333 2210 2292
219 2292 2210
2210 2048 2129
219 2210 2129
215 219 2129
2129 2048 329
1799 328 1716
332 1631 1542
1716 332 1542
214 1716 1542
2918 220 334
2916 220 2918
2918 224 2916
2918 338 224
337 2372 2454
2292 2208 223
333 2292 223
2454 333 223
2372 333 2454
2208 2292 219
1633 332 336
1631 332 1633
1633 1459 1631
1631 1459 218
1459 1372 218
1372 1459 222
1633 336 1544
1544 1459 1633
1374 1459 1544
1374 1208 1206
1374 1206 222
1459 1374 222
1206 1208 1044
1044 1208 1129
1208 340 1129
888 1044 890
890 1044 339
1044 1129 339
888 890 736
888 736 817
221 888 817
817 736 335
1595 1545 1765
1595 1375 1545
1421 1375 1595
417 1375 1421
1129 340 1046
1129 1046 339
2802 224 338
2798 224 2802
2798 2802 2674
2798 2674 2672
2672 2674 2526
2672 2526 2524
2370 2524 2526
2370 2526 337
2454 2370 337
2370 2454 223
2097 1933 418
2049 2097 418
1933 1935 1765
1765 1935 1715
1935 296 1715
1765 1543 1595
1765 1715 1543
1421 1595 1423
1423 1595 295
1595 1543 295
1421 419 417
1423 419 1421
1885 418 1933
1933 1717 1885
1765 1717 1933
1765 1545 1717
420 422 298
420 298 2047
2097 420 2047
2097 1883 1935
2097 2047 1883
1935 1883 296
1423 297 1425
1423 295 297
1423 1425 1257
1423 1257 1209
419 1423 1209
1257 1047 1209
1093 1047 1257
421 1047 1093
2049 420 2097
2097 1935 1933
379 347 507
425 347 379
2209 424 300
2211 424 2209
2209 422 2211
2209 298 422
1425 297 1373
1425 1207 1257
1425 1373 1207
1257 1045 1093
1257 1207 1045
1045 299 939
1093 1045 939
891 1093 939
421 1093 891
423 891 939
425 379 229
427 229 261
2422 302 2371
424 426 300
300 426 2371
426 2422 2371
939 299 889
889 301 787
939 889 787
737 939 787
423 939 737
787 597 737
643 597 787
643 469 597
507 469 643
507 347 469
261 429 427
263 429 261
428 304 302
428 302 2422
2373 428 2422
2373 2422 426
787 301 735
787 595 643
787 735 595
643 467 507
643 595 467
507 343 379
507 467 343
343 303 261
379 343 261
229 379 261
265 433 431
267 433 265
2675 432 2719
306 430 308
308 430 2719
430 2675 2719
263 307 265
263 305 307
263 431 429
265 431 263
2525 430 306
2527 430 2525
2525 428 2527
2525 304 428
261 305 263
261 303 305
2803 436 2843
310 434 312
312 434 2843
434 2803 2843
311 391 344
230 267 309
435 230 309
344 435 309
391 435 344
267 230 433
432 434 310
432 310 2673
2719 432 2673
2719 2673 308
265 309 267
265 307 309
2800 314 2849
2800 2849 316
313 159 437
313 157 159
315 159 157
439 159 315
436 438 314
436 314 2799
2843 436 2799
2843 2799 312
391 311 345
227 231 345
345 231 391
231 435 391
313 231 227
437 231 313
2853 318 2851
2853 320 318
115 317 107
319 443 441
319 441 115
107 319 115
2851 440 442
2849 440 2851
2851 316 2849
2851 318 316
315 317 439
439 317 109
317 115 109
441 109 115
314 438 440
314 440 2849
2917 446 2919
2917 322 446
323 447 321
321 447 119
447 110 119
119 110 445
444 446 322
444 322 2801
2853 444 2801
2853 2801 320
321 119 108
445 443 319
445 319 108
119 445 108
2853 442 444
2851 442 2853
348 468 451
468 533 451
346 348 232
346 232 289
325 346 289
289 232 449
448 450 324
324 450 326
325 289 228
158 228 160
160 228 449
228 289 449
447 158 160
323 158 447
2917 448 324
2919 448 2917
1886 454 1716
328 1886 1716
1967 1886 328
1716 1801 332
331 675 596
470 533 327
453 470 327
596 453 327
675 453 596
533 470 451
450 452 326
326 452 330
329 1967 1884
1884 1967 328
327 533 468
346 468 348
335 457 331
331 457 675
457 598 675
675 598 453
334 330 452
334 452 2920
2988 334 2920
2920 456 2988
455 2210 333
455 2212 2210
2210 2212 2050
2210 2050 2048
2048 2050 1886
2048 1886 1967
329 2048 1967
454 1801 1716
2918 2988 2870
2988 2804 2870
2988 456 2804
2676 2870 2804
2676 2744 2870
2528 2744 2676
2528 2606 2744
2374 2372 2528
2528 2372 2606
2372 337 2606
455 2372 2374
333 2372 455
1801 454 1718
336 332 458
458 332 1718
332 1801 1718
1546 336 458
1544 336 1546
1544 1546 1374
1374 1546 1461
1546 460 1461
1374 1293 1208
1374 1461 1293
1208 1293 340
339 973 890
736 890 738
738 890 459
890 973 459
457 736 738
335 736 457
334 2988 2918
338 2918 2870
1461 460 1376
1376 1293 1461
1210 1293 1376
1210 1048 1046
1210 1046 340
1293 1210 340
1046 1048 892
1046 892 973
339 1046 973
973 892 459
338 2870 2802
2674 2870 2744
2802 2870 2674
2526 2744 2606
2674 2744 2526
2526 2606 337
540 2051 2095
1931 1717 1763
1931 1885 1717
1763 1545 1593
1763 1717 1545
1375 1377 1545
1545 1377 1593
1377 539 1593
417 1377 1375
541 1377 417
1887 540 1931
1931 1719 1887
1763 1719 1931
1763 1547 1719
1593 1547 1763
539 1547 1593
1209 1049 1255
1049 543 1255
421 1049 1047
545 1049 421
542 544 420
542 420 2049
2095 542 2049
2095 2049 418
417 419 541
541 419 1211
419 1255 1211
543 1211 1255
2051 542 2095
1885 1931 418
1931 540 418
540 2095 418
425 349 347
549 349 425
546 548 424
546 424 2211
2259 546 2211
2259 2211 422
421 893 545
421 891 893
423 893 891
547 893 423
2213 546 2259
420 544 422
422 544 2259
544 2213 2259
1255 419 1209
1047 1049 1209
425 233 549
425 229 233
427 233 229
551 233 427
2375 550 2423
424 548 426
426 548 2423
548 2375 2423
423 739 547
423 737 739
739 737 599
599 737 597
599 597 471
471 597 469
471 469 349
349 469 347
2675 554 2677
2675 430 554
555 553 429
555 429 431
552 554 430
552 430 2527
2577 552 2527
2577 2527 428
553 551 427
553 427 429
2529 552 2577
2373 2423 428
2423 550 428
550 2577 428
550 2529 2577
2423 2373 426
437 235 231
561 235 437
2803 560 436
2805 560 2803
2803 558 2805
2803 434 558
559 230 435
559 234 230
557 230 234
433 230 557
556 558 432
432 558 434
557 555 431
557 431 433
2675 556 432
2677 556 2675
564 566 440
440 566 442
439 111 563
439 109 111
441 111 109
565 111 441
562 564 438
438 564 440
437 161 561
437 159 161
439 161 159
563 161 439
560 562 436
436 562 438
435 235 559
435 231 235
2974 448 2919
570 572 446
446 572 2919
572 2974 2919
571 110 447
571 112 110
569 110 112
445 110 569
568 570 444
444 570 446
569 567 443
569 443 445
566 568 442
442 568 444
567 565 441
567 441 443
576 2978 574
576 2982 2978
575 348 451
575 350 348
348 350 236
348 236 232
573 232 236
449 232 573
450 2974 2978
448 2974 450
574 2974 572
574 2978 2974
573 160 449
573 162 160
571 160 162
447 160 571
2920 2982 2864
2982 2806 2864
2982 576 2806
2806 578 2864
455 2293 2212
2212 2131 2050
2212 2293 2131
2050 1969 1886
2050 2131 1969
1886 1969 454
577 470 453
577 472 470
575 470 472
451 470 575
452 2978 2982
450 2978 452
2133 2293 2214
582 2133 2214
1969 2131 2133
1969 2133 1971
1718 454 1969
1969 1971 581
1718 1969 581
1720 1718 581
1720 458 1718
1720 580 458
579 598 457
579 600 598
577 598 600
453 598 577
452 2982 2920
456 2920 2864
583 738 459
583 740 738
579 738 740
457 738 579
456 2864 2804
2678 2676 2804
2678 2804 2864
578 2678 2864
2676 2678 2530
2676 2530 2528
2528 2530 2376
2528 2376 2374
2374 2376 2214
2374 2214 2293
455 2374 2293
2133 2131 2293
1376 1378 1212
1376 1212 1210
1210 1212 1050
1210 1050 1048
1048 1050 894
1048 894 892
583 892 894
459 892 583
2133 582 2052
2052 1971 2133
1888 1971 2052
1971 1888 581
1548 458 580
1546 458 1548
1548 460 1546
1548 584 460
1419 539 1377
541 683 681
541 681 1419
1377 541 1419
1887 682 540
1889 682 1887
1889 1887 1721
1721 1887 1719
1721 1719 1549
1549 1719 1547
1379 1549 1547
1379 1547 539
1419 1379 539
681 1379 1419
1378 460 584
1376 460 1378
895 1051 1049
895 1049 545
937 895 545
687 895 937
2215 686 2257
542 684 544
544 684 2257
684 2215 2257
541 1213 683
541 1211 1213
543 1213 1211
685 1213 543
2051 684 542
2053 684 2051
2051 682 2053
2051 540 682
2377 690 2419
546 688 548
548 688 2419
688 2377 2419
937 545 893
893 547 783
937 893 783
741 937 783
687 937 741
689 741 783
686 688 546
686 546 2213
2257 686 2213
2257 2213 544
543 1051 685
543 1049 1051
551 237 233
693 237 551
690 692 550
690 550 2375
2419 690 2375
2419 2375 548
783 547 739
599 601 739
739 601 783
601 689 783
601 599 473
473 599 471
473 471 351
351 471 349
549 351 349
691 351 549
2713 696 2677
2713 2677 554
697 695 553
697 553 555
2679 696 2713
552 694 554
554 694 2713
694 2679 2713
695 693 551
695 551 553
2529 694 552
2531 694 2529
2529 692 2531
2529 550 692
549 237 691
549 233 237
561 701 269
235 561 269
2844 560 2805
700 702 558
558 702 2805
702 2844 2805
559 269 234
701 699 557
701 557 234
269 701 234
698 700 556
556 700 558
699 697 555
699 555 557
696 698 556
696 556 2677
563 113 705
563 111 113
565 113 111
707 113 565
704 706 562
562 706 564
561 163 703
561 161 163
563 163 161
705 163 563
704 562 560
704 560 2844
2807 704 2844
2807 2844 702
269 559 235
561 703 701
711 120 112
112 120 569
2921 712 2971
568 710 570
570 710 2971
710 2921 2971
711 114 120
709 567 569
709 569 120
114 709 120
708 710 566
566 710 568
709 707 565
709 565 567
706 708 564
564 708 566
2979 714 716
2975 714 2979
2979 572 2975
2979 574 572
715 238 290
164 162 238
238 162 290
162 573 290
713 162 164
571 162 713
2975 712 714
2971 712 2975
2975 570 2971
2975 572 570
713 711 571
571 711 112
2808 578 2806
2808 720 578
577 535 472
719 717 575
719 575 472
535 719 472
2979 716 2922
576 574 718
718 574 2922
574 2979 2922
717 350 575
717 352 350
236 350 352
236 352 715
290 236 715
236 290 573
2530 2532 2378
2530 2378 2376
2376 2378 2214
2214 2378 2295
2378 722 2295
2214 2295 582
581 1803 1720
1720 1803 580
579 677 600
474 535 577
721 474 577
600 721 577
677 721 600
535 474 719
2808 576 718
2806 576 2808
1722 1548 580
1803 1722 580
1550 1380 1548
1548 1380 584
1380 1462 584
1380 724 1462
583 819 740
602 677 579
723 602 579
740 723 579
819 723 740
677 602 721
2680 578 720
2678 578 2680
2678 2680 2532
2678 2532 2530
1050 1052 896
1050 896 894
894 896 742
894 742 819
583 894 819
819 742 723
2295 722 2216
2216 2054 2052
2216 2052 582
2295 2216 582
2052 2054 1890
2052 1890 1888
1888 1890 1722
1888 1722 1803
581 1888 1803
1722 1550 1548
1889 832 682
1891 832 1889
1891 1889 1723
1723 1889 1721
1723 1721 1551
1551 1721 1549
1551 1549 1379
1551 1379 1420
831 1551 1420
1420 1379 681
584 1462 1378
1214 1212 1378
1214 1378 1462
724 1214 1462
1212 1214 1052
1212 1052 1050
2215 2379 2415
686 2215 2415
2215 834 2217
2215 684 834
683 1215 833
683 1213 1215
685 1215 1213
835 1215 685
2053 834 684
2055 834 2053
2053 832 2055
2053 682 832
831 1420 1381
681 683 833
681 833 1381
1420 681 1381
687 743 837
687 741 743
689 743 741
839 743 689
2417 836 838
2415 836 2417
2417 686 2415
2417 688 686
685 1053 835
685 1051 1053
1053 1051 897
897 1051 895
687 897 895
837 897 687
2379 836 2415
2215 2217 2379
2573 690 2571
2573 692 690
689 603 839
689 601 603
603 601 475
475 601 473
475 473 351
475 351 380
841 475 380
380 351 691
2533 840 2571
2377 2417 690
2417 838 690
838 2571 690
838 2533 2571
2417 2377 688
843 262 239
693 695 845
693 845 239
262 693 239
842 844 694
842 694 2531
2573 842 2531
2573 2531 692
841 380 353
262 843 237
843 353 237
353 691 237
353 380 691
262 237 693
2573 840 842
2571 840 2573
851 849 699
851 699 701
848 850 698
698 850 700
849 847 697
849 697 699
848 698 696
848 696 2714
2681 848 2714
2681 2714 846
847 845 695
847 695 697
2714 696 2679
844 846 694
694 846 2679
846 2714 2679
705 113 116
116 113 707
854 856 704
704 856 706
703 165 853
703 163 165
705 165 163
855 165 705
2807 854 704
2809 854 2807
2807 852 2809
2807 702 852
853 851 701
853 701 703
850 852 700
700 852 702
859 118 114
114 118 709
2967 858 860
2965 858 2967
2967 708 2965
2967 710 708
857 118 859
857 116 118
707 118 116
709 118 707
2923 858 2965
706 856 708
708 856 2965
856 2923 2965
855 705 857
857 705 116
182 164 863
164 182 713
3033 864 3065
712 862 714
714 862 3065
862 3033 3065
863 166 182
861 711 713
861 713 182
166 861 182
860 862 712
860 712 2921
2967 860 2921
2967 2921 710
861 859 711
711 859 114
3034 868 2922
716 3034 2922
3069 3034 716
2922 2983 718
717 411 352
867 865 715
867 715 352
411 867 352
3069 864 866
3065 864 3069
3069 714 3065
3069 716 714
865 238 715
865 240 238
164 238 240
164 240 863
721 537 474
871 869 719
871 719 474
537 871 474
2983 868 2924
870 2865 2808
2924 870 2808
718 2924 2808
2983 2924 718
2808 2865 720
719 869 717
717 869 411
869 354 411
411 354 867
3069 866 3034
868 2983 2922
873 602 723
873 604 602
602 604 476
602 476 537
721 602 537
537 476 871
2865 870 2810
872 2745 2680
2810 872 2680
720 2810 2680
2865 2810 720
2680 2607 2532
2680 2745 2607
2532 2455 2378
2532 2607 2455
2378 2455 722
2380 2216 722
2455 2380 722
2216 2218 2054
2054 2218 2135
2218 876 2135
1890 2054 1892
1892 2054 875
2054 2135 875
1890 1892 1724
1890 1724 1722
1722 1724 1552
1722 1552 1550
1550 1552 1382
1550 1382 1380
1382 724 1380
1382 874 724
1216 724 874
1214 724 1216
1214 1216 1054
1214 1054 1052
1052 1054 898
1052 898 896
896 898 744
896 744 742
873 742 744
723 742 873
2745 872 2682
2682 2607 2745
2534 2607 2682
2534 2455 2607
2380 2455 2534
2380 2218 2216
1764 1725 1893
1594 1725 1764
1594 1553 1725
1383 1553 1381
1381 1553 831
1553 1594 831
833 1383 1381
985 1383 833
1932 832 1891
1764 1891 1723
1932 1891 1764
1594 1723 1551
1764 1723 1594
1594 1551 831
2135 876 2056
2135 2056 875
833 1217 985
833 1215 1217
1055 1217 1215
1055 1215 835
1091 1055 835
987 1055 1091
2381 986 2413
2413 2219 2381
2255 2219 2413
2055 2057 2219
2055 2219 2255
834 2055 2255
2057 2055 1893
1893 2055 1932
2055 832 1932
1764 1893 1932
838 988 2569
988 2535 2569
1091 835 1053
897 899 1053
1053 899 1091
899 987 1091
745 899 897
745 897 837
779 745 837
989 745 779
986 988 836
986 836 2379
2413 986 2379
2413 2217 2255
2413 2379 2217
2255 2217 834
603 477 641
477 991 641
841 477 475
993 477 841
990 992 840
990 840 2533
2569 990 2533
2569 2533 838
779 837 743
743 839 641
779 743 641
605 779 641
989 779 605
991 605 641
2535 990 2569
836 988 838
995 382 355
264 997 239
997 355 239
355 843 239
355 382 843
264 239 845
994 996 842
842 996 844
993 841 995
995 841 382
841 353 382
382 353 843
992 994 840
840 994 842
641 839 603
475 477 603
1001 851 270
242 1001 270
1000 1002 848
848 1002 850
1001 999 847
1001 847 849
2681 1000 848
2683 1000 2681
2681 998 2683
2681 846 998
997 264 241
845 847 999
845 999 241
264 845 241
996 998 844
844 998 846
853 167 1005
853 165 167
855 167 165
1007 167 855
2809 1006 854
2811 1006 2809
2809 1004 2811
2809 852 1004
1003 270 243
851 853 1005
851 1005 243
270 851 243
1002 1004 850
850 1004 852
1003 242 270
1001 849 851
1013 1011 859
1013 859 861
1010 1012 858
858 1012 860
1011 1009 857
1011 857 859
1008 1010 858
1008 858 2923
2961 1008 2923
2961 2923 856
1009 1007 855
1009 855 857
2925 1008 2961
854 1006 856
856 1006 2961
1006 2925 2961
1017 240 865
1017 244 240
1015 240 244
863 240 1015
1014 1016 864
1014 864 3033
3059 1014 3033
3059 3033 862
1015 166 863
1015 168 166
1013 166 168
861 166 1013
3035 1014 3059
860 1012 862
862 1012 3059
1012 3035 3059
2926 868 1020
2924 868 2926
2926 870 2924
2926 1022 870
869 413 354
1021 1019 867
1021 867 354
413 1021 354
3036 866 1018
3034 866 3036
3036 868 3034
3036 1020 868
1019 1017 865
1019 865 867
1016 1018 864
864 1018 866
1552 1635 1463
1382 1463 874
1025 604 873
1025 606 604
604 606 478
604 478 476
1023 476 478
871 476 1023
2812 870 1022
2810 870 2812
2812 872 2810
2812 1024 872
871 1023 869
869 1023 413
1023 356 413
413 356 1021
2684 872 1024
2682 872 2684
2682 2684 2536
2682 2536 2534
2534 2536 2382
2534 2382 2380
2380 2382 2218
2218 2382 2297
2382 1026 2297
2218 2297 876
875 1973 1892
1892 1805 1724
1892 1973 1805
1724 1635 1552
1724 1805 1635
1552 1463 1382
1635 1805 1807
1635 1807 1637
1463 1635 1637
1463 1637 1465
1465 1295 1463
1463 1295 874
1295 1216 874
1054 1216 1056
1056 1216 1027
1216 1295 1027
1054 1056 900
1054 900 898
898 900 746
898 746 744
1025 744 746
873 744 1025
1465 1637 1639
1465 1639 1467
1295 1465 1467
1295 1467 1297
1295 1029 1027
1297 1029 1295
2297 1026 2220
2220 2058 2056
2220 2056 876
2297 2220 876
2056 1973 875
2056 2058 1028
1973 2056 1028
1975 1973 1028
1805 1973 1975
1805 1975 1807
1726 1809 1894
1726 1639 1809
1554 1639 1726
1469 1467 1639
1469 1639 1554
1032 1469 1554
1297 1467 1469
1297 1469 1031
1218 1297 1031
1297 1218 1029
1977 1028 1030
1975 1028 1977
1807 1975 1977
1807 1977 1809
1637 1807 1809
1637 1809 1639
2221 2219 2059
2059 2219 2057
2059 2057 1895
1895 2057 1893
1895 1893 1727
1727 1893 1725
1727 1725 1555
1555 1725 1553
1555 1553 1385
1385 1553 1383
985 1385 1383
1143 1385 985
1469 1032 1384
1469 1384 1031
1977 1030 1894
1894 1809 1977
988 1144 2567
1144 2537 2567
985 1219 1143
985 1217 1219
1219 1217 1057
1057 1217 1055
901 1057 1055
901 1055 987
935 901 987
935 747 901
777 747 935
1145 747 777
2381 1144 986
2383 1144 2381
2383 2381 2221
2221 2381 2219
1147 639 479
1149 479 505
1146 1148 990
1146 990 2535
2567 1146 2535
2567 2535 988
935 987 899
935 745 777
935 899 745
745 989 639
777 745 639
607 777 639
1145 777 607
1147 607 639
2537 1146 2567
986 1144 988
1152 1154 994
994 1154 996
1153 1151 993
1153 993 995
1150 1152 992
992 1152 994
505 991 477
993 1151 1149
993 1149 505
477 993 505
1148 1150 990
990 1150 992
639 989 605
605 991 505
639 605 505
479 639 505
2715 1156 2683
2715 2683 998
1155 384 357
266 1157 241
1157 357 241
357 997 241
357 384 997
266 241 999
2685 1156 2715
996 1154 998
998 1154 2715
1154 2685 2715
1153 995 1155
1155 995 384
995 355 384
384 355 997
2813 1162 2845
1002 1160 1004
1004 1160 2845
1160 2813 2845
1161 1159 1003
1003 1159 242
1159 268 242
242 268 1001
1158 1160 1000
1000 1160 1002
1157 268 1159
1157 266 268
999 268 266
1001 268 999
1156 1158 1000
1156 1000 2683
2957 1164 2925
2957 2925 1006
1005 169 1163
1005 167 169
1007 169 167
1165 169 1007
2927 1164 2957
2811 2845 1006
2845 1162 1006
1162 2957 1006
1162 2927 2957
2845 2811 1004
1003 245 1161
1003 243 245
1005 245 243
1163 245 1005
3035 1172 1014
3037 1172 3035
3035 1170 3037
3035 1012 1170
1171 1169 1011
1171 1011 1013
1168 1170 1010
1010 1170 1012
1169 1167 1009
1169 1009 1011
1166 1168 1008
1008 1168 1010
1167 1165 1007
1167 1007 1009
1164 1166 1008
1164 1008 2925
3038 1020 3036
3038 1178 1020
1177 1175 1017
1177 1017 1019
1174 1176 1016
1016 1176 1018
1175 244 1017
1175 246 244
1173 244 246
1015 244 1173
1172 1174 1014
1014 1174 1016
1173 168 1015
1173 170 168
1171 168 170
1013 168 1171
2812 1022 2871
2812 2871 1024
1181 1179 1023
1023 1179 356
1179 414 356
356 414 1021
2928 1020 1178
2926 1020 2928
2928 1022 2926
2928 1180 1022
1179 358 414
1177 1019 1021
1177 1021 414
358 1177 414
3038 1018 1176
3036 1018 3038
2814 2684 1024
2871 2814 1024
2684 2686 2538
2684 2538 2536
2536 2538 2384
2536 2384 2382
2384 1026 2382
2384 1184 1026
1025 679 606
478 606 480
480 606 1183
606 679 1183
1181 478 480
1023 478 1181
1022 1180 1182
1022 1182 2871
2220 1026 2299
2220 2137 2058
2220 2299 2137
2058 2137 1028
1027 1131 1056
1056 975 900
1056 1131 975
746 900 748
748 900 1185
900 975 1185
746 748 608
746 608 679
1025 746 679
679 608 1183
2871 1182 2814
2814 2686 2684
977 1189 1187
979 1189 977
2301 1186 1188
2299 1186 2301
2137 2299 2301
2137 2301 2139
2139 1028 2137
2139 1030 1028
1131 1029 1133
1131 1027 1029
975 1131 1133
975 1133 977
975 1187 1185
977 1187 975
1026 1184 1186
1026 1186 2299
2139 2301 2303
2139 2303 2141
2141 1979 2139
2139 1979 1030
1979 1894 1030
1894 1811 1726
1894 1979 1811
1726 1641 1554
1726 1811 1641
1554 1641 1032
1031 1299 1218
1135 1133 1299
1299 1133 1218
1133 1029 1218
977 1133 1135
977 1135 979
1643 1811 1728
1192 1643 1728
1643 1471 1641
1641 1471 1032
1471 1384 1032
1301 1299 1471
1471 1299 1384
1299 1031 1384
1135 1299 1301
1135 1301 1137
979 1135 1137
979 1137 981
979 1191 1189
981 1191 979
2303 1188 1190
2301 1188 2303
1303 1471 1386
1194 1303 1386
1137 1301 1303
1137 1303 1139
981 1137 1139
981 1139 1193
902 981 1193
981 902 1191
2303 1190 2222
2222 2141 2303
2060 2141 2222
2060 1979 2141
1896 1979 2060
1896 1811 1979
1728 1811 1896
1643 1641 1811
1897 1895 1729
1729 1895 1727
1729 1727 1557
1557 1727 1555
1557 1555 1387
1387 1555 1385
1143 1387 1385
1307 1387 1143
1303 1194 1220
1220 1139 1303
1058 1139 1220
1139 1058 1193
1643 1192 1556
1556 1471 1643
1386 1471 1556
1303 1301 1471
1059 1057 903
903 1057 901
903 901 749
749 901 747
609 749 747
609 747 1145
637 609 1145
1309 609 637
2383 1308 1144
2385 1308 2383
2385 2383 2223
2223 2383 2221
2223 2221 2061
2061 2221 2059
2061 2059 1897
1897 2059 1895
1312 1148 1146
1312 1146 2568
2539 1312 2568
2539 2568 1310
637 1145 607
1147 1311 1309
1147 1309 637
607 1147 637
2568 1146 2537
1308 1310 1144
1144 1310 2537
1310 2568 2537
1143 1221 1307
1143 1219 1221
1221 1219 1059
1059 1219 1057
1319 1317 1153
1319 1153 1155
1316 1318 1152
1152 1318 1154
1317 1315 1151
1317 1151 1153
1314 1316 1150
1150 1316 1152
1315 1313 1149
1315 1149 1151
1312 1314 1148
1148 1314 1150
1147 481 1311
1147 479 481
1149 481 479
1313 481 1149
1160 1322 2841
1322 2815 2841
1321 388 1323
1321 386 388
1157 388 386
1159 388 1157
1320 1322 1156
1156 1322 1158
1319 1155 1321
1321 1155 386
1155 357 386
386 357 1157
2685 1320 1156
2687 1320 2685
2685 1318 2687
2685 1154 1318
1327 359 245
359 1161 245
359 392 1161
274 245 1163
2929 1326 2955
2813 2841 1162
2841 1324 1162
1324 2955 1162
1324 2929 2955
2841 2813 1160
1323 392 1325
1323 388 392
1159 392 388
1161 392 1159
2815 1324 2841
1158 1322 1160
1165 1331 171
174 1165 171
1328 1330 1164
1164 1330 1166
1327 274 247
174 1329 169
1329 247 169
247 1163 169
247 274 1163
174 169 1165
1326 1328 1164
1326 1164 2927
2955 1326 2927
2955 2927 1162
1325 392 359
274 1327 245
3060 1172 3037
1334 1336 1170
1170 1336 3037
1336 3060 3037
1335 172 180
1333 1169 1171
1333 1171 180
172 1333 180
1332 1334 1168
1168 1334 1170
1333 1331 1167
1333 1167 1169
1330 1332 1166
1166 1332 1168
1329 174 171
1165 1167 1331
1176 3066 3070
1174 3066 1176
1340 3066 1338
1340 3070 3066
1339 246 1175
1339 248 246
1337 246 248
1173 246 1337
1174 3060 3066
1172 3060 1174
1338 3060 1336
1338 3066 3060
1337 1335 1173
1173 1335 170
1335 180 170
170 180 1171
1343 1181 538
482 1343 538
2930 1178 1342
2928 1178 2930
2930 1180 2928
2930 1344 1180
1343 358 1179
1343 360 358
1341 358 360
1177 358 1341
1176 3070 3038
1342 1178 1340
1340 1178 3070
1178 3038 3070
1341 1339 1175
1341 1175 1177
2814 2816 2688
2814 2688 2686
2686 2688 2540
2686 2540 2538
2538 2540 2384
2384 2540 2457
2540 1348 2457
2384 2457 1184
1347 1345 1183
1183 1345 480
1345 538 480
480 538 1181
1344 1346 1180
1180 1346 1182
1345 482 538
1343 1179 1181
821 1187 823
821 1185 1187
821 1351 1349
823 1351 821
2459 1348 1350
2457 1348 2459
2459 1184 2457
2459 1186 1184
1185 821 748
608 748 610
610 748 1349
748 821 1349
1347 608 610
1183 608 1347
2816 1182 1346
2814 1182 2816
825 1191 827
825 1189 1191
825 1355 1353
827 1355 825
2463 1352 2386
1190 1188 1354
1354 1188 2386
1188 2463 2386
823 1189 825
823 1187 1189
823 1353 1351
825 1353 823
2463 1350 1352
2459 1350 2463
2463 1186 2459
2463 1188 1186
1193 983 902
750 827 1191
1357 750 1191
902 1357 1191
983 1357 902
827 750 1355
2224 1190 1354
2222 1190 2224
2222 2224 2060
2060 2224 2143
2224 1356 2143
2060 1981 1896
2060 2143 1981
1896 1813 1728
1896 1981 1813
1728 1813 1192
1058 1060 904
1058 904 983
1193 1058 983
983 904 1357
2143 1356 2062
2062 1981 2143
1898 1981 2062
1898 1813 1981
1730 1813 1898
1358 1645 1556
1730 1358 1556
1192 1730 1556
1813 1730 1192
1556 1473 1386
1556 1645 1473
1386 1473 1194
1731 1729 1559
1559 1729 1557
1559 1557 1389
1389 1557 1387
1223 1389 1387
1223 1387 1307
1253 1223 1307
1477 1223 1253
1645 1358 1558
1558 1473 1645
1388 1473 1558
1388 1222 1220
1388 1220 1194
1473 1388 1194
1220 1222 1060
1220 1060 1058
905 903 751
751 903 749
751 749 611
611 749 609
1309 611 609
1479 611 1309
2414 1308 2385
2385 2223 2225
2385 2225 1478
2414 2385 1478
2225 2223 2063
2063 2223 2061
2063 2061 1899
1899 2061 1897
1899 1897 1731
1731 1897 1729
2570 1312 2539
1480 1482 1310
1310 1482 2539
1482 2570 2539
1481 1479 1309
1481 1309 1311
1480 1310 1308
1480 1308 2414
2387 1480 2414
2387 2414 1478
1253 1307 1221
1059 1061 1221
1221 1061 1253
1061 1477 1253
1061 1059 905
905 1059 903
1486 1316 1314
1486 1314 2572
2541 1486 2572
2541 2572 1484
1483 506 483
1313 1315 1485
1313 1485 483
506 1313 483
1314 2570 2572
1312 2570 1314
1484 2570 1482
1484 2572 2570
1481 1311 1483
1483 1311 506
1311 481 506
506 481 1313
1489 512 485
1319 1321 1491
1319 1491 485
512 1319 485
2687 1490 1320
2689 1490 2687
2687 1488 2689
2687 1318 1488
1489 484 512
1487 1317 1319
1487 1319 512
484 1487 512
1486 1488 1316
1316 1488 1318
1487 1485 1315
1487 1315 1317
2929 1496 1326
2931 1496 2929
2929 1494 2931
2929 1324 1494
1323 1325 1493
1493 1325 361
1325 393 361
1495 361 393
2815 1494 1324
2817 1494 2815
2815 1492 2817
2815 1322 1492
1493 1491 1321
1493 1321 1323
1490 1492 1320
1320 1492 1322
1499 1329 1501
1501 1329 176
1329 171 176
176 171 1331
1498 1500 1328
1328 1500 1330
1327 249 1497
1327 247 249
1329 249 247
1499 249 1329
1496 1498 1326
1326 1498 1328
393 1325 359
1327 1497 1495
1327 1495 393
359 1327 393
1507 1505 1335
1507 1335 1337
1504 1506 1334
1334 1506 1336
1505 1503 1335
1335 1503 172
1503 178 172
172 178 1333
1502 1504 1332
1332 1504 1334
1501 178 1503
1501 176 178
1331 178 176
1333 178 1331
1500 1502 1330
1330 1502 1332
1511 360 362
1341 360 1511
1510 1512 1340
1340 1512 1342
1341 1511 1339
1339 1511 291
1511 250 291
291 250 1509
1508 1510 1338
1338 1510 1340
1339 291 248
1509 1507 1337
1509 1337 248
291 1509 248
1506 1508 1336
1336 1508 1338
1517 1515 1345
1517 1345 1347
1346 1344 1514
1346 1514 2818
2872 1346 2818
2818 1516 2872
1515 482 1345
1515 486 482
1513 482 486
1343 482 1513
2932 1342 1512
2930 1342 2932
2932 1344 2930
2932 1514 1344
1513 360 1343
1513 362 360
1521 1519 1349
1521 1349 1351
1518 1520 1348
1348 1520 1350
1519 610 1349
1519 612 610
1517 610 612
1347 610 1517
1346 2872 2816
2690 2688 2816
2690 2816 2872
1516 2690 2872
2688 2690 2542
2688 2542 2540
2542 1348 2540
2542 1518 1348
2465 1524 2388
1526 2305 2224
2388 1526 2224
1354 2388 2224
2465 2388 1354
2224 2305 1356
1525 1523 1353
1525 1353 1355
1352 1522 1524
1352 1524 2465
2386 1352 2465
2386 2465 1354
1523 1521 1351
1523 1351 1353
1520 1522 1350
1350 1522 1352
1357 904 829
829 752 1527
2305 1526 2226
2226 2064 2062
2226 2062 1356
2305 2226 1356
2062 2064 1900
2062 1900 1898
1898 1900 1730
1730 1900 1815
1900 1528 1815
1730 1815 1358
1357 829 750
1527 1525 1355
1527 1355 750
829 1527 750
1815 1528 1732
1732 1560 1558
1732 1558 1358
1815 1732 1358
1558 1560 1388
1388 1560 1475
1560 1530 1475
1388 1305 1222
1388 1475 1305
1222 1141 1060
1222 1305 1141
904 1060 906
906 1060 1529
1060 1141 1529
904 906 752
904 752 829
1899 1733 1650
1934 1899 1650
1733 1731 1561
1561 1731 1559
1561 1559 1391
1391 1559 1389
1391 1389 1225
1225 1389 1223
1477 1225 1223
1649 1225 1477
1475 1530 1390
1390 1305 1475
1224 1305 1390
1224 1141 1305
1062 1141 1224
1141 1062 1529
1477 1063 1649
1477 1061 1063
1063 1061 907
907 1061 905
907 905 753
753 905 751
753 751 611
753 611 638
1651 753 638
638 611 1479
2256 1478 2225
2096 2225 2063
2256 2225 2096
1934 2063 1899
2096 2063 1934
1899 1731 1733
2258 2227 1654
2227 2258 1652
1651 638 613
1479 1481 1653
1479 1653 613
638 1479 613
2416 1480 2387
2256 2258 2416
2256 2416 2387
1478 2256 2387
2256 2096 2258
2258 2096 1652
2096 2065 1652
1934 2065 2096
1934 1901 2065
1901 1934 1650
1658 2574 2541
2389 2420 1656
1655 1483 1657
1657 1483 508
1483 483 508
508 483 1485
1484 2418 2420
1482 2418 1484
1656 2418 1654
1656 2420 2418
1655 1653 1481
1655 1481 1483
1482 2416 2418
1480 2416 1482
2416 2258 2418
2418 2258 1654
1661 1659 1489
1489 1659 484
1659 510 484
484 510 1487
1660 1488 1486
1660 1486 2574
2543 1660 2574
2543 2574 1658
1657 510 1659
1657 508 510
1485 510 508
1487 510 1485
2574 1486 2541
2420 2389 1484
2389 1658 1484
1658 2541 1484
1491 1493 1663
1663 1493 363
1493 389 363
1665 363 389
1664 1492 1490
1664 1490 2716
2691 1664 2716
2691 2716 1662
1489 487 1661
1489 485 487
1491 487 485
1663 487 1491
2716 1490 2689
1660 1662 1488
1488 1662 2689
1662 2716 2689
1495 1497 1667
1667 1497 251
1497 275 251
1669 251 275
2931 1668 1496
2933 1668 2931
2931 1666 2933
2931 1494 1666
389 1493 361
1495 1667 1665
1495 1665 389
361 1495 389
2817 1666 1494
2819 1666 2817
2817 1664 2819
2817 1492 1664
1501 284 280
1503 284 1501
1672 1674 1500
1500 1674 1502
1673 252 280
1671 1499 1501
1671 1501 280
252 1671 280
1670 1672 1498
1498 1672 1500
275 1497 249
1499 1671 1669
1499 1669 275
249 1499 275
1668 1670 1496
1496 1670 1498
1681 1679 1507
1681 1507 1509
1678 1680 1506
1506 1680 1508
1679 1677 1505
1679 1505 1507
1676 1678 1504
1504 1678 1506
1675 284 253
1503 1505 1677
1503 1677 253
284 1503 253
1674 1676 1502
1502 1676 1504
1673 284 1675
1673 280 284
1513 415 362
254 293 1511
1685 254 1511
362 1685 1511
415 1685 362
293 254 1683
1512 1510 1682
1512 1682 2934
2984 1512 2934
2934 1684 2984
1511 293 250
1683 1681 1509
1683 1509 250
293 1683 250
1680 1682 1508
1508 1682 1510
1689 1687 1515
1689 1515 1517
2820 1514 1686
2818 1514 2820
2820 1516 2818
2820 1688 1516
1687 486 1515
1687 488 486
486 488 364
486 364 415
1513 486 415
415 364 1685
1512 2984 2932
1686 1514 1684
1684 1514 2984
1514 2932 2984
1692 1694 1520
1520 1694 1522
1693 1691 1519
1693 1519 1521
1690 1692 1518
1518 1692 1520
1691 612 1519
1691 614 612
1689 612 614
1517 612 1689
2692 1516 1688
2690 1516 2692
2690 2692 2544
2690 2544 2542
2544 1518 2542
2544 1690 1518
2228 1700 2145
2064 1983 1900
2064 2145 1983
1900 1983 1528
1699 1697 1525
1699 1525 1527
2390 1524 1696
2388 1524 2390
2390 1526 2388
2390 1698 1526
1697 1695 1523
1697 1523 1525
1694 1696 1522
1522 1696 1524
1695 1693 1521
1695 1521 1523
1902 1702 1732
1528 1902 1732
1983 1902 1528
1732 1647 1560
1732 1817 1647
1560 1647 1530
1701 906 1529
1701 908 906
906 908 754
906 754 752
1699 752 754
1527 752 1699
2228 1526 1698
2226 1526 2228
2226 2228 2064
2064 2228 2145
1817 1702 1734
1734 1647 1817
1562 1647 1734
1562 1392 1390
1562 1390 1530
1647 1562 1530
1390 1392 1226
1390 1226 1224
1224 1226 1064
1224 1064 1062
1701 1062 1064
1529 1062 1701
2145 1700 2066
2066 1983 2145
1902 1983 2066
1702 1817 1732
1065 1063 907
1065 907 936
1821 1065 936
778 907 753
936 907 778
778 753 1651
1766 1650 1733
1733 1561 1563
1733 1563 1820
1766 1733 1820
1563 1561 1393
1393 1561 1391
1393 1391 1225
1393 1225 1254
1819 1393 1254
1254 1225 1649
1823 755 613
755 1651 613
755 778 1651
640 613 1653
2098 1652 2065
2065 1901 1903
2065 1903 1822
2098 2065 1822
1903 1901 1735
1735 1901 1766
1901 1650 1766
1735 1766 1820
1819 1254 1227
1065 1227 1063
1063 1227 1649
1227 1254 1649
1826 2260 1824
1826 2262 2260
1823 642 1825
1823 640 642
1653 642 640
1655 642 1653
2260 1654 2227
2098 2067 1652
2067 1824 1652
1824 2227 1652
1824 2260 2227
2067 2098 1822
1821 936 909
778 909 936
778 755 909
640 1823 613
1827 646 1829
1827 644 646
1657 646 644
1659 646 1657
2424 1658 2389
2262 2229 1656
2229 1828 1656
1828 2389 1656
1828 2424 2389
2229 2262 1826
1825 644 1827
1825 642 644
1655 644 642
1657 644 1655
1656 2260 2262
1654 2260 1656
1663 489 487
1833 489 1663
1662 2578 2580
1660 2578 1662
1832 2578 1830
1832 2580 2578
1829 646 615
1659 1661 1831
1659 1831 615
646 1659 615
2578 1660 2543
2424 2391 1658
2391 1830 1658
1830 2543 1658
1830 2578 2543
2391 2424 1828
1836 2842 2819
2582 2693 2720
2582 2545 2693
2545 2582 1834
1663 365 1833
1663 363 365
1665 365 363
1835 365 1665
2720 1664 2691
2580 2582 2720
2580 2720 2691
1662 2580 2691
1834 2580 1832
1834 2582 2580
1661 489 1831
1661 487 489
1669 1837 271
251 1669 271
2956 1668 2933
2842 2821 1666
2821 1838 1666
1838 2933 1666
1838 2956 2933
2821 2842 1836
1665 1667 1835
1835 1667 255
1667 271 255
1837 255 271
2842 1666 2819
2720 2693 1664
2693 1836 1664
1836 2819 1664
1673 281 252
1843 1841 1671
1843 1671 252
281 1843 252
1842 1672 1670
1842 1670 2958
2935 1842 2958
2935 2958 1840
1841 1839 1669
1841 1669 1671
1670 2956 2958
1668 2956 1670
1840 2956 1838
1840 2958 2956
271 1667 251
1669 1839 1837
1848 1676 3040
1676 3055 3040
1675 257 1845
1675 253 257
1677 257 253
1847 257 1677
3039 1846 3055
1674 1844 1676
1676 1844 3055
1844 3039 3055
1675 1845 1673
1673 1845 281
1845 256 281
281 256 1843
1842 1844 1672
1672 1844 1674
2936 1684 2934
2936 1854 1684
1853 258 294
1851 1681 1683
1851 1683 294
258 1851 294
1850 1852 1680
1680 1852 1682
1851 1849 1679
1851 1679 1681
1848 1850 1678
1678 1850 1680
1849 1847 1677
1849 1677 1679
3055 1846 3040
1678 1676 1848
364 488 490
364 490 1855
416 364 1855
364 416 1685
1686 1684 1854
1686 1854 2822
2866 1686 2822
2822 1856 2866
1855 366 416
294 254 1685
1853 294 1685
416 1853 1685
366 1853 416
254 294 1683
2936 1682 1852
2934 1682 2936
1688 2746 2692
2546 2544 2692
2546 2692 2746
1858 2546 2746
2546 1690 2544
2546 1860 1690
1859 1857 1687
1859 1687 1689
1686 2866 2820
1688 2820 2746
2820 2866 2746
2866 2694 2746
2866 1856 2694
2694 1858 2746
1857 488 1687
1857 490 488
1867 1865 1695
1867 1695 1697
1864 1866 1694
1694 1866 1696
1865 1863 1693
1865 1693 1695
1862 1864 1692
1692 1864 1694
1863 1861 1691
1863 1691 1693
1860 1862 1690
1690 1862 1692
1861 614 1691
1861 616 614
1859 614 616
1689 614 1859
754 908 910
754 910 1869
830 754 1869
754 830 1699
2230 1698 1868
2228 1698 2230
2230 1700 2228
2230 1870 1700
1869 756 830
1867 1697 1699
1867 1699 830
756 1867 830
2392 1696 1866
2390 1696 2392
2392 1698 2390
2392 1868 1698
1392 1394 1228
1392 1228 1226
1064 1226 1228
1064 1228 1871
1142 1064 1871
1064 1142 1701
2068 1700 1870
2066 1700 2068
2066 2068 1904
2066 1904 1902
1904 1702 1902
1904 1872 1702
1871 1066 1142
910 908 1066
1066 908 1142
908 1701 1142
1227 1395 1819
1395 1422 1819
1229 1227 1067
1067 1227 1065
1821 1067 1065
1985 1067 1821
1596 1820 1563
1422 1563 1393
1596 1563 1422
1422 1393 1819
1736 1702 1872
1734 1702 1736
1734 1736 1564
1734 1564 1562
1562 1564 1394
1562 1394 1392
1821 911 1985
1821 909 911
911 909 755
911 755 780
1987 911 780
780 755 1823
1903 1986 1822
1905 1986 1903
1905 1903 1737
1737 1903 1735
1737 1735 1565
1565 1735 1596
1735 1820 1596
1422 1565 1596
1422 1395 1565
1229 1395 1227
2264 1828 2229
1990 1992 1826
1826 1992 2229
1992 2264 2229
1991 1989 1825
1991 1825 1827
1988 1990 1824
1824 1990 1826
1987 780 757
1823 1825 1989
1823 1989 757
780 1823 757
2067 1988 1824
2069 1988 2067
2067 1986 2069
2067 1822 1986
1832 2426 2428
1830 2426 1832
1996 2426 1994
1996 2428 2426
1993 1829 1995
1995 1829 648
1829 615 648
648 615 1831
2426 1830 2391
2264 2231 1828
2231 1994 1828
1994 2391 1828
1994 2426 2391
2231 2264 1992
1993 1991 1827
1993 1827 1829
1997 514 491
367 491 365
365 491 1833
491 514 1833
1835 367 365
1999 367 1835
1834 2428 2430
1832 2428 1834
1998 2428 1996
1998 2430 2428
1995 648 617
514 1997 489
1997 617 489
617 1831 489
617 648 1831
514 489 1833
2695 2002 1836
2002 2821 1836
2002 2846 2821
2695 2722 2000
1999 1835 2001
2001 1835 272
1835 255 272
272 255 1837
2722 1836 2693
2693 2545 2547
2693 2547 2000
2722 2693 2000
2547 2545 2393
2393 2545 2430
2545 1834 2430
2393 2430 1998
2935 2006 1842
2937 2006 2935
2935 2004 2937
2935 1840 2004
2005 2003 1839
2005 1839 1841
2004 1840 1838
2004 1838 2846
2823 2004 2846
2823 2846 2002
2001 272 259
1837 1839 2003
1837 2003 259
272 1837 259
2846 1838 2821
2722 2695 1836
1845 257 286
286 257 1847
3039 2010 1846
3041 2010 3039
3039 2008 3041
3039 1844 2008
2009 2007 1845
1845 2007 256
2007 282 256
256 282 1843
2006 2008 1842
1842 2008 1844
2007 260 282
2005 1841 1843
2005 1843 282
260 2005 282
1849 292 288
1851 292 1849
3061 2012 3042
1850 1848 2014
2014 1848 3042
1848 3061 3042
2011 288 2013
2011 286 288
1847 288 286
1849 288 1847
1846 2010 2012
1846 2012 3061
3040 1846 3061
3040 3061 1848
2009 1845 2011
2011 1845 286
2019 366 1855
2019 368 366
2017 366 368
1853 366 2017
2938 1852 2016
2936 1852 2938
2938 1854 2936
2938 2018 1854
2017 2015 1853
1853 2015 258
2015 292 258
258 292 1851
2014 2016 1850
1850 2016 1852
2013 292 2015
2013 288 292
2021 1859 680
618 2021 680
2696 1856 2020
2694 1856 2696
2696 2548 2694
2694 2548 1858
2548 2608 1858
2548 2022 2608
2021 490 1857
2021 492 490
2019 490 492
1855 490 2019
2824 1854 2018
2822 1854 2824
2824 1856 2822
2824 2020 1856
2026 2028 1862
1862 2028 1864
2027 2025 1861
2027 1861 1863
2024 2026 1860
1860 2026 1862
2025 2023 1861
1861 2023 616
2023 680 616
616 680 1859
1858 2608 2546
2024 1860 2022
2022 1860 2608
1860 2546 2608
2023 618 680
2021 1857 1859
1866 2466 2392
2032 1868 2030
2030 1868 2466
1868 2392 2466
2029 828 2031
2029 826 828
1865 828 826
1867 828 1865
1866 1864 2028
1866 2028 2394
2466 1866 2394
2394 2030 2466
2029 758 826
2027 1863 1865
2027 1865 826
758 2027 826
2035 1066 1871
2035 1068 1066
910 1066 1068
910 1068 2033
984 910 2033
910 984 1869
2232 1868 2032
2230 1868 2232
2232 1870 2230
2232 2034 1870
2033 912 984
828 756 1869
2031 828 1869
984 2031 1869
912 2031 984
756 828 1867
1738 1872 2036
1736 1872 1738
1736 1738 1566
1736 1566 1564
1564 1566 1396
1564 1396 1394
1394 1396 1230
1394 1230 1228
2035 1228 1230
1871 1228 2035
2070 1870 2034
2068 1870 2070
2068 2070 1906
2068 1906 1904
1906 1872 1904
1906 2036 1872
781 759 1987
2149 759 781
1936 1986 1905
1768 1905 1737
1936 1905 1768
1598 1737 1565
1768 1737 1598
1424 1565 1395
1598 1565 1424
1395 1229 1231
1395 1231 2148
1424 1395 2148
1231 1229 1069
1069 1229 1067
1985 1069 1067
2147 1069 1985
2100 1988 2069
1936 1938 2100
1936 2100 2069
1986 1936 2069
1936 1768 1938
1938 1768 2150
1768 1739 2150
1598 1739 1768
1598 1567 1739
1424 1567 1598
1424 1397 1567
1397 1424 2148
1985 913 2147
1985 911 913
759 913 911
759 911 1987
1992 2102 2104
1990 2102 1992
2154 2102 2152
2154 2104 2102
2153 2151 1989
2153 1989 1991
1990 2100 2102
1988 2100 1990
2100 1938 2102
2102 1938 2152
1938 1907 2152
1907 1938 2150
781 1987 757
1989 2151 2149
1989 2149 781
757 1989 781
1995 617 652
652 617 1997
2158 1996 1994
2158 1994 2266
2233 2158 2266
2233 2266 2156
2157 2155 1993
2157 1993 1995
2266 1994 2231
2104 2071 1992
2071 2156 1992
2156 2231 1992
2156 2266 2231
2071 2104 2154
2155 2153 1991
2155 1991 1993
2547 2395 2162
2584 2547 2162
2393 2160 2395
2393 1998 2160
2159 652 619
493 619 491
491 619 1997
619 652 1997
493 491 367
493 367 390
2161 493 390
390 367 1999
2158 2160 1996
1996 2160 1998
2157 1995 2159
2159 1995 652
2163 2001 2165
2165 2001 276
2001 259 276
276 259 2003
2695 2164 2002
2697 2164 2695
2697 2695 2549
2549 2695 2584
2695 2000 2584
2549 2584 2162
2161 390 369
1999 2001 2163
1999 2163 369
390 1999 369
2584 2000 2547
2547 2393 2395
2169 2167 2007
2007 2167 260
2167 278 260
260 278 2005
2937 2168 2006
2939 2168 2937
2937 2166 2939
2937 2004 2166
2165 278 2167
2165 276 278
2003 278 276
2005 278 2003
2823 2166 2004
2825 2166 2823
2823 2164 2825
2823 2002 2164
3044 2014 3042
3044 2176 2014
2175 2173 2011
2175 2011 2013
2172 2174 2010
2010 2174 2012
2173 2171 2009
2173 2009 2011
3041 2172 2010
3043 2172 3041
3041 2170 3043
3041 2008 2170
2171 2169 2007
2171 2007 2009
2168 2170 2006
2006 2170 2008
494 2179 536
368 412 2017
2016 2178 2180
2016 2180 2985
2938 2016 2985
2938 2985 2018
2179 370 412
2177 2015 2017
2177 2017 412
370 2177 412
2176 2178 2014
2014 2178 2016
2177 2175 2013
2177 2013 2015
3044 2012 2174
3042 2012 3044
2698 2184 2609
2548 2609 2022
2183 2181 2021
2021 2181 492
2181 536 492
492 536 2019
2985 2180 2940
2182 2867 2824
2940 2182 2824
2018 2940 2824
2985 2940 2018
2824 2867 2020
2181 494 536
412 368 2019
2179 412 2019
536 2179 2019
2187 2185 2023
2187 2023 2025
2609 2184 2550
2024 2022 2186
2186 2022 2550
2022 2609 2550
2185 618 2023
2185 620 618
2183 618 620
2021 618 2183
2867 2182 2826
2826 2698 2696
2826 2696 2020
2867 2826 2020
2696 2698 2548
2548 2698 2609
2028 2464 2394
2192 2030 2190
2190 2030 2464
2030 2394 2464
2191 758 2029
2191 760 758
2189 758 760
2027 758 2189
2028 2026 2188
2028 2188 2396
2464 2028 2396
2396 2190 2464
2189 2187 2025
2189 2025 2027
2186 2188 2024
2024 2188 2026
2195 1068 1070
2033 1068 2195
2234 2032 2194
2232 2032 2234
2234 2072 2232
2232 2072 2034
2072 2146 2034
2072 2196 2146
2195 912 2033
2195 914 912
2193 912 914
2031 912 2193
2192 2194 2030
2030 2194 2032
2193 2191 2029
2193 2029 2031
1738 1740 1568
1738 1568 1566
1566 1568 1398
1566 1398 1396
1396 1398 1232
1396 1232 1230
2197 1230 1232
2035 1230 2197
2034 2146 2070
1908 1906 2070
1908 2070 2146
2196 1908 2146
1908 2036 1906
1908 2198 2036
2197 1068 2035
2197 1070 1068
1397 2308 1399
1397 2148 2308
2147 915 2307
2147 913 915
915 913 759
915 759 782
2309 915 782
782 759 2149
1231 2308 2148
1233 2308 1231
1233 1231 1071
1071 1231 1069
2147 1071 1069
2307 1071 2147
1740 2036 2198
1738 2036 1740
1940 2152 1907
1770 1741 2150
1741 2312 2150
2312 1907 2150
2312 1940 1907
1741 1770 2310
2309 782 761
2149 2151 2311
2149 2311 761
782 2149 761
1770 2150 1739
1739 1567 1569
1739 1569 2310
1770 1739 2310
1569 1567 1399
1399 1567 1397
2317 2315 2155
2317 2155 2157
2071 2316 2156
2073 2316 2071
2073 2071 1909
1909 2071 1942
2071 2154 1942
1909 1942 2314
2315 2313 2153
2315 2153 2155
2154 1940 1942
2152 1940 2154
2314 1940 2312
2314 1942 1940
2313 2311 2151
2313 2151 2153
653 2159 619
493 495 619
619 495 653
495 2319 653
2161 495 493
2321 495 2161
2318 2320 2158
2158 2320 2160
2157 2159 2317
2317 2159 621
2159 653 621
2319 621 653
2233 2318 2158
2235 2318 2233
2233 2316 2235
2233 2156 2316
2163 2325 371
394 2163 371
2697 2324 2164
2699 2324 2697
2699 2697 2551
2551 2697 2549
2549 2322 2551
2549 2162 2322
2321 2161 2323
2323 2161 394
2161 369 394
394 369 2163
2395 2322 2162
2397 2322 2395
2395 2320 2397
2395 2160 2320
2941 2330 2962
2941 2962 2328
2329 2327 2167
2329 2167 2169
2962 2168 2939
2326 2328 2166
2166 2328 2939
2328 2962 2939
2327 2325 2165
2327 2165 2167
2825 2326 2166
2827 2326 2825
2825 2324 2827
2825 2164 2324
2323 394 371
2163 2165 2325
2333 2175 408
372 2333 408
2174 3056 3062
2172 3056 2174
2334 3056 2332
2334 3062 3056
2333 2331 2171
2333 2171 2173
3056 2172 3043
2330 2332 2170
2170 2332 3043
2332 3056 3043
2331 2329 2169
2331 2169 2171
2330 2170 2168
2330 2168 2962
2179 534 370
370 410 2177
2336 2338 2176
2176 2338 2178
2337 496 532
410 532 408
408 532 2335
532 496 2335
2175 410 408
2177 410 2175
2174 3062 3044
2336 2176 2334
2334 2176 3062
2176 3044 3062
2335 372 408
2333 2173 2175
2343 2341 2181
2343 2181 2183
2942 2180 2340
2940 2180 2942
2942 2182 2940
2942 2342 2182
2341 2339 2181
2181 2339 494
2339 534 494
494 534 2179
2338 2340 2178
2178 2340 2180
2337 534 2339
2337 532 534
534 532 410
534 410 370
2747 2344 2700
2700 2552 2550
2700 2550 2184
2747 2700 2184
2552 2186 2550
2552 2346 2186
2345 620 2185
2345 622 620
2343 620 622
2183 620 2343
2828 2182 2342
2826 2182 2828
2826 2828 2698
2698 2828 2747
2828 2344 2747
2698 2747 2184
2351 760 2191
2351 762 760
2349 760 762
2189 760 2349
2188 2460 2396
2350 2190 2348
2348 2190 2460
2190 2396 2460
2349 2347 2187
2349 2187 2189
2188 2186 2346
2188 2346 2398
2460 2188 2398
2398 2348 2460
2347 2345 2185
2347 2185 2187
2074 1910 2072
2072 1910 2196
1910 1984 2196
1910 2356 1984
2355 914 2195
2355 916 914
2353 914 916
2193 914 2353
2194 2192 2352
2194 2352 2236
2306 2194 2236
2236 2354 2306
2353 2351 2191
2353 2191 2193
2350 2352 2190
2190 2352 2192
2196 1984 1908
2198 1908 1818
1908 1984 1818
1984 1742 1818
1984 2356 1742
1570 1818 1742
1570 1648 1818
1570 2358 1648
2357 1070 2197
2357 1072 1070
2355 1070 1072
2195 1070 2355
2194 2306 2234
2074 2072 2234
2074 2234 2306
2354 2074 2306
2309 917 915
2467 917 2309
1256 2308 1233
1092 1233 1071
1256 1233 1092
1092 1071 2307
2198 1818 1740
1568 1818 1648
1740 1818 1568
1400 1398 1568
1400 1568 1648
2358 1400 1648
1398 1400 1234
1398 1234 1232
2357 1232 1234
2197 1232 2357
2309 763 2467
2309 761 763
2311 763 761
2469 763 2311
1600 2310 1569
1569 1399 1401
1569 1401 2468
1600 1569 2468
1401 1399 1235
1235 1399 1256
1399 2308 1256
1092 1235 1256
1092 1073 1235
917 1073 915
915 1073 2307
1073 1092 2307
1909 2472 1911
1909 2314 2472
2473 2471 2313
2473 2313 2315
2472 2314 2312
2472 2312 1772
1743 2472 1772
1743 1772 2470
2471 2469 2311
2471 2311 2313
1772 2312 1741
1600 1571 2310
1571 2470 2310
2470 1741 2310
2470 1772 1741
1571 1600 2468
2319 2475 649
621 2319 649
2268 2318 2235
2106 2075 2316
2075 2476 2316
2476 2235 2316
2476 2268 2235
2075 2106 2474
2315 2317 2473
2473 2317 623
2317 649 623
2475 623 649
2106 2316 2073
2073 1909 1911
2073 1911 2474
2106 2073 2474
2481 2479 2321
2481 2321 2323
2397 2480 2322
2399 2480 2397
2397 2478 2399
2397 2320 2478
2319 497 2477
2319 495 497
2321 497 495
2479 497 2321
2478 2320 2318
2478 2318 2268
2237 2478 2268
2237 2268 2476
649 2317 621
2319 2477 2475
2485 2483 2325
2485 2325 2327
2827 2484 2326
2829 2484 2827
2827 2482 2829
2827 2324 2482
2323 373 2481
2323 371 373
2325 373 371
2483 373 2325
2699 2482 2324
2701 2482 2699
2701 2699 2553
2553 2699 2551
2551 2480 2553
2551 2322 2480
3057 2330 3053
3057 2332 2330
2489 2487 2329
2489 2329 2331
3045 2488 3053
2941 2963 2330
2963 2486 2330
2486 3053 2330
2486 3045 3053
2963 2941 2328
2487 2485 2327
2487 2327 2329
2943 2486 2963
2326 2484 2328
2328 2484 2963
2484 2943 2963
2494 2334 3046
2334 3063 3046
2493 2491 2335
2335 2491 372
2491 404 372
372 404 2333
3063 2490 2492
3057 2490 3063
3063 2332 3057
3063 2334 2332
2491 374 404
2489 2331 2333
2489 2333 404
374 2489 404
3057 2488 2490
3053 2488 3057
2498 2338 3048
2338 3071 3048
2497 624 674
2495 2337 2339
2495 2339 674
624 2495 674
3047 2496 3071
2336 2494 2338
2338 2494 3071
2494 3047 3071
2495 496 2337
2495 498 496
2493 496 498
2335 496 2493
3063 2492 3046
2336 2334 2494
2830 2344 2828
2830 2502 2344
2499 678 2501
2499 676 678
2341 678 676
2343 678 2341
2340 2498 2500
2340 2500 2989
2942 2340 2989
2942 2989 2342
2497 676 2499
2497 674 676
2339 676 674
2341 676 2339
3071 2496 3048
2340 2338 2498
2505 2503 2345
2505 2345 2347
2702 2344 2502
2700 2344 2702
2700 2702 2554
2700 2554 2552
2554 2346 2552
2554 2504 2346
2503 2501 2345
2345 2501 622
2501 678 622
622 678 2343
2989 2500 2944
2944 2830 2828
2944 2828 2342
2989 2944 2342
2352 2350 2508
2352 2508 2238
2304 2352 2238
2238 2510 2304
2509 762 2351
2509 764 762
2507 762 764
2349 762 2507
2506 2508 2348
2348 2508 2350
2507 2505 2347
2507 2347 2349
2400 2346 2504
2398 2346 2400
2400 2348 2398
2400 2506 2348
1912 2074 2144
2512 1912 2144
1912 2356 1910
1912 2514 2356
2513 916 2355
2513 918 916
2511 916 918
2353 916 2511
2352 2304 2236
2354 2236 2144
2236 2304 2144
2304 2076 2144
2304 2510 2076
2076 2512 2144
2511 2509 2351
2511 2351 2353
1744 2356 2514
1742 2356 1744
1742 1744 1572
1742 1572 1570
1572 1402 1570
1570 1402 2358
1402 1476 2358
1236 1476 1402
1236 1306 1476
1074 1072 1236
1236 1072 1306
1072 2357 1306
2513 1072 1074
2355 1072 2513
2354 2144 2074
1912 1910 2074
919 938 2467
784 763 2469
1426 2468 1401
1401 1235 1237
1401 1237 2614
1426 1401 2614
1237 1235 1075
1075 1235 1073
1075 1073 917
1075 917 938
2613 1075 938
938 917 2467
2358 1476 1400
1234 1476 1306
1400 1476 1234
1234 1306 2357
2618 1774 1743
1573 1602 2616
2615 788 2617
2615 784 788
2469 788 784
2471 788 2469
1602 2470 1571
1426 1403 2468
1403 2616 2468
2616 1571 2468
2616 1602 1571
1403 1426 2614
2613 938 919
784 2615 763
2615 919 763
919 2467 763
2475 625 623
2621 625 2475
1944 2474 1911
1774 1745 2472
1745 2620 2472
2620 1911 2472
2620 1944 1911
1745 1774 2618
2617 790 2619
2617 788 790
2471 790 788
2473 790 2471
1774 2472 1743
1602 1573 2470
1573 2618 2470
2618 1743 2470
2237 2624 2478
2239 2624 2237
2237 2622 2239
2237 2476 2622
2623 2621 2475
2623 2475 2477
2075 2622 2476
2077 2622 2075
2077 2075 1913
1913 2075 1944
2075 2474 1944
1913 1944 2620
2619 790 765
625 765 623
623 765 2473
765 790 2473
2701 2628 2482
2703 2628 2701
2703 2701 2555
2555 2701 2553
2553 2626 2555
2553 2480 2626
2627 2625 2479
2627 2479 2481
2399 2626 2480
2401 2626 2399
2399 2624 2401
2399 2478 2624
2477 499 2623
2477 497 499
2479 499 497
2625 499 2479
2943 2632 2486
2945 2632 2943
2943 2630 2945
2943 2484 2630
2629 396 375
2483 2485 2631
2483 2631 375
396 2483 375
2829 2630 2484
2831 2630 2829
2829 2628 2831
2829 2482 2628
2627 2481 2629
2629 2481 396
2481 373 396
396 373 2483
2636 2638 2490
2490 2638 2492
2491 405 374
2637 2635 2489
2637 2489 374
405 2637 374
2634 2636 2488
2488 2636 2490
2635 2633 2487
2635 2487 2489
3045 2634 2488
3049 2634 3045
3045 2632 3049
3045 2486 2632
2633 2631 2485
2633 2485 2487
3072 2496 3047
2640 2642 2494
2494 2642 3047
2642 3072 3047
2641 498 2495
2641 500 498
2639 498 500
2493 498 2639
3050 2492 2638
3046 2492 3050
3050 2494 3046
3050 2640 2494
2493 2639 2491
2491 2639 405
2639 376 405
405 376 2637
2647 2645 2499
2647 2499 2501
2500 2498 2644
2500 2644 2946
2990 2500 2946
2946 2646 2990
2645 2643 2497
2645 2497 2499
2496 3072 3048
2644 2498 2642
2642 2498 3072
2498 3048 3072
2643 624 2497
2643 626 624
2641 624 626
2495 624 2641
2502 2748 2702
2556 2554 2702
2556 2702 2748
2648 2556 2748
2556 2504 2554
2556 2650 2504
2649 2647 2501
2649 2501 2503
2500 2990 2944
2832 2830 2944
2832 2944 2990
2646 2832 2990
2832 2704 2830
2830 2704 2502
2704 2748 2502
2704 2648 2748
2655 764 2509
2655 766 764
2653 764 766
2507 764 2653
2461 2652 2402
2508 2506 2654
2654 2506 2402
2506 2461 2402
2653 2651 2505
2653 2505 2507
2504 2650 2652
2504 2652 2461
2400 2504 2461
2400 2461 2506
2651 2649 2503
2651 2503 2505
1076 2657 1140
918 982 2511
2078 2510 2656
2076 2510 2078
2078 1914 2076
2076 1914 2512
1914 1982 2512
1914 2658 1982
2657 920 982
2655 2509 2511
2655 2511 982
920 2655 982
2240 2508 2654
2238 2508 2240
2240 2510 2238
2240 2656 2510
1402 1404 1238
1402 1238 1236
1074 1236 1238
1074 1238 2659
1140 1074 2659
1074 1140 2513
2512 1982 1912
2514 1912 1816
1912 1982 1816
1982 1746 1816
1982 2658 1746
1746 2660 1816
2659 1076 1140
982 918 2513
2657 982 2513
1140 2657 2513
1258 1094 1260
1260 1094 1096
940 1096 1094
940 1094 2613
919 940 2613
940 919 2615
1258 2614 1237
1094 1237 1075
1258 1237 1094
1094 1075 2613
2514 1816 1744
1574 1572 1744
1574 1744 1816
2660 1574 1816
1572 1574 1404
1572 1404 1402
1604 2618 1573
1428 1430 1604
1428 1604 1573
2616 1428 1573
1428 1260 1430
1430 1260 1262
1260 1096 1262
1262 1096 1098
1096 940 1098
1098 940 942
2615 942 940
2617 942 2615
1428 2616 1403
1258 1260 1428
1258 1428 1403
2614 1258 1403
1604 1776 1745
2618 1604 1745
1604 1430 1606
1606 1430 2752
1430 1405 2752
1262 1405 1430
1262 1239 1405
1098 1100 1262
1262 1100 1239
1100 2751 1239
1098 942 1100
1100 942 2750
942 921 2750
2617 2619 2749
2617 2749 921
942 2617 921
1915 1913 1747
1747 1913 1776
1913 2620 1776
1606 1747 1776
1606 1575 1747
1575 1606 2752
2751 1100 1077
1077 1100 2750
2619 767 2749
2619 765 767
767 765 627
627 765 625
2621 627 625
2753 627 2621
1776 2620 1745
1604 1606 1776
2623 501 2755
2623 499 501
2625 501 499
2757 501 2625
2239 2756 2624
2241 2756 2239
2241 2239 2079
2079 2239 2108
2239 2622 2108
2079 2108 2754
2755 2753 2621
2755 2621 2623
2108 2622 2077
2077 1913 1915
2077 1915 2754
2108 2077 2754
2761 2759 2627
2761 2627 2629
2703 2760 2628
2705 2760 2703
2705 2703 2557
2557 2703 2555
2557 2555 2403
2403 2555 2432
2555 2626 2432
2403 2432 2758
2759 2757 2625
2759 2625 2627
2432 2626 2401
2756 2758 2624
2624 2758 2401
2758 2432 2401
2631 2765 377
398 2631 377
2762 2764 2632
2762 2632 2945
2959 2762 2945
2959 2945 2630
2761 2629 2763
2763 2629 398
2629 375 398
398 375 2631
2947 2762 2959
2831 2833 2947
2831 2947 2959
2630 2831 2959
2831 2760 2833
2831 2628 2760
3064 2638 3052
3052 2770 3064
2769 2767 2635
2769 2635 2637
2768 2636 2634
2768 2634 3054
3051 2768 3054
3051 3054 2766
2767 2765 2633
2767 2633 2635
3054 2634 3049
2764 2766 2632
2632 2766 3049
2766 3054 3049
2763 398 377
2631 2633 2765
2772 2774 2640
2640 2774 2642
2773 500 2641
2773 502 500
2771 500 502
2639 500 2771
2638 3064 3050
2772 2640 2770
2770 2640 3064
2640 3050 3064
2771 376 2639
2771 378 376
2769 376 378
2637 376 2769
2638 2636 2768
2638 2768 3052
2946 2986 2868
2986 2834 2868
2986 2776 2834
2834 2778 2868
2777 768 816
2775 2643 2645
2775 2645 816
768 2775 816
2644 2642 2774
2644 2774 2948
2986 2644 2948
2948 2776 2986
2775 626 2643
2775 628 626
2773 626 628
2641 626 2773
2779 820 2781
2779 818 820
2647 820 818
2649 820 2647
2646 2868 2832
2706 2704 2832
2706 2832 2868
2778 2706 2868
2706 2648 2704
2706 2780 2648
2777 818 2779
2777 816 818
2645 818 816
2647 818 2645
2644 2986 2946
2646 2946 2868
2783 824 2785
2783 822 824
2651 824 822
2653 824 2651
2611 2782 2558
2652 2650 2784
2784 2650 2558
2650 2611 2558
2781 822 2783
2781 820 822
2649 822 820
2651 822 2649
2648 2780 2782
2648 2782 2611
2556 2648 2611
2556 2611 2650
2240 2302 2142
2302 2080 2142
2302 2786 2080
2080 2788 2142
2787 922 980
824 766 2655
2785 824 2655
980 2785 2655
922 2785 980
766 824 2653
2404 2652 2784
2402 2652 2404
2404 2242 2402
2402 2242 2654
2242 2302 2654
2242 2786 2302
1240 1076 1304
1076 2659 1304
2789 1076 1078
2657 1076 2789
2656 2142 2078
1916 1914 2078
1916 2078 2142
2788 1916 2142
1916 2658 1914
1916 2790 2658
2789 2787 2657
2657 2787 920
2787 980 920
920 980 2655
2654 2302 2240
2656 2240 2142
2660 1646 1574
1404 1646 1474
1574 1646 1404
1238 1474 1304
1404 1474 1238
1238 1304 2659
1748 2658 2790
1746 2658 1748
1748 1576 1746
1746 1576 2660
1576 1646 2660
1406 1646 1576
1406 1474 1646
1240 1474 1406
1240 1304 1474
1078 1076 1240
1079 1077 923
923 1077 944
1077 2750 944
769 923 767
767 923 2749
923 944 2749
769 767 627
769 627 650
2873 769 650
650 627 2753
1432 2752 1405
1264 1405 1239
1432 1405 1264
1264 1239 2751
944 2750 921
944 921 2749
2753 2875 629
650 2753 629
1946 2754 1915
1778 1915 1747
1946 1915 1778
1608 1747 1575
1778 1747 1608
1432 1434 1608
1432 1608 1575
2752 1432 1575
1432 1264 1434
1434 1264 2874
1264 1241 2874
1079 1241 1077
1077 1241 2751
1241 1264 2751
2270 2756 2241
2110 2241 2079
2270 2241 2110
1946 1948 2110
1946 2110 2079
2754 1946 2079
1946 1778 1948
1948 1778 2876
1778 1749 2876
1608 1749 1778
1608 1577 1749
1434 1577 1608
1434 1407 1577
1407 1434 2874
2873 650 629
2753 2755 2875
2877 516 503
2757 2759 2879
2757 2879 503
516 2757 503
2878 2758 2756
2878 2756 2270
2243 2878 2270
2110 2243 2270
2110 2081 2243
1948 2081 2110
1948 1917 2081
1917 1948 2876
2875 2755 2877
2877 2755 516
2755 501 516
516 501 2757
2947 2882 2762
2949 2882 2947
2949 2947 2835
2835 2947 2833
2833 2880 2835
2833 2760 2880
2881 2879 2759
2881 2759 2761
2705 2880 2760
2707 2880 2705
2707 2705 2559
2559 2705 2557
2559 2557 2405
2405 2557 2403
2403 2878 2405
2403 2758 2878
2766 2888 3051
2888 3058 3051
2885 402 2887
2885 400 402
2765 402 400
2767 402 2765
2884 2886 2764
2764 2886 2766
2883 2763 2885
2885 2763 400
2763 377 400
400 377 2765
2882 2884 2762
2762 2884 2764
2883 2881 2761
2883 2761 2763
2890 2892 2770
2770 2892 2772
2891 2889 2771
2771 2889 378
2889 406 378
378 406 2769
2768 3058 3052
2890 2770 2888
2888 2770 3058
2770 3052 3058
2887 406 2889
2887 402 406
2767 406 402
2769 406 2767
3058 2768 3051
2886 2888 2766
2894 2776 2980
2776 2948 2980
2895 770 814
630 628 770
770 628 814
628 2775 814
2893 628 630
2773 628 2893
2774 2772 2892
2774 2892 2950
2980 2774 2950
2950 2894 2980
2893 502 2773
2893 504 502
2891 502 504
2771 502 2891
2708 2780 2706
2708 2900 2780
2899 924 972
2897 2777 2779
2897 2779 972
924 2897 972
2836 2776 2896
2834 2776 2836
2836 2778 2834
2836 2898 2778
2897 2895 2777
2777 2895 768
2895 814 768
768 814 2775
2774 2980 2948
2896 2776 2894
2902 2784 2612
2784 2558 2612
2901 976 2903
2901 974 976
2781 976 974
2783 976 2781
2782 2780 2900
2782 2900 2560
2612 2782 2560
2560 2902 2612
2899 974 2901
2899 972 974
2779 974 972
2781 974 2779
2708 2778 2898
2706 2778 2708
2907 2905 2787
2787 2905 922
2905 978 922
922 978 2785
2406 2784 2904
2404 2784 2406
2404 2406 2244
2404 2244 2242
2244 2786 2242
2244 2906 2786
2903 978 2905
2903 976 978
2783 978 976
2785 978 2783
2782 2612 2558
2904 2784 2902
1078 1240 1242
1078 1242 2909
1138 1078 2909
1078 1138 2789
1918 2788 2908
1916 2788 1918
1918 2790 1916
1918 2910 2790
2909 1080 1138
2907 2787 2789
2907 2789 1138
1080 2907 1138
2082 2786 2906
2080 2786 2082
2082 2788 2080
2082 2908 2788
1266 2874 1241
1102 1241 1079
1266 1241 1102
946 1079 923
1102 1079 946
792 923 769
946 923 792
792 769 2873
1750 2790 2910
1748 2790 1750
1748 1750 1578
1748 1578 1576
1576 1578 1408
1576 1408 1406
1406 1408 1242
1406 1242 1240
1610 1577 1436
1266 1243 2874
1243 2994 2874
2994 1407 2874
2994 1436 1407
1102 1243 1266
1102 1081 1243
946 1081 1102
946 925 1081
792 925 946
792 771 925
654 2993 629
2993 771 629
771 2873 629
771 792 2873
654 629 2875
1751 2996 2876
2996 1917 2876
2996 1950 1917
1610 1751 1780
1610 1579 1751
1436 1579 1610
1436 1409 1579
1409 1436 2994
2993 654 631
2875 2877 2995
2875 2995 631
654 2875 631
1780 2876 1749
1610 1749 1577
1780 1749 1610
1436 1577 1407
2272 2112 2274
2274 2112 2998
2112 2083 2998
1950 2083 2112
1950 1919 2083
1919 1950 2996
2995 2877 2997
2997 2877 518
2877 503 518
518 503 2879
2272 2878 2243
2112 2243 2081
2272 2243 2112
1950 2081 1917
2112 2081 1950
1780 1751 2876
2999 2274 2245
2245 2274 2998
2997 520 3001
2997 518 520
2879 520 518
2881 520 2879
2724 2880 2707
2586 2707 2559
2724 2707 2586
2559 2405 2407
2559 2407 3000
2586 2559 3000
2272 2405 2878
2407 2405 2999
2405 2272 2999
2272 2274 2999
2951 3004 2960
2951 2960 3002
3001 522 3003
3001 520 522
2881 522 520
2883 522 2881
2960 2882 2949
2949 2835 2837
2949 2837 3002
2960 2949 3002
2837 2835 2709
2709 2835 2724
2835 2880 2724
2586 2709 2724
2586 2561 2709
2561 2586 3000
2888 2886 3006
2888 3006 2952
2968 2888 2952
2952 3008 2968
3005 526 3007
3005 524 526
2885 526 524
2887 526 2885
3004 3006 2884
2884 3006 2886
3003 524 3005
3003 522 524
2883 524 522
2885 524 2883
3004 2884 2882
3004 2882 2960
632 3011 672
504 530 2891
3010 3012 2890
2890 3012 2892
3009 530 3011
3009 528 530
2889 530 528
2891 530 2889
3010 2890 2888
3010 2888 2968
2953 3010 2968
2953 2968 3008
3007 528 3009
3007 526 528
2887 528 526
2889 528 2887
2862 2896 2838
2838 3016 2862
3015 770 2895
3015 772 770
630 770 772
630 772 3013
672 630 3013
630 672 2893
2954 2892 3012
2950 2892 2954
2954 2894 2950
2954 3014 2894
3013 632 672
530 504 2893
3011 530 2893
672 3011 2893
3017 970 2899
1128 3017 2899
1082 3017 1128
924 970 2897
2896 2862 2836
2898 2836 2742
2836 2862 2742
2862 2710 2742
2862 3016 2710
2710 3018 2742
3017 926 970
3015 2895 2897
3015 2897 970
926 3015 970
2896 2894 3014
2896 3014 2838
2900 2610 2560
3022 2902 3020
3020 2902 2610
2902 2560 2610
3019 1130 3021
3019 1128 1130
2899 1130 1128
2901 1130 2899
2898 2742 2708
2900 2708 2610
2708 2742 2610
2742 2562 2610
2742 3018 2562
2562 3020 2610
3019 1082 1128
970 924 2899
2246 2406 2462
3024 2246 2462
2246 2906 2244
2246 3026 2906
3025 1084 1134
3023 2903 2905
3023 2905 1134
1084 3023 1134
2904 2902 3022
2904 3022 2408
2462 2904 2408
2408 3024 2462
3021 1130 1083
2901 2903 3023
2901 3023 1083
1130 2901 1083
3029 1244 1302
1136 1080 2909
3027 1136 2909
1302 3027 2909
1244 3027 1302
1080 1136 2907
2084 2906 3026
2082 2906 2084
2084 2908 2082
2084 3028 2908
3025 1136 3027
3025 1134 1136
2905 1136 1134
2907 1136 2905
2904 2462 2406
2246 2244 2406
948 925 794
794 771 2993
1752 2910 3030
1750 2910 1752
1750 1752 1580
1750 1580 1578
1578 1580 1410
1578 1410 1408
1242 1408 1410
1242 1410 3029
1302 1242 3029
1242 1302 2909
1920 2908 3028
1918 2908 1920
1920 2910 1918
1920 3030 2910
1104 1085 1245
948 1085 1104
948 927 1085
794 927 948
794 773 927
656 3073 631
3073 773 631
773 2993 631
773 794 2993
656 631 2995
1268 2994 1243
1104 1243 1081
1268 1243 1104
948 1081 925
1104 1081 948
794 925 771
1919 2996 1782
1753 1782 3074
3073 656 633
2995 2997 3075
2995 3075 633
656 2995 633
1782 2996 1751
1751 1579 1581
1751 1581 3074
1782 1751 3074
1581 1579 1411
1411 1579 1409
1411 1409 1245
1245 1409 1268
1409 2994 1268
1104 1245 1268
2434 2245 3078
2245 2247 3078
2247 2245 2085
2085 2245 2114
2245 2998 2114
2085 2114 3076
3077 3075 2997
3077 2997 3001
2434 3000 2407
2434 2407 2999
2114 2998 2083
2083 1919 1921
2083 1921 3076
2114 2083 3076
1921 1919 1753
1753 1919 1782
2436 2409 2563
2409 2436 3078
3079 634 662
3077 3001 3003
3077 3003 662
634 3077 662
2848 3002 2837
2726 2837 2709
2848 2837 2726
2588 2709 2561
2726 2709 2588
2434 2436 2588
2434 2588 2561
3000 2434 2561
2999 2245 2434
2436 2434 3078
3082 2850 3080
3082 2852 2850
3079 664 3081
3079 662 664
3003 664 662
3005 664 3003
2964 3004 2951
2848 2850 2964
2848 2964 2951
3002 2848 2951
2848 2726 2850
2850 2726 3080
2726 2711 3080
2588 2711 2726
2588 2563 2711
2436 2563 2588
3085 3083 3007
3085 3007 3009
3006 2966 2952
2966 2852 2854
2966 2854 3008
2952 2966 3008
3084 2852 3082
3084 2854 2852
3081 664 635
3005 3007 3083
3005 3083 635
664 3005 635
3006 2964 2966
3004 2964 3006
2964 2850 2966
2966 2850 2852
3089 632 3013
3089 636 632
3087 632 636
3011 632 3087
3012 2972 2976
3010 2972 3012
3088 2972 3086
3088 2976 2972
3087 3085 3009
3087 3009 3011
2972 3010 2953
2854 2839 3008
2839 3086 3008
3086 2953 3008
3086 2972 2953
2839 2854 3084
3091 926 928
3015 926 3091
2840 3014 3090
2838 3014 2840
2840 2712 2838
2838 2712 3016
2712 2740 3016
2712 3092 2740
3091 772 3015
3091 774 772
3089 772 774
3013 772 3089
3012 2976 2954
3090 3014 3088
3088 3014 2976
3014 2954 2976
3094 3020 2604
3020 2562 2604
3095 3093 3019
3019 3093 1082
3093 1126 1082
1082 1126 3017
3016 2740 2710
3018 2710 2604
2710 2740 2604
2740 2564 2604
2740 3092 2564
2564 3094 2604
3093 1086 1126
928 926 1086
1086 926 1126
926 3017 1126
2408 2458 2300
2458 2248 2300
2458 3098 2248
2248 3100 2300
3097 3021 3099
3099 3021 1132
3021 1083 1132
1132 1083 3023
3022 3020 3096
3022 3096 2410
2458 3022 2410
2410 3098 2458
3097 3095 3019
3097 3019 3021
3018 2604 2562
3096 3020 3094
2086 3026 3102
2084 3026 2086
2086 3028 2084
2086 3104 3028
3103 3101 3025
3103 3025 3027
3024 2300 2246
3102 3026 3100
3100 3026 2300
3026 2246 2300
3101 3099 3025
3025 3099 1084
3099 1132 1084
1084 1132 3023
3022 2458 2408
3024 2408 2300
1410 1580 1582
1410 1582 3105
1472 1410 3105
1410 1472 3029
1922 3028 3104
1920 3028 1922
1922 1754 1920
1920 1754 3030
1754 1814 3030
1754 3106 1814
3105 1412 1472
1246 1244 1412
1412 1244 1472
1244 3029 1472
3103 1244 1246
3027 1244 3103
1612 3074 1581
1438 1581 1411
1612 1581 1438
1270 1411 1245
1438 1411 1270
1106 1245 1085
1270 1245 1106
950 1085 927
1106 1085 950
796 927 773
950 927 796
796 773 3073
3030 1814 1752
1582 1580 1752
1582 1752 1814
3106 1582 1814
1612 1440 1583
1440 3109 1583
1438 1270 1440
1440 1270 1272
1270 1106 1272
1272 1106 3108
1106 1087 3108
950 1087 1106
950 929 1087
796 798 950
950 798 929
798 3107 929
658 798 796
658 796 3073
633 658 3073
658 633 3075
1272 1247 1413
1247 1272 3108
3107 800 3111
3107 798 800
798 658 800
800 658 660
3075 660 658
3077 660 3075
1921 3110 3076
1923 3110 1921
1923 1921 1755
1755 1921 1753
1755 1753 1583
1583 1753 1612
1753 3074 1612
1438 1440 1612
3113 930 956
802 956 800
800 956 3111
956 930 3111
802 800 660
802 660 634
3079 802 634
634 660 3077
2276 3078 2247
2247 2085 2087
2247 2087 3112
2276 2247 3112
2085 3110 2087
2085 3076 3110
3109 1440 1413
1272 1413 1440
3113 956 931
802 804 956
956 804 931
804 3115 931
3079 804 802
3081 804 3079
2728 3080 2711
2590 2711 2563
2728 2711 2590
2438 2563 2409
2590 2563 2438
2276 2249 3078
2249 3114 3078
3114 2409 3078
3114 2438 2409
2249 2276 3112
3118 2592 3116
3118 2594 2592
3115 804 775
666 3117 635
3117 775 635
775 3081 635
775 804 3081
666 635 3083
3082 2728 2730
3080 2728 3082
2728 2590 2730
2730 2590 2592
2590 2438 2592
2592 2438 3116
2438 2411 3116
2411 2438 3114
2856 3086 2839
2732 2734 2856
2732 2856 2839
3084 2732 2839
2732 2594 2734
2734 2594 3120
2594 2565 3120
2565 2594 3118
3117 668 3119
3117 666 668
3083 668 666
3085 668 3083
3084 2730 2732
3082 2730 3084
2730 2592 2732
2732 2592 2594
3123 776 812
670 636 3089
3121 670 3089
812 3121 3089
776 3121 812
636 670 3087
3088 2856 2858
3086 2856 3088
2856 2734 2858
2858 2734 2736
3122 2734 3120
3122 2736 2734
3119 670 3121
3119 668 670
3085 670 668
3087 670 3085
2712 2738 2602
2738 2566 2602
2738 3124 2566
2566 3126 2602
3125 932 968
812 774 3091
3123 812 3091
968 3123 3091
932 3123 968
774 812 3089
3090 2858 2860
3088 2858 3090
2858 2736 2860
2860 2736 2738
3124 2736 3122
3124 2738 2736
2564 2602 2452
2602 2412 2452
2602 3126 2412
2412 3128 2452
3127 1248 1290
1088 1086 1248
1248 1086 1290
1086 3093 1290
928 1086 1088
928 1088 3125
968 928 3125
928 968 3091
3090 2860 2840
2712 2860 2738
2840 2860 2712
3092 2712 2602
2456 3130 2250
2250 3132 2298
3129 1294 3131
3129 1292 1294
3095 1294 1292
3097 1294 3095
3096 2452 2456
3094 2452 3096
3130 2452 3128
3130 2456 2452
3127 1292 3129
3127 1290 1292
3093 1292 1290
3095 1292 3093
3092 2602 2564
3094 2564 2452
3099 1298 1296
3101 1298 3099
3098 2298 2248
3100 2248 2138
2248 2298 2138
2298 2088 2138
2298 3132 2088
2088 3134 2138
3131 1296 3133
3131 1294 1296
3097 1296 1294
3099 1296 3097
3096 2456 2410
3098 2410 2298
2410 2456 2298
2456 2250 2298
1978 3136 1756
1756 3138 1812
3137 1414 1470
1300 1470 1298
1298 1470 3135
1470 1414 3135
3101 1300 1298
3103 1300 3101
3102 2138 2140
3100 2138 3102
2140 2138 1978
1978 2138 1924
2138 3134 1924
1924 3136 1978
3133 1298 3135
3133 1296 1298
1754 1812 1644
1812 1584 1644
1812 3138 1584
1470 1412 3105
3137 1470 3105
1644 3137 3105
1584 3137 1644
1246 1470 1300
1412 1470 1246
1246 1300 3103
3102 2140 2086
2140 1978 1980
2140 1980 3104
2086 2140 3104
1980 1978 1812
1812 1978 1756
1923 1757 3140
1952 1923 3140
1757 1755 1585
1585 1755 1583
3109 1585 1583
3139 1585 3109
1108 3108 1087
952 1087 929
1108 1087 952
952 929 3107
3106 1644 1582
1582 1644 3105
3104 1980 1922
1754 1980 1812
1922 1980 1754
3106 1754 1644
2087 3110 1952
1925 1952 3140
3109 1415 3139
3109 1413 1415
1415 1413 1247
1415 1247 1274
3141 1415 1274
1108 1110 1274
1108 1274 1247
3108 1108 1247
1108 952 1110
1110 952 954
3107 954 952
3111 954 3107
1952 3110 1923
1923 1755 1757
2249 3144 3114
2251 3144 2249
2249 3142 2251
2249 3112 3142
3141 1274 1249
1110 1249 1274
1110 1089 1249
1089 1110 3143
3113 3143 930
3143 1110 930
1110 954 930
930 954 3111
2087 3142 3112
2089 3142 2087
2089 2087 1925
1925 2087 1952
3148 2440 3146
3148 2442 2440
3145 960 3147
3145 958 960
806 960 958
806 958 3115
775 806 3115
806 775 3117
2440 3116 2411
3144 3146 3114
3114 3146 2411
3146 2440 2411
3143 3113 3145
3145 3113 958
3113 931 958
958 931 3115
3119 810 808
3121 810 3119
2596 3120 2565
2442 2444 2596
2442 2596 2565
3118 2442 2565
3150 2442 3148
3150 2444 2442
3147 960 933
806 808 960
960 808 933
808 3149 933
3117 808 806
3119 808 3117
3118 2440 2442
3116 2440 3118
964 1122 3151
1122 1090 3151
966 964 810
966 810 776
3123 966 776
776 810 3121
3122 2596 2598
3120 2596 3122
2596 2444 2598
2598 2444 2446
3152 2444 3150
3152 2446 2444
3151 934 964
810 964 808
808 964 3149
964 934 3149
3155 1250 1288
1124 1288 1122
1122 1288 3153
1288 1250 3153
1124 1122 966
1124 966 932
3125 1124 932
932 966 3123
3124 2598 2600
3122 2598 3124
2598 2446 2600
2600 2446 2448
3154 2446 3152
3154 2448 2446
3153 1090 1122
966 1122 964
2412 2450 2294
2450 2252 2294
2450 3156 2252
2252 3158 2294
3157 3155 3127
3127 3155 1248
3155 1288 1248
1088 1288 1124
1248 1288 1088
1088 1124 3125
3124 2600 2566
2600 2448 2450
2600 2450 3126
2566 2600 3126
3156 2448 3154
3156 2450 2448
1586 1636 1806
1464 1636 1460
1460 1636 3159
1636 1586 3159
3129 1464 1460
3131 1464 3129
3130 2294 2296
3128 2294 3130
3160 2294 3158
3160 2296 2294
3159 1416 1460
3157 3127 3129
3157 3129 1460
1416 3157 1460
3126 2450 2412
3128 2412 2294
1806 1636 1808
1808 1636 1638
1636 1464 1638
1638 1464 1466
3131 1466 1464
3133 1466 3131
3130 2296 2250
3132 2250 2136
2250 2296 2136
2296 2090 2136
2296 3160 2090
1926 2136 2090
1926 1974 2136
1758 1974 1926
1758 1806 1974
1586 1806 1758
3134 1976 1924
1976 1808 1810
1976 1810 3136
1924 1976 3136
1808 1638 1810
1810 1638 1640
1638 1466 1640
1640 1466 1468
3133 1468 1466
3135 1468 3133
3132 2136 2088
2136 1974 1976
2136 1976 3134
2088 2136 3134
1974 1806 1976
1976 1806 1808
1587 1614 3139
1442 1415 3141
1784 3140 1757
1614 1757 1585
1784 1757 1614
1614 1585 3139
3138 1642 1584
1584 1642 3137
3136 1810 1756
1810 1640 1642
1810 1642 3138
1756 1810 3138
1642 1640 1468
1642 1468 1414
3137 1642 1414
1414 1468 3135
1417 1442 3141
1112 1249 1089
1276 1249 1112
1112 1089 3143
2116 3142 2089
2089 1925 1927
2089 1927 3162
2116 2089 3162
1927 1925 1759
1759 1925 1784
1925 3140 1784
1614 1759 1784
1614 1587 1759
1442 3161 1415
3161 1587 1415
1587 3139 1415
3163 1276 1251
1112 1114 1276
1276 1114 1251
1114 3165 1251
3143 1114 1112
3145 1114 3143
2278 3144 2251
2116 2091 3142
2091 3164 3142
3164 2251 3142
3164 2278 2251
2091 2116 3162
3161 1442 1417
1276 3163 1249
3163 1417 1249
1417 3141 1249
1116 1282 3167
1282 1252 3167
962 1118 1116
962 1116 3147
933 962 3147
962 933 3149
3166 3168 3146
3146 3168 3148
3165 1116 3167
3165 1114 1116
3145 1116 1114
3147 1116 3145
3166 3146 3144
3166 3144 2278
2253 3166 2278
2253 2278 3164
3153 1286 1090
1090 1120 3151
3170 3172 3150
3150 3172 3152
3169 1284 3171
3169 1282 1284
1282 1118 1284
1284 1118 1120
1120 1118 962
1120 962 934
3151 1120 934
934 962 3149
3168 3170 3148
3148 3170 3150
3169 1252 1282
1118 1282 1116
3156 3154 3174
3156 3174 2254
2290 3156 2254
2254 3176 2290
3175 1418 1456
1286 1250 3155
3173 1286 3155
1456 3173 3155
1418 3173 1456
1250 1286 3153
3172 3174 3152
3152 3174 3154
3171 1286 3173
3171 1284 1286
1286 1284 1120
1286 1120 1090
3179 1588 1634
1458 1416 3159
3177 1458 3159
1634 3177 3159
1588 3177 1634
1416 1458 3157
3156 2290 2252
3158 2252 2132
2252 2290 2132
2290 2092 2132
2290 3176 2092
2092 3178 2132
3175 1458 3177
3175 1456 1458
3155 1458 1456
3157 1458 3155
3160 2134 2090
1926 2134 1972
2090 2134 1926
1760 1758 1926
1760 1926 1972
3180 1760 1972
1586 1758 1760
1586 1760 3179
1634 1586 3179
1586 1634 3159
3160 2132 2134
3158 2132 3160
2134 2132 1972
1972 2132 1928
2132 3178 1928
1928 3180 1972
1954 1786 1956
1956 1786 3182
1786 1761 3182
1616 1618 1786
1786 1618 1761
1618 3181 1761
1444 1618 1616
1444 1616 3161
1417 1444 3161
1444 1417 3163
1954 3162 1927
1786 1927 1759
1954 1927 1786
1616 1759 1587
1786 1759 1616
1616 1587 3161
2118 1956 2120
2120 1956 1958
3184 1956 3182
3184 1958 1956
3181 1618 1589
1444 1446 1618
1618 1446 1589
1446 3183 1589
1278 1446 1444
1278 1444 3163
1251 1278 3163
1278 1251 3165
2118 3164 2091
1954 1956 2118
1954 2118 2091
3162 1954 2091
2120 1958 2122
2122 1958 3186
1958 1929 3186
1929 1958 3184
3185 1590 1622
1448 1622 1446
1446 1622 3183
1622 1590 3183
1446 1278 1448
1448 1278 1280
3165 1280 1278
3167 1280 3165
2280 3166 2253
2118 2120 2280
2118 2280 2253
3164 2118 2253
2282 2122 2284
2284 2122 3188
2122 2093 3188
2093 2122 3186
3185 1622 1591
1448 1450 1622
1622 1450 1591
1450 3187 1591
1450 1448 1280
1450 1280 1252
3169 1450 1252
1252 1280 3167
3168 2280 2282
3166 2280 3168
2280 2120 2282
2282 2120 2122
3192 2286 3190
3192 2288 2286
3189 1454 3191
3189 1452 1454
3171 1454 1452
3173 1454 3171
3172 2284 2286
3170 2284 3172
3190 2284 3188
3190 2286 2284
3187 1452 3189
3187 1450 1452
3169 1452 1450
3171 1452 3169
3170 2282 2284
3168 2282 3170
2254 2288 2130
2288 2094 2130
2288 3192 2094
1930 2130 2094
1930 1968 2130
1762 1968 1930
1762 1800 1968
1592 1800 1762
1592 1630 1800
1454 1418 3175
3191 1454 3175
1630 3191 3175
1592 3191 1630
1418 1454 3173
3174 2286 2288
3172 2286 3174
1804 1802 1632
1804 1632 1588
3179 1804 1588
1588 1632 3177
3176 2130 2092
2130 1968 1970
2130 1970 3178
2092 2130 3178
1968 1800 1970
1970 1800 1802
1800 1630 1802
1802 1630 1632
3175 1632 1630
3177 1632 3175
3174 2288 2254
3176 2254 2130
3185 1792 1590
1590 1620 3183
3184 1788 1790
3182 1788 3184
1620 1790 1788
1620 1788 3181
1589 1620 3181
1620 1589 3183
1788 3182 1761
1788 1761 3181
3180 1804 1760
1760 1804 3179
3178 1970 1928
1970 1802 1804
1970 1804 3180
1928 1970 3180
2124 3188 2093
1960 1962 2124
1960 2124 2093
3186 1960 2093
1960 1792 1962
1962 1792 1794
1624 1794 1792
1624 1792 3185
1591 1624 3185
1624 1591 3187
1960 3186 1929
1790 1792 1960
1790 1960 1929
3184 1790 1929
1792 1790 1620
1792 1620 1590
947 1103 1105
947 1105 949
947 7 5
949 7 947
1609 4 6
1607 4 1609
1433 1607 1609
1433 1609 1435
1265 1433 1435
1265 1435 1267
1101 1265 1267
1101 1267 1103
1101 1103 947
1101 947 877
3 1101 877
5 877 947
2126 1964 2128
3190 2126 3192
3192 2126 2128
1592 1628 3191
1762 1798 1592
1592 1798 1628
1930 1966 1762
1762 1966 1798
2094 2128 1930
1930 2128 1966
3192 2128 2094
1 1033 1099
